<svg width="20" height="22" viewBox="0 0 20 22" fill="none" xmlns="http://www.w3.org/2000/svg">
<path d="M10.0114 8.15486C9.31058 8.15486 8.65433 8.42673 8.15746 8.92361C7.66293 9.42048 7.38871 10.0767 7.38871 10.7775C7.38871 11.4783 7.66293 12.1345 8.15746 12.6314C8.65433 13.126 9.31058 13.4002 10.0114 13.4002C10.7121 13.4002 11.3684 13.126 11.8653 12.6314C12.3598 12.1345 12.634 11.4783 12.634 10.7775C12.634 10.0767 12.3598 9.42048 11.8653 8.92361C11.6226 8.67906 11.3337 8.48516 11.0155 8.35319C10.6972 8.22122 10.3559 8.15381 10.0114 8.15486ZM19.6746 13.6744L18.1418 12.3642C18.2145 11.9189 18.252 11.4642 18.252 11.0119C18.252 10.5595 18.2145 10.1025 18.1418 9.65955L19.6746 8.34939C19.7904 8.25027 19.8733 8.11824 19.9122 7.97087C19.9512 7.8235 19.9443 7.66777 19.8926 7.52439L19.8715 7.46345C19.4497 6.28382 18.8176 5.19038 18.0059 4.23611L17.9637 4.18689C17.8651 4.071 17.7338 3.98769 17.5869 3.94794C17.4401 3.90819 17.2846 3.91387 17.1411 3.96423L15.2379 4.64158C14.5348 4.06501 13.752 3.61033 12.9036 3.29392L12.5356 1.30408C12.5078 1.15418 12.4351 1.01627 12.3271 0.908681C12.2191 0.801092 12.0809 0.728913 11.9309 0.701733L11.8676 0.690015C10.6489 0.469702 9.36449 0.469702 8.14574 0.690015L8.08246 0.701733C7.93245 0.728913 7.79426 0.801092 7.68625 0.908681C7.57825 1.01627 7.50553 1.15418 7.47777 1.30408L7.10746 3.3033C6.26705 3.62222 5.48416 4.07581 4.78949 4.64626L2.8723 3.96423C2.72878 3.91347 2.57322 3.90759 2.42627 3.94736C2.27933 3.98713 2.14797 4.07067 2.04964 4.18689L2.00746 4.23611C1.19721 5.1914 0.565281 6.28456 0.141833 7.46345L0.120739 7.52439C0.0152701 7.81736 0.101989 8.14548 0.338708 8.34939L1.89027 9.67361C1.81761 10.1142 1.78246 10.5642 1.78246 11.0095C1.78246 11.4595 1.81761 11.9095 1.89027 12.3455L0.343395 13.6697C0.227604 13.7688 0.14473 13.9009 0.105795 14.0482C0.0668596 14.1956 0.0737067 14.3513 0.125426 14.4947L0.14652 14.5556C0.570739 15.7345 1.19652 16.8244 2.01214 17.783L2.05433 17.8322C2.1529 17.9481 2.28426 18.0314 2.43112 18.0712C2.57797 18.1109 2.73343 18.1052 2.87699 18.0549L4.79418 17.3728C5.49261 17.947 6.27074 18.4017 7.11214 18.7158L7.48246 20.715C7.51022 20.8649 7.58293 21.0028 7.69094 21.1104C7.79895 21.218 7.93714 21.2902 8.08714 21.3174L8.15043 21.3291C9.38116 21.5506 10.6416 21.5506 11.8723 21.3291L11.9356 21.3174C12.0856 21.2902 12.2238 21.218 12.3318 21.1104C12.4398 21.0028 12.5125 20.8649 12.5403 20.715L12.9082 18.7252C13.7567 18.4064 14.5395 17.9541 15.2426 17.3775L17.1457 18.0549C17.2893 18.1056 17.4448 18.1115 17.5918 18.0717C17.7387 18.032 17.8701 17.9484 17.9684 17.8322L18.0106 17.783C18.8262 16.8197 19.452 15.7345 19.8762 14.5556L19.8973 14.4947C19.9981 14.2041 19.9114 13.8783 19.6746 13.6744ZM10.0114 14.8978C7.73558 14.8978 5.89105 13.0533 5.89105 10.7775C5.89105 8.50173 7.73558 6.6572 10.0114 6.6572C12.2871 6.6572 14.1317 8.50173 14.1317 10.7775C14.1317 13.0533 12.2871 14.8978 10.0114 14.8978Z" fill="#717484"/>
</svg>
