<svg width="22" height="20" viewBox="0 0 22 20" fill="none" xmlns="http://www.w3.org/2000/svg">
<path d="M20.675 7.0375C20.1479 5.78994 19.3838 4.6565 18.425 3.7C17.4685 2.74119 16.3351 1.97707 15.0875 1.45C13.7914 0.901562 12.418 0.625 11 0.625C9.58203 0.625 8.20859 0.901562 6.9125 1.45C5.66494 1.97707 4.5315 2.74119 3.575 3.7C2.61619 4.6565 1.85207 5.78994 1.325 7.0375C0.776562 8.33359 0.5 9.70703 0.5 11.125C0.5 14.2352 1.86641 17.1648 4.24766 19.1664L4.2875 19.1992C4.42344 19.3117 4.59453 19.375 4.77031 19.375H17.232C17.4078 19.375 17.5789 19.3117 17.7148 19.1992L17.7547 19.1664C20.1336 17.1648 21.5 14.2352 21.5 11.125C21.5 9.70703 21.2211 8.33359 20.675 7.0375ZM10.2969 3.4375C10.2969 3.33437 10.3813 3.25 10.4844 3.25H11.5156C11.6187 3.25 11.7031 3.33437 11.7031 3.4375V5.3125C11.7031 5.41563 11.6187 5.5 11.5156 5.5H10.4844C10.3813 5.5 10.2969 5.41563 10.2969 5.3125V3.4375ZM5.32812 11.6406C5.32812 11.7437 5.24375 11.8281 5.14062 11.8281H3.26562C3.1625 11.8281 3.07812 11.7437 3.07812 11.6406V10.6094C3.07812 10.5063 3.1625 10.4219 3.26562 10.4219H5.14062C5.24375 10.4219 5.32812 10.5063 5.32812 10.6094V11.6406ZM7.45391 6.84766L6.725 7.57656C6.68976 7.61146 6.64217 7.63103 6.59258 7.63103C6.54299 7.63103 6.4954 7.61146 6.46016 7.57656L5.13359 6.25C5.0987 6.21476 5.07913 6.16717 5.07913 6.11758C5.07913 6.06799 5.0987 6.0204 5.13359 5.98516L5.8625 5.25625C5.93516 5.18359 6.05469 5.18359 6.12734 5.25625L7.45391 6.58281C7.52656 6.65547 7.52656 6.775 7.45391 6.84766ZM14.2766 8.80703L12.2961 10.7875C12.4133 11.2258 12.3008 11.7109 11.9562 12.0555C11.8344 12.1775 11.6898 12.2743 11.5305 12.3404C11.3713 12.4064 11.2005 12.4404 11.0281 12.4404C10.8557 12.4404 10.685 12.4064 10.5257 12.3404C10.3665 12.2743 10.2218 12.1775 10.1 12.0555C9.97797 11.9337 9.88116 11.789 9.8151 11.6297C9.74904 11.4705 9.71504 11.2998 9.71504 11.1273C9.71504 10.9549 9.74904 10.7842 9.8151 10.6249C9.88116 10.4657 9.97797 10.321 10.1 10.1992C10.2627 10.036 10.4657 9.9186 10.6883 9.85893C10.911 9.79926 11.1454 9.79941 11.368 9.85938L13.3484 7.87891C13.4211 7.80625 13.5406 7.80625 13.6133 7.87891L14.2766 8.54219C14.3492 8.61484 14.3492 8.73203 14.2766 8.80703ZM15.2844 7.57891L14.5555 6.85C14.5206 6.81476 14.501 6.76717 14.501 6.71758C14.501 6.66799 14.5206 6.6204 14.5555 6.58516L15.882 5.25859C15.9547 5.18594 16.0742 5.18594 16.1469 5.25859L16.8758 5.9875C16.9484 6.06016 16.9484 6.17969 16.8758 6.25234L15.5492 7.57891C15.514 7.6138 15.4664 7.63338 15.4168 7.63338C15.3672 7.63338 15.3196 7.6138 15.2844 7.57891ZM18.8281 11.6406C18.8281 11.7437 18.7437 11.8281 18.6406 11.8281H16.7656C16.6625 11.8281 16.5781 11.7437 16.5781 11.6406V10.6094C16.5781 10.5063 16.6625 10.4219 16.7656 10.4219H18.6406C18.7437 10.4219 18.8281 10.5063 18.8281 10.6094V11.6406Z" fill="#ED6A45"/>
</svg>
