<svg width="22" height="18" viewBox="0 0 22 18" fill="none" xmlns="http://www.w3.org/2000/svg">
<path d="M20.7031 0.84375H1.20312C0.788281 0.84375 0.453125 1.17891 0.453125 1.59375V16.5938C0.453125 17.0086 0.788281 17.3438 1.20312 17.3438H20.7031C21.118 17.3438 21.4531 17.0086 21.4531 16.5938V1.59375C21.4531 1.17891 21.118 0.84375 20.7031 0.84375ZM18.5398 5.4L11.5789 12.3656C11.5437 12.4005 11.4961 12.4201 11.4465 12.4201C11.3969 12.4201 11.3493 12.4005 11.3141 12.3656L8.63047 9.68203L4.5875 13.7273C4.55226 13.7622 4.50467 13.7818 4.45508 13.7818C4.40549 13.7818 4.3579 13.7622 4.32266 13.7273L3.46016 12.8648C3.42526 12.8296 3.40569 12.782 3.40569 12.7324C3.40569 12.6828 3.42526 12.6352 3.46016 12.6L8.49688 7.56094C8.56953 7.48828 8.68906 7.48828 8.76172 7.56094L11.4453 10.2422L17.4102 4.275C17.4828 4.20234 17.6023 4.20234 17.675 4.275L18.5375 5.1375C18.6125 5.20781 18.6125 5.32734 18.5398 5.4Z" fill="#717484"/>
</svg>
