<svg width="20" height="20" viewBox="0 0 20 20" fill="none" xmlns="http://www.w3.org/2000/svg">
<path d="M18.625 0.625H1.375C0.960156 0.625 0.625 0.960156 0.625 1.375V18.625C0.625 19.0398 0.960156 19.375 1.375 19.375H18.625C19.0398 19.375 19.375 19.0398 19.375 18.625V1.375C19.375 0.960156 19.0398 0.625 18.625 0.625ZM10.0258 10.143L5.52578 13.9164C5.40391 14.0195 5.21875 13.9328 5.21875 13.7734V12.3039C5.21875 12.25 5.24453 12.1961 5.28672 12.1609L7.86016 10L5.28672 7.83906C5.26518 7.82205 5.24784 7.8003 5.23605 7.77551C5.22427 7.75072 5.21835 7.72354 5.21875 7.69609V6.22656C5.21875 6.06719 5.40391 5.98047 5.52578 6.08359L10.0258 9.85469C10.1172 9.92969 10.1172 10.068 10.0258 10.143ZM14.7812 13.7734C14.7812 13.8766 14.7016 13.9609 14.6055 13.9609H10.2695C10.1734 13.9609 10.0938 13.8766 10.0938 13.7734V12.6484C10.0938 12.5453 10.1734 12.4609 10.2695 12.4609H14.6055C14.7016 12.4609 14.7812 12.5453 14.7812 12.6484V13.7734Z" fill="#717484"/>
</svg>
