<svg width="18" height="18" viewBox="0 0 18 18" fill="none" xmlns="http://www.w3.org/2000/svg">
<path d="M17.4375 8.10938H3.72423L11.932 0.984375C12.0633 0.869531 11.9836 0.65625 11.8102 0.65625H9.73594C9.64454 0.65625 9.55782 0.689062 9.48985 0.747656L0.632819 8.43281C0.551699 8.50313 0.486641 8.59006 0.442053 8.68772C0.397465 8.78537 0.37439 8.89147 0.37439 8.99883C0.37439 9.10618 0.397465 9.21228 0.442053 9.30994C0.486641 9.4076 0.551699 9.49453 0.632819 9.56484L9.54141 17.2969C9.57657 17.3273 9.61876 17.3438 9.66329 17.3438H11.8078C11.9813 17.3438 12.0609 17.1281 11.9297 17.0156L3.72423 9.89062H17.4375C17.5406 9.89062 17.625 9.80625 17.625 9.70312V8.29688C17.625 8.19375 17.5406 8.10938 17.4375 8.10938Z" fill="#717484"/>
</svg>