<svg viewBox="0 0 15 14" fill="none" xmlns="http://www.w3.org/2000/svg">
<path d="M14.4 1.26H11.25V0.14C11.25 0.063 11.1825 0 11.1 0H10.05C9.9675 0 9.9 0.063 9.9 0.14V1.26H5.1V0.14C5.1 0.063 5.0325 0 4.95 0H3.9C3.8175 0 3.75 0.063 3.75 0.14V1.26H0.6C0.268125 1.26 0 1.51025 0 1.82V13.44C0 13.7498 0.268125 14 0.6 14H14.4C14.7319 14 15 13.7498 15 13.44V1.82C15 1.51025 14.7319 1.26 14.4 1.26ZM13.65 12.74H1.35V6.09H13.65V12.74ZM1.35 4.9V2.52H3.75V3.36C3.75 3.437 3.8175 3.5 3.9 3.5H4.95C5.0325 3.5 5.1 3.437 5.1 3.36V2.52H9.9V3.36C9.9 3.437 9.9675 3.5 10.05 3.5H11.1C11.1825 3.5 11.25 3.437 11.25 3.36V2.52H13.65V4.9H1.35Z" fill="currentColor" />
</svg>
