<svg viewBox="0 0 14 14" fill="none" xmlns="http://www.w3.org/2000/svg">
<path d="M0.75 12.75C0.75 13.0266 0.973437 13.25 1.25 13.25H12.75C13.0266 13.25 13.25 13.0266 13.25 12.75V6.1875H0.75V12.75ZM12.75 1.875H10.125V0.875C10.125 0.80625 10.0688 0.75 10 0.75H9.125C9.05625 0.75 9 0.80625 9 0.875V1.875H5V0.875C5 0.80625 4.94375 0.75 4.875 0.75H4C3.93125 0.75 3.875 0.80625 3.875 0.875V1.875H1.25C0.973437 1.875 0.75 2.09844 0.75 2.375V5.125H13.25V2.375C13.25 2.09844 13.0266 1.875 12.75 1.875Z" fill="currentColor"/>
</svg>
