<svg viewBox="0 0 16 14" xmlns="http://www.w3.org/2000/svg">
<path d="M14.1875 2.57031H11.7969L11.2273 0.974219C11.188 0.865003 11.1159 0.770597 11.0209 0.703898C10.9259 0.637199 10.8126 0.60146 10.6965 0.601563H5.30352C5.06621 0.601563 4.85352 0.750977 4.77441 0.974219L4.20312 2.57031H1.8125C1.03555 2.57031 0.40625 3.19961 0.40625 3.97656V11.9922C0.40625 12.7691 1.03555 13.3984 1.8125 13.3984H14.1875C14.9645 13.3984 15.5938 12.7691 15.5938 11.9922V3.97656C15.5938 3.19961 14.9645 2.57031 14.1875 2.57031ZM8 10.5859C6.44609 10.5859 5.1875 9.32734 5.1875 7.77344C5.1875 6.21953 6.44609 4.96094 8 4.96094C9.55391 4.96094 10.8125 6.21953 10.8125 7.77344C10.8125 9.32734 9.55391 10.5859 8 10.5859ZM6.3125 7.77344C6.3125 8.22099 6.49029 8.65021 6.80676 8.96668C7.12322 9.28315 7.55245 9.46094 8 9.46094C8.44755 9.46094 8.87678 9.28315 9.19324 8.96668C9.50971 8.65021 9.6875 8.22099 9.6875 7.77344C9.6875 7.32588 9.50971 6.89666 9.19324 6.58019C8.87678 6.26373 8.44755 6.08594 8 6.08594C7.55245 6.08594 7.12322 6.26373 6.80676 6.58019C6.49029 6.89666 6.3125 7.32588 6.3125 7.77344Z" fill="currentColor" />
</svg>
