<svg viewBox="0 0 18 16" fill="none" xmlns="http://www.w3.org/2000/svg">
  <path d="M17.0781 14.0156H2.29688V0.609375C2.29688 0.514844 2.21953 0.4375 2.125 0.4375H0.921875C0.827344 0.4375 0.75 0.514844 0.75 0.609375V15.3906C0.75 15.4852 0.827344 15.5625 0.921875 15.5625H17.0781C17.1727 15.5625 17.25 15.4852 17.25 15.3906V14.1875C17.25 14.093 17.1727 14.0156 17.0781 14.0156ZM4.56992 10.7006C4.63652 10.7672 4.74395 10.7672 4.8127 10.7006L7.78398 7.74434L10.5254 10.5029C10.592 10.5695 10.7016 10.5695 10.7682 10.5029L16.685 4.58828C16.7516 4.52168 16.7516 4.41211 16.685 4.34551L15.8342 3.49473C15.8019 3.46274 15.7583 3.4448 15.7128 3.4448C15.6673 3.4448 15.6237 3.46274 15.5914 3.49473L10.65 8.43398L7.91289 5.67969C7.88059 5.6477 7.83696 5.62976 7.7915 5.62976C7.74604 5.62976 7.70242 5.6477 7.67012 5.67969L3.72129 9.60488C3.6893 9.63719 3.67136 9.68081 3.67136 9.72627C3.67136 9.77173 3.6893 9.81535 3.72129 9.84766L4.56992 10.7006Z" fill="currentColor"/>
</svg>
