<svg viewBox="0 0 16 13" fill="none" xmlns="http://www.w3.org/2000/svg">
<path d="M2.33674 5.59363H2.3368C2.42725 5.59374 2.5165 5.61425 2.59786 5.65363C2.67922 5.69301 2.75058 5.75024 2.80658 5.82104M2.33674 5.59363L6.12724 10.0915L6.15915 10.0513M2.33674 5.59363H1.13753C0.981235 5.59363 0.893663 5.77308 0.990242 5.89506L0.990259 5.89508L5.68934 11.8235L5.68935 11.8235C5.92905 12.1256 6.38927 12.1254 6.63053 11.8236L6.63066 11.8235L15.0095 1.25009C15.0095 1.25004 15.0096 1.24998 15.0096 1.24993C15.1071 1.12893 15.0179 0.95 14.8625 0.95H13.6633C13.48 0.95 13.3059 1.03374 13.1933 1.17754C13.1933 1.17757 13.1933 1.17759 13.1933 1.17762L6.15915 10.0513M2.33674 5.59363L6.19104 10.0915L6.15915 10.0513M2.80658 5.82104L2.76736 5.85206L2.80655 5.82101L2.80658 5.82104ZM2.80658 5.82104L6.15915 10.0513" fill="currentColor" stroke="currentColor" stroke-width="0.1"/>
</svg>
