<svg width="100" height="100" viewBox="0 0 61 81" fill="none" xmlns="http://www.w3.org/2000/svg">
<path d="M53.01 25.923L60.0017 14.7852C60.2303 14.4209 60.2431 13.9609 60.035 13.5845C59.8269 13.2081 59.4306 12.9743 59.0005 12.9743H23.8918V10.4625C25.1053 9.36213 25.8687 7.77372 25.8687 6.01034C25.8687 2.69622 23.1725 0 19.8584 0C16.5443 0 13.8481 2.69622 13.8481 6.01034C13.8481 7.77167 14.6096 9.35835 15.8206 10.4586V63.8652H8.74691C7.11342 63.8652 5.78446 65.1942 5.78446 66.8276V71.1052H2.96245C1.32896 71.1052 0 72.4341 0 74.0676V77.7426C0 79.3761 1.32896 80.705 2.96245 80.705H39.0106C40.6441 80.705 41.9731 79.3761 41.9731 77.7426V74.0676C41.9731 72.4341 40.6441 71.1052 39.0106 71.1052H36.1886V66.8278C36.1886 65.1943 34.8597 63.8653 33.2262 63.8653H23.8918V38.8714H41.8344C42.4874 38.8714 43.0166 38.3421 43.0166 37.6892C43.0166 37.0363 42.4874 36.507 41.8344 36.507H23.8918V15.3389H56.8624L50.6128 25.2943C50.3716 25.6786 50.3716 26.1671 50.6128 26.5516L56.8624 36.507H47.4221C46.7691 36.507 46.2399 37.0363 46.2399 37.6892C46.2399 38.3421 46.7691 38.8714 47.4221 38.8714H59.0003C59.4305 38.8714 59.8268 38.6378 60.0348 38.2613C60.2429 37.8847 60.2301 37.4249 60.0016 37.0606L53.01 25.923ZM19.8584 2.36441C21.8688 2.36441 23.5043 3.99996 23.5043 6.01034C23.5043 7.22502 22.9068 8.30209 21.9906 8.96507C20.7575 9.86055 19.0539 9.87427 17.7985 9.01661C16.8416 8.35883 16.2125 7.25686 16.2125 6.01034C16.2125 3.99996 17.848 2.36441 19.8584 2.36441ZM33.8242 66.8278V71.1053H22.6547C22.0017 71.1053 21.4725 71.6347 21.4725 72.2875C21.4725 72.9404 22.0017 73.4698 22.6547 73.4698H39.0108C39.335 73.4698 39.6088 73.7436 39.6088 74.0678V77.7427C39.6088 78.067 39.335 78.3408 39.0108 78.3408H2.96245C2.63821 78.3408 2.36441 78.067 2.36441 77.7427V74.0678C2.36441 73.7436 2.63821 73.4698 2.96245 73.4698H17.0622C17.7153 73.4698 18.2444 72.9404 18.2444 72.2875C18.2444 71.6347 17.7153 71.1053 17.0622 71.1053H8.14887V66.8278C8.14887 66.5036 8.42267 66.2298 8.74691 66.2298H33.2262C33.5502 66.2298 33.8242 66.5037 33.8242 66.8278ZM18.185 63.8653V11.7853C19.2671 12.0982 20.4449 12.0989 21.5274 11.7868V63.8653H18.185Z" fill="#717484"/>
</svg>
