<svg viewBox="0 0 18 22" fill="none" xmlns="http://www.w3.org/2000/svg">
<path d="M16.5 0.5H1.5C1.08516 0.5 0.75 0.835156 0.75 1.25V13.6484C0.75 13.6344 0.759375 13.625 0.773438 13.625H5.91328L6.03516 14.2039C6.31875 15.6055 7.56563 16.625 9 16.625C10.4344 16.625 11.6813 15.6055 11.9625 14.2039L12.0844 13.625H17.2266C17.2406 13.625 17.25 13.6344 17.25 13.6484V1.25C17.25 0.835156 16.9148 0.5 16.5 0.5ZM13.6875 10.5547C13.6875 10.6578 13.6031 10.7422 13.5 10.7422H4.5C4.39687 10.7422 4.3125 10.6578 4.3125 10.5547V9.42969C4.3125 9.32656 4.39687 9.24219 4.5 9.24219H13.5C13.6031 9.24219 13.6875 9.32656 13.6875 9.42969V10.5547ZM13.6875 6.80469C13.6875 6.90781 13.6031 6.99219 13.5 6.99219H4.5C4.39687 6.99219 4.3125 6.90781 4.3125 6.80469V5.67969C4.3125 5.57656 4.39687 5.49219 4.5 5.49219H13.5C13.6031 5.49219 13.6875 5.57656 13.6875 5.67969V6.80469ZM17.2266 15.1016H13.268C12.9961 15.8703 12.518 16.5617 11.8828 17.0867C11.0742 17.757 10.05 18.125 9 18.125C7.95 18.125 6.92578 17.7547 6.11719 17.0867C5.48459 16.5623 5.00591 15.8763 4.73203 15.1016H0.773438C0.759375 15.1016 0.75 15.0922 0.75 15.0781V20.75C0.75 21.1648 1.08516 21.5 1.5 21.5H16.5C16.9148 21.5 17.25 21.1648 17.25 20.75V15.0781C17.25 15.0922 17.2406 15.1016 17.2266 15.1016Z" fill="currentColor"/>
</svg>
