<svg viewBox="0 0 16 14" fill="none" xmlns="http://www.w3.org/2000/svg">
  <path d="M15.7528 2.51954L11.8605 4.8042L8.12815 0.0614832C8.11314 0.0423946 8.09366 0.0269003 8.07127 0.0162283C8.04888 0.00555632 8.02418 0 7.99914 0C7.9741 0 7.94941 0.00555632 7.92702 0.0162283C7.90462 0.0269003 7.88515 0.0423946 7.87013 0.0614832L4.13983 4.8042L0.245517 2.51954C0.131508 2.45285 -0.0165039 2.54241 0.00149752 2.67007L1.52962 13.7332C1.55162 13.8838 1.68763 14 1.84965 14H14.1526C14.3127 14 14.4507 13.8857 14.4707 13.7332L15.9988 2.67007C16.0148 2.54241 15.8688 2.45285 15.7528 2.51954Z" fill="currentColor"/>
</svg>
