<svg viewBox="0 0 20 16" fill="none" xmlns="http://www.w3.org/2000/svg">
  <path d="M18.9375 0.4375H1.0625C0.682227 0.4375 0.375 0.744727 0.375 1.125V14.875C0.375 15.2553 0.682227 15.5625 1.0625 15.5625H18.9375C19.3178 15.5625 19.625 15.2553 19.625 14.875V1.125C19.625 0.744727 19.3178 0.4375 18.9375 0.4375ZM18.0781 2.81797V14.0156H1.92188V2.81797L1.32891 2.35605L2.17324 1.27109L3.09277 1.98652H16.9094L17.8289 1.27109L18.6732 2.35605L18.0781 2.81797ZM16.9094 1.98438L10 7.35547L3.09062 1.98438L2.17109 1.26895L1.32676 2.35391L1.91973 2.81582L9.25879 8.52207C9.46985 8.68604 9.72951 8.77505 9.99678 8.77505C10.264 8.77505 10.5237 8.68604 10.7348 8.52207L18.0781 2.81797L18.6711 2.35605L17.8268 1.27109L16.9094 1.98438Z" fill="currentColor"/>
</svg>
