<svg viewBox="0 0 20 20" fill="none" xmlns="http://www.w3.org/2000/svg">
<path d="M10 0.375C4.68477 0.375 0.375 4.68477 0.375 10C0.375 15.3152 4.68477 19.625 10 19.625C15.3152 19.625 19.625 15.3152 19.625 10C19.625 4.68477 15.3152 0.375 10 0.375ZM9.3125 5.35938C9.3125 5.26484 9.38984 5.1875 9.48438 5.1875H10.5156C10.6102 5.1875 10.6875 5.26484 10.6875 5.35938V11.2031C10.6875 11.2977 10.6102 11.375 10.5156 11.375H9.48438C9.38984 11.375 9.3125 11.2977 9.3125 11.2031V5.35938ZM10 14.8125C9.73014 14.807 9.47319 14.6959 9.28429 14.5031C9.09539 14.3103 8.98959 14.0512 8.98959 13.7812C8.98959 13.5113 9.09539 13.2522 9.28429 13.0594C9.47319 12.8666 9.73014 12.7555 10 12.75C10.2699 12.7555 10.5268 12.8666 10.7157 13.0594C10.9046 13.2522 11.0104 13.5113 11.0104 13.7812C11.0104 14.0512 10.9046 14.3103 10.7157 14.5031C10.5268 14.6959 10.2699 14.807 10 14.8125Z" fill="currentColor"/>
</svg>
