<svg width="50" height="50" viewBox="0 0 50 50" fill="none" xmlns="http://www.w3.org/2000/svg">
<path d="M48 0H2C0.89375 0 0 0.89375 0 2V48C0 49.1063 0.89375 50 2 50H48C49.1063 50 50 49.1063 50 48V2C50 0.89375 49.1063 0 48 0ZM42.225 14.5938H38.2313C35.1 14.5938 34.4938 16.0812 34.4938 18.2687V23.0875H41.9688L40.9938 30.6312H34.4938V50H26.7V30.6375H20.1812V23.0875H26.7V17.525C26.7 11.0687 30.6437 7.55 36.4062 7.55C39.1688 7.55 41.5375 7.75625 42.2313 7.85V14.5938H42.225Z" fill="#425A93"/>
</svg>
