<svg viewBox="0 0 16 16" fill="none" xmlns="http://www.w3.org/2000/svg">
<path d="M8.00089 6.8756e-07C3.58038 -0.00183544 0 3.67409 0 8.21115C0 11.7989 2.23975 14.8487 5.35895 15.9688C5.77902 16.0771 5.71467 15.7705 5.71467 15.5612V14.1382C3.28902 14.4301 3.1907 12.7813 3.02804 12.5059C2.69914 11.9293 1.92157 11.7824 2.15395 11.507C2.70629 11.2151 3.26936 11.5804 3.9218 12.5701C4.3937 13.288 5.31427 13.1669 5.78081 13.0475C5.88269 12.616 6.10077 12.2304 6.40107 11.9311C3.88783 11.4684 2.84035 9.89305 2.84035 8.0202C2.84035 7.11132 3.13172 6.27588 3.70372 5.60202C3.33907 4.49116 3.73768 3.54005 3.79131 3.39867C4.82985 3.30319 5.90951 4.1625 5.99352 4.23043C6.5834 4.06702 7.25729 3.98072 8.01162 3.98072C8.76952 3.98072 9.4452 4.07069 10.0404 4.23594C10.2424 4.07804 11.2434 3.33991 12.2087 3.42988C12.2605 3.57127 12.6502 4.50035 12.307 5.59651C12.8862 6.27221 13.1811 7.11499 13.1811 8.02571C13.1811 9.90223 12.1265 11.4795 9.60608 11.9348C9.82196 12.1529 9.99337 12.413 10.1103 12.6999C10.2272 12.9867 10.2873 13.2947 10.2871 13.6057V15.6713C10.3014 15.8366 10.2871 16 10.5552 16C13.7209 14.9038 16 11.832 16 8.21299C16 3.67409 12.4178 6.8756e-07 8.00089 6.8756e-07Z" fill="currentColor"/>
</svg>
