<svg width="100" height="100" viewBox="0 0 22 22" fill="none" xmlns="http://www.w3.org/2000/svg">
<path d="M11 0.5C5.20156 0.5 0.5 5.20156 0.5 11C0.5 16.7984 5.20156 21.5 11 21.5C16.7984 21.5 21.5 16.7984 21.5 11C21.5 5.20156 16.7984 0.5 11 0.5ZM15.5 11.5625C15.5 11.6656 15.4156 11.75 15.3125 11.75H11.75V15.3125C11.75 15.4156 11.6656 15.5 11.5625 15.5H10.4375C10.3344 15.5 10.25 15.4156 10.25 15.3125V11.75H6.6875C6.58437 11.75 6.5 11.6656 6.5 11.5625V10.4375C6.5 10.3344 6.58437 10.25 6.6875 10.25H10.25V6.6875C10.25 6.58437 10.3344 6.5 10.4375 6.5H11.5625C11.6656 6.5 11.75 6.58437 11.75 6.6875V10.25H15.3125C15.4156 10.25 15.5 10.3344 15.5 10.4375V11.5625Z" fill="#ED6A45"/>
</svg>
