<svg width="50" height="50" viewBox="0 0 50 50" fill="none" xmlns="http://www.w3.org/2000/svg">
<rect width="50" height="50" rx="2" fill="#DEDFE3"/>
<rect x="19" y="12" width="12" height="12" rx="1" fill="white"/>
<path d="M30.52 12H19.48C19.2145 12 19 12.2145 19 12.48V23.52C19 23.7855 19.2145 24 19.48 24H30.52C30.7855 24 31 23.7855 31 23.52V12.48C31 12.2145 30.7855 12 30.52 12ZM22.5595 22.2255H20.779V16.4985H22.5595V22.2255ZM21.67 15.7155C21.4659 15.7155 21.2664 15.655 21.0967 15.5416C20.9269 15.4282 20.7947 15.267 20.7166 15.0784C20.6384 14.8899 20.618 14.6824 20.6578 14.4822C20.6976 14.282 20.7959 14.0981 20.9403 13.9538C21.0846 13.8094 21.2685 13.7111 21.4687 13.6713C21.6689 13.6315 21.8764 13.6519 22.0649 13.7301C22.2535 13.8082 22.4147 13.9404 22.5281 14.1102C22.6415 14.2799 22.702 14.4794 22.702 14.6835C22.7005 15.2535 22.2385 15.7155 21.67 15.7155ZM29.2255 22.2255H27.4465V19.44C27.4465 18.7755 27.4345 17.922 26.521 17.922C25.5955 17.922 25.453 18.645 25.453 19.392V22.2255H23.6755V16.4985H25.3825V17.2815H25.4065C25.6435 16.8315 26.224 16.356 27.091 16.356C28.894 16.356 29.2255 17.5425 29.2255 19.0845V22.2255Z" fill="#3377B0"/>
<path d="M6.89074 37.12C7.73074 37.12 8.37074 36.78 8.90074 36.17L8.44074 35.67C8.02074 36.13 7.55074 36.38 6.92074 36.38C5.68074 36.38 4.90074 35.35 4.90074 33.7C4.90074 32.07 5.72074 31.06 6.95074 31.06C7.51074 31.06 7.94074 31.29 8.29074 31.65L8.75074 31.13C8.36074 30.7 7.74074 30.32 6.94074 30.32C5.27074 30.32 4.03074 31.61 4.03074 33.72C4.03074 35.86 5.25074 37.12 6.89074 37.12ZM12.0036 37.12C12.6736 37.12 13.1936 36.92 13.6136 36.62L13.3236 36.09C12.9836 36.32 12.5736 36.45 12.1036 36.45C11.1836 36.45 10.5736 35.79 10.5036 34.79H13.7736C13.8036 34.63 13.8136 34.48 13.8136 34.3C13.8136 32.9 13.1036 32.02 11.8636 32.02C10.7536 32.02 9.68363 32.99 9.68363 34.57C9.68363 36.18 10.7036 37.12 12.0036 37.12ZM10.5036 34.15C10.6036 33.22 11.2036 32.68 11.8836 32.68C12.6236 32.68 13.0736 33.19 13.0736 34.15H10.5036ZM15.0046 37H15.8346V33.88C16.1646 33.06 16.6546 32.77 17.0646 32.77C17.2546 32.77 17.3646 32.79 17.5046 32.83L17.6846 32.12C17.5346 32.05 17.3846 32.02 17.1646 32.02C16.6246 32.02 16.1246 32.41 15.7846 33.02H15.7546L15.6846 32.14H15.0046V37ZM20.0111 37.12C20.3411 37.12 20.6711 37.03 20.9311 36.91L20.7611 36.32C20.5611 36.41 20.3811 36.44 20.2011 36.44C19.6511 36.44 19.4511 36.1 19.4511 35.51V32.81H20.7711V32.14H19.4511V30.58H18.7611L18.6611 32.14L17.9011 32.19V32.81H18.6211V35.49C18.6211 36.46 18.9711 37.12 20.0111 37.12ZM21.8698 37H22.6998V32.14H21.8698V37ZM22.2898 31.14C22.6098 31.14 22.8398 30.93 22.8398 30.6C22.8398 30.28 22.6098 30.06 22.2898 30.06C21.9698 30.06 21.7398 30.28 21.7398 30.6C21.7398 30.93 21.9698 31.14 22.2898 31.14ZM24.4805 37H25.3105V32.81H26.3305V32.14H25.3105V31.38C25.3105 30.76 25.5305 30.43 25.9905 30.43C26.1605 30.43 26.3405 30.47 26.5305 30.53L26.7105 29.92C26.5105 29.83 26.2005 29.76 25.9005 29.76C24.9305 29.76 24.4805 30.39 24.4805 31.38V32.14L23.8205 32.19V32.81H24.4805V37ZM27.2604 37H28.0904V32.14H27.2604V37ZM27.6804 31.14C28.0004 31.14 28.2304 30.93 28.2304 30.6C28.2304 30.28 28.0004 30.06 27.6804 30.06C27.3604 30.06 27.1304 30.28 27.1304 30.6C27.1304 30.93 27.3604 31.14 27.6804 31.14ZM31.6511 37.12C32.2311 37.12 32.7811 36.9 33.2211 36.5L32.8611 35.97C32.5711 36.23 32.1711 36.43 31.7211 36.43C30.8311 36.43 30.2311 35.69 30.2311 34.58C30.2311 33.46 30.8711 32.71 31.7511 32.71C32.1411 32.71 32.4511 32.86 32.7211 33.11L33.1311 32.59C32.7911 32.27 32.3511 32.02 31.7111 32.02C30.4611 32.02 29.3711 32.95 29.3711 34.58C29.3711 36.19 30.3611 37.12 31.6511 37.12ZM35.314 37.12C35.924 37.12 36.454 36.81 36.914 36.42H36.944L37.024 37H37.704V34.01C37.704 32.81 37.194 32.02 36.014 32.02C35.234 32.02 34.554 32.35 34.104 32.65L34.424 33.21C34.804 32.96 35.314 32.71 35.874 32.71C36.664 32.71 36.864 33.3 36.874 33.91C34.794 34.14 33.894 34.66 33.894 35.74C33.894 36.62 34.504 37.12 35.314 37.12ZM35.544 36.44C35.074 36.44 34.704 36.23 34.704 35.69C34.704 35.06 35.234 34.69 36.874 34.5V35.82C36.404 36.23 36.014 36.44 35.544 36.44ZM40.6264 37.12C40.9564 37.12 41.2864 37.03 41.5464 36.91L41.3764 36.32C41.1764 36.41 40.9964 36.44 40.8164 36.44C40.2664 36.44 40.0664 36.1 40.0664 35.51V32.81H41.3864V32.14H40.0664V30.58H39.3764L39.2764 32.14L38.5164 32.19V32.81H39.2364V35.49C39.2364 36.46 39.5864 37.12 40.6264 37.12ZM44.3083 37.12C44.9783 37.12 45.4983 36.92 45.9183 36.62L45.6283 36.09C45.2883 36.32 44.8783 36.45 44.4083 36.45C43.4883 36.45 42.8783 35.79 42.8083 34.79H46.0783C46.1083 34.63 46.1183 34.48 46.1183 34.3C46.1183 32.9 45.4083 32.02 44.1683 32.02C43.0583 32.02 41.9883 32.99 41.9883 34.57C41.9883 36.18 43.0083 37.12 44.3083 37.12ZM42.8083 34.15C42.9083 33.22 43.5083 32.68 44.1883 32.68C44.9283 32.68 45.3783 33.19 45.3783 34.15H42.8083Z" fill="#3377B0"/>
</svg>
