<svg viewBox="0 0 18 18" fill="none" xmlns="http://www.w3.org/2000/svg">
  <path d="M10.3319 12.2953C10.2996 12.2633 10.256 12.2454 10.2105 12.2454C10.165 12.2454 10.1214 12.2633 10.0891 12.2953L7.59263 14.7918C6.43677 15.9477 4.48599 16.0701 3.20981 14.7918C1.93149 13.5135 2.05396 11.5648 3.20981 10.409L5.7063 7.9125C5.7729 7.8459 5.7729 7.73633 5.7063 7.66973L4.85122 6.81465C4.81892 6.78266 4.77529 6.76472 4.72983 6.76472C4.68437 6.76472 4.64075 6.78266 4.60845 6.81465L2.11196 9.31113C0.294385 11.1287 0.294385 14.0699 2.11196 15.8854C3.92954 17.7008 6.87075 17.7029 8.68618 15.8854L11.1827 13.3889C11.2493 13.3223 11.2493 13.2127 11.1827 13.1461L10.3319 12.2953ZM15.8877 2.11172C14.0702 0.294141 11.129 0.294141 9.31353 2.11172L6.81489 4.6082C6.78291 4.64051 6.76496 4.68413 6.76496 4.72959C6.76496 4.77505 6.78291 4.81867 6.81489 4.85098L7.66782 5.70391C7.73442 5.77051 7.84399 5.77051 7.9106 5.70391L10.4071 3.20742C11.5629 2.05156 13.5137 1.9291 14.7899 3.20742C16.0682 4.48574 15.9458 6.43438 14.7899 7.59023L12.2934 10.0867C12.2614 10.119 12.2435 10.1626 12.2435 10.2081C12.2435 10.2536 12.2614 10.2972 12.2934 10.3295L13.1485 11.1846C13.2151 11.2512 13.3247 11.2512 13.3913 11.1846L15.8877 8.68809C17.7032 6.87051 17.7032 3.9293 15.8877 2.11172ZM11.1075 5.99824C11.0752 5.96626 11.0315 5.94831 10.9861 5.94831C10.9406 5.94831 10.897 5.96626 10.8647 5.99824L5.99849 10.8623C5.9665 10.8946 5.94856 10.9382 5.94856 10.9837C5.94856 11.0292 5.9665 11.0728 5.99849 11.1051L6.84927 11.9559C6.91587 12.0225 7.02544 12.0225 7.09204 11.9559L11.9561 7.0918C12.0227 7.0252 12.0227 6.91563 11.9561 6.84902L11.1075 5.99824Z" fill="currentColor"/>
</svg>
