<svg width="50" height="50" viewBox="0 0 50 50" fill="none" xmlns="http://www.w3.org/2000/svg">
<path d="M48 0H2C0.89375 0 0 0.89375 0 2V48C0 49.1063 0.89375 50 2 50H48C49.1063 50 50 49.1063 50 48V2C50 0.89375 49.1063 0 48 0ZM14.8312 42.6063H7.4125V18.7437H14.8312V42.6063ZM11.125 15.4813C10.2745 15.4813 9.44318 15.2291 8.73605 14.7566C8.02892 14.2841 7.47777 13.6125 7.15232 12.8268C6.82686 12.0411 6.74171 11.1765 6.90762 10.3424C7.07354 9.50824 7.48308 8.74206 8.08444 8.14069C8.68581 7.53932 9.45199 7.12979 10.2861 6.96387C11.1202 6.79796 11.9848 6.88311 12.7705 7.20857C13.5563 7.53402 14.2278 8.08517 14.7003 8.7923C15.1728 9.49943 15.425 10.3308 15.425 11.1812C15.4187 13.5562 13.4937 15.4813 11.125 15.4813ZM42.6063 42.6063H35.1937V31C35.1937 28.2313 35.1438 24.675 31.3375 24.675C27.4813 24.675 26.8875 27.6875 26.8875 30.8V42.6063H19.4813V18.7437H26.5938V22.0063H26.6937C27.6812 20.1313 30.1 18.15 33.7125 18.15C41.225 18.15 42.6063 23.0938 42.6063 29.5187V42.6063Z" fill="#3377B0"/>
</svg>
