    <svg enableBackground="new 0 0 512 512" fill="#ED6A45" height="26" viewBox="0 0 512 512" width="22" xmlns="http://www.w3.org/2000/svg">
      <path d="m423.804 414.796h-335.608c-48.632 0-88.196-39.565-88.196-88.195 0-36.288 22.029-68.329 54.856-81.679 1.686-48.629 41.771-87.67 90.803-87.67 3.958 0 7.91.26 11.832.776 18.487-36.848 56.586-60.824 98.509-60.824s80.022 23.976 98.509 60.824c3.922-.517 7.874-.776 11.832-.776 49.032 0 89.118 39.041 90.803 87.67 32.827 13.349 54.856 45.391 54.856 81.679 0 48.63-39.564 88.195-88.196 88.195zm-278.145-227.544c-33.558 0-60.858 27.301-60.858 60.858 0 1.992.102 4.031.302 6.062l1.268 12.847-12.513 3.168c-25.823 6.539-43.858 29.737-43.858 56.414 0 32.089 26.106 58.195 58.196 58.195h335.608c32.089 0 58.196-26.106 58.196-58.195 0-26.677-18.035-49.875-43.857-56.414l-12.511-3.168 1.265-12.844c.201-2.036.302-4.076.302-6.064 0-33.558-27.301-60.858-60.858-60.858-5.622 0-11.232.785-16.675 2.333l-13.477 3.833-4.742-13.185c-11.406-31.719-41.726-53.029-75.447-53.029s-64.041 21.311-75.447 53.029l-4.741 13.185-13.478-3.833c-5.443-1.549-11.053-2.334-16.675-2.334z" />
      <path d="m241 228.036h30v125.983h-30z" />
      <path d="m188.045 354.367-53.151-63.339 53.151-63.339 22.98 19.286-36.968 44.053 36.968 44.054z" />
      <path d="m323.955 354.367-22.98-19.285 36.968-44.054-36.968-44.053 22.98-19.286 53.151 63.339z" />
    </svg>