<svg width="100" height="100" viewBox="0 0 67 67" fill="none" xmlns="http://www.w3.org/2000/svg">
<path d="M63.2358 0H3.76506C1.68947 0 0.000976562 1.68863 0.000976562 3.76421V20.7642C0.000976562 22.8419 1.68947 24.5321 3.76506 24.5321H6.60461L6.6406 30.0165C6.64387 30.5079 6.92195 30.9559 7.36086 31.1768C7.54681 31.2704 7.74833 31.3165 7.94907 31.3165C8.22192 31.3165 8.49346 31.2311 8.72194 31.064L17.6501 24.532H28.1511L32.4201 30.7485C32.6641 31.1039 33.0677 31.3163 33.4989 31.3163C33.9301 31.3163 34.3335 31.1039 34.5777 30.7485L38.8466 24.532H49.3512L58.2756 31.0638C58.6719 31.354 59.1976 31.3975 59.6364 31.177C60.0753 30.9562 60.3535 30.5084 60.357 30.0171L60.396 24.532H63.2362C65.3118 24.532 67.0003 22.8416 67.0003 20.7641V3.76421C66.9999 1.68863 65.3114 0 63.2358 0V0ZM64.3827 20.7642C64.3827 21.3988 63.8682 21.9149 63.2358 21.9149H59.0963C58.3772 21.9149 57.7928 22.4951 57.7877 23.2142L57.7576 27.4418L50.5515 22.1676C50.3272 22.0035 50.0566 21.9149 49.7786 21.9149H38.1575C37.7263 21.9149 37.3229 22.1273 37.0787 22.4827L33.4986 27.6962L29.9185 22.4827C29.6745 22.1273 29.2709 21.9149 28.8397 21.9149H17.2223C16.9445 21.9149 16.6738 22.0033 16.4495 22.1673L9.24093 27.4415L9.21319 23.2151C9.20848 22.4956 8.62392 21.915 7.90458 21.915H3.76506C3.13261 21.915 2.61819 21.3988 2.61819 20.7644V3.76421C2.61819 3.13176 3.13274 2.61722 3.76506 2.61722H63.2358C63.8683 2.61722 64.3827 3.13176 64.3827 3.76421V20.7642Z" fill="#717484"/>
<path d="M62.4566 54.4087C63.1077 53.3296 63.4829 52.0663 63.4829 50.7167C63.4829 46.7614 60.2667 43.5436 56.3136 43.5436C52.3584 43.5436 49.1406 46.7614 49.1406 50.7167C49.1406 52.0664 49.5162 53.3299 50.1676 54.4091C49.2167 54.8465 48.3714 55.4717 47.6752 56.2322C46.6642 53.2995 44.3821 50.9033 41.4597 49.7775C42.56 48.2034 43.2079 46.291 43.2079 44.229C43.2079 38.8747 38.8519 34.5186 33.4978 34.5186C28.1436 34.5186 23.7876 38.8747 23.7876 44.229C23.7876 46.2913 24.4358 48.2041 25.5363 49.7783C22.6137 50.9044 20.3316 53.3002 19.3204 56.2325C18.6244 55.4718 17.7793 54.8468 16.8283 54.4093C17.4795 53.3301 17.8549 52.0665 17.8549 50.7168C17.8549 46.7616 14.6388 43.5437 10.6856 43.5437C6.73044 43.5437 3.5127 46.7616 3.5127 50.7168C3.5127 52.0665 3.88827 53.33 4.5397 54.4092C1.8492 55.6469 0 58.3841 0 61.4519V65.6914C0 66.4141 0.585864 67 1.30861 67H27.6221C28.3449 67 28.9307 66.4141 28.9307 65.6914C28.9307 64.9686 28.3449 64.3828 27.6221 64.3828H21.3676V61.4516V59.6155C21.3676 55.9243 23.9879 52.7011 27.5475 51.8945C29.1925 53.1743 31.2568 53.9394 33.4976 53.9394C35.7388 53.9394 37.8034 53.1741 39.4484 51.8939C43.0076 52.6998 45.6277 55.9237 45.6277 59.6155V61.4516V64.3828H39.3732C38.6504 64.3828 38.0646 64.9686 38.0646 65.6914C38.0646 66.4141 38.6504 67 39.3732 67H65.6903C66.4131 67 66.999 66.4141 66.999 65.6914V61.4516C66.9992 58.3835 65.1488 55.6461 62.4566 54.4087ZM10.6858 46.1607C13.1959 46.1607 15.238 48.2044 15.238 50.7166C15.238 53.2268 13.1959 55.2688 10.6858 55.2688C8.17383 55.2688 6.13018 53.2268 6.13018 50.7166C6.13018 48.2046 8.17383 46.1607 10.6858 46.1607ZM2.61748 64.3828V61.4516C2.61748 59.1211 4.22969 57.0792 6.44582 56.4947C7.63443 57.3685 9.10059 57.8861 10.6858 57.8861C12.2702 57.8861 13.7353 57.3685 14.9232 56.495C17.1389 57.0798 18.7505 59.1215 18.7505 61.4516V64.3828H2.61748ZM26.405 44.229C26.405 40.3178 29.5869 37.1358 33.4979 37.1358C37.4089 37.1358 40.5908 40.3177 40.5908 44.229C40.5908 48.1402 37.4089 51.3221 33.4979 51.3221C29.5869 51.3221 26.405 48.1401 26.405 44.229ZM56.3136 46.1607C58.8237 46.1607 60.8656 48.2044 60.8656 50.7166C60.8656 53.2268 58.8237 55.2688 56.3136 55.2688C53.8016 55.2688 51.7578 53.2268 51.7578 50.7166C51.7578 48.2046 53.8016 46.1607 56.3136 46.1607ZM48.2451 61.4516C48.2451 59.1211 49.8574 57.0792 52.0735 56.4947C53.2621 57.3685 54.7283 57.8861 56.3135 57.8861C57.8978 57.8861 59.3631 57.3685 60.551 56.4949C62.7686 57.0793 64.3819 59.1211 64.3819 61.4515V64.3828H48.2451V61.4516Z" fill="#717484"/>
<path d="M58.8656 7.30298H24.7886C24.0658 7.30298 23.48 7.88884 23.48 8.61159C23.48 9.33433 24.0658 9.9202 24.7886 9.9202H58.8657C59.5884 9.9202 60.1743 9.33433 60.1743 8.61159C60.1743 7.88884 59.5883 7.30298 58.8656 7.30298Z" fill="#717484"/>
<path d="M8.1299 9.9202H17.8594C18.5822 9.9202 19.168 9.33433 19.168 8.61159C19.168 7.88884 18.5822 7.30298 17.8594 7.30298H8.1299C7.40715 7.30298 6.82129 7.88884 6.82129 8.61159C6.82129 9.33433 7.40715 9.9202 8.1299 9.9202Z" fill="#717484"/>
<path d="M58.8654 14.6067H49.1397C48.4169 14.6067 47.8311 15.1926 47.8311 15.9153C47.8311 16.638 48.4169 17.2239 49.1397 17.2239H58.8654C59.5881 17.2239 60.174 16.638 60.174 15.9153C60.174 15.1926 59.5881 14.6067 58.8654 14.6067Z" fill="#717484"/>
<path d="M42.207 14.6067H8.1299C7.40715 14.6067 6.82129 15.1926 6.82129 15.9153C6.82129 16.638 7.40715 17.2239 8.1299 17.2239H42.207C42.9297 17.2239 43.5156 16.638 43.5156 15.9153C43.5156 15.1926 42.9297 14.6067 42.207 14.6067Z" fill="#717484"/>
<path d="M33.4981 64.3828C32.7753 64.3828 32.1895 64.9686 32.1895 65.6914C32.1895 66.4141 32.7753 67 33.4981 67H33.5055C34.2283 67 34.8105 66.4141 34.8105 65.6914C34.8105 64.9686 34.2208 64.3828 33.4981 64.3828Z" fill="#717484"/>
</svg>
