<svg viewBox="0 0 26 30" fill="none" xmlns="http://www.w3.org/2000/svg">
  <path d="M24.25 13.3125H21.8594V5.4375C21.8594 2.95195 19.8449 0.9375 17.3594 0.9375H8.64062C6.15508 0.9375 4.14062 2.95195 4.14062 5.4375V13.3125H1.75C1.12773 13.3125 0.625 13.8152 0.625 14.4375V27.9375C0.625 28.5598 1.12773 29.0625 1.75 29.0625H24.25C24.8723 29.0625 25.375 28.5598 25.375 27.9375V14.4375C25.375 13.8152 24.8723 13.3125 24.25 13.3125ZM13.9844 21.6445V23.5078C13.9844 23.6625 13.8578 23.7891 13.7031 23.7891H12.2969C12.1422 23.7891 12.0156 23.6625 12.0156 23.5078V21.6445C11.7254 21.4362 11.5088 21.1411 11.397 20.8018C11.2851 20.4625 11.2839 20.0965 11.3933 19.7564C11.5027 19.4163 11.7173 19.1198 12.006 18.9094C12.2947 18.699 12.6427 18.5856 13 18.5856C13.3573 18.5856 13.7053 18.699 13.994 18.9094C14.2827 19.1198 14.4973 19.4163 14.6067 19.7564C14.7161 20.0965 14.7149 20.4625 14.603 20.8018C14.4912 21.1411 14.2746 21.4362 13.9844 21.6445ZM19.3281 13.3125H6.67188V5.4375C6.67188 4.35117 7.5543 3.46875 8.64062 3.46875H17.3594C18.4457 3.46875 19.3281 4.35117 19.3281 5.4375V13.3125Z" fill="currentColor"/>
</svg>
