<svg viewBox="0 0 14 14" fill="none" xmlns="http://www.w3.org/2000/svg">
<mask id="path-1-inside-1" fill="currentColor">
<path d="M6.9895 6.78953e-06C3.12375 0.00541915 0 3.22938 0 7.21469C0 9.52396 1.0535 11.5807 2.6915 12.9013L2.03525 13.7673C1.9635 13.8629 2.03 14.0018 2.1455 14L5.068 13.9855C5.159 13.9855 5.2255 13.8971 5.20275 13.8069L4.5115 10.8789C4.50526 10.8525 4.49192 10.8284 4.47301 10.8095C4.4541 10.7906 4.4304 10.7775 4.40462 10.7719C4.37884 10.7662 4.35204 10.7682 4.3273 10.7775C4.30256 10.7869 4.28087 10.8032 4.26475 10.8247L3.5525 11.7647C3.374 11.6203 3.2025 11.4634 3.03975 11.2956C2.52808 10.7699 2.12036 10.1468 1.83925 9.46082C1.547 8.74999 1.4 7.99407 1.4 7.21469C1.4 6.43531 1.547 5.67938 1.83925 4.96855C2.121 4.28119 2.52525 3.66418 3.03975 3.13376C3.55425 2.60335 4.15275 2.1866 4.8195 1.89614C5.51075 1.59485 6.244 1.4433 7 1.4433C7.756 1.4433 8.48925 1.59485 9.17875 1.89614C9.8455 2.1866 10.444 2.60335 10.9585 3.13376C11.473 3.66418 11.8772 4.28119 12.159 4.96855C12.4512 5.67938 12.5983 6.43531 12.5983 7.21469C12.5983 7.99407 12.4512 8.74999 12.159 9.46082C11.8779 10.1468 11.4702 10.7699 10.9585 11.2956C10.8272 11.4309 10.6908 11.5572 10.549 11.6781C10.5206 11.7019 10.5025 11.7362 10.4985 11.7738C10.4946 11.8113 10.5052 11.8488 10.528 11.8783L11.2175 12.7894C11.2665 12.8526 11.3558 12.8634 11.417 12.8129C12.9938 11.4886 14 9.47344 14 7.21469C14 3.22577 10.8605 -0.00540557 6.9895 6.78953e-06Z"/>
</mask>
<path d="M6.9895 6.78953e-06C3.12375 0.00541915 0 3.22938 0 7.21469C0 9.52396 1.0535 11.5807 2.6915 12.9013L2.03525 13.7673C1.9635 13.8629 2.03 14.0018 2.1455 14L5.068 13.9855C5.159 13.9855 5.2255 13.8971 5.20275 13.8069L4.5115 10.8789C4.50526 10.8525 4.49192 10.8284 4.47301 10.8095C4.4541 10.7906 4.4304 10.7775 4.40462 10.7719C4.37884 10.7662 4.35204 10.7682 4.3273 10.7775C4.30256 10.7869 4.28087 10.8032 4.26475 10.8247L3.5525 11.7647C3.374 11.6203 3.2025 11.4634 3.03975 11.2956C2.52808 10.7699 2.12036 10.1468 1.83925 9.46082C1.547 8.74999 1.4 7.99407 1.4 7.21469C1.4 6.43531 1.547 5.67938 1.83925 4.96855C2.121 4.28119 2.52525 3.66418 3.03975 3.13376C3.55425 2.60335 4.15275 2.1866 4.8195 1.89614C5.51075 1.59485 6.244 1.4433 7 1.4433C7.756 1.4433 8.48925 1.59485 9.17875 1.89614C9.8455 2.1866 10.444 2.60335 10.9585 3.13376C11.473 3.66418 11.8772 4.28119 12.159 4.96855C12.4512 5.67938 12.5983 6.43531 12.5983 7.21469C12.5983 7.99407 12.4512 8.74999 12.159 9.46082C11.8779 10.1468 11.4702 10.7699 10.9585 11.2956C10.8272 11.4309 10.6908 11.5572 10.549 11.6781C10.5206 11.7019 10.5025 11.7362 10.4985 11.7738C10.4946 11.8113 10.5052 11.8488 10.528 11.8783L11.2175 12.7894C11.2665 12.8526 11.3558 12.8634 11.417 12.8129C12.9938 11.4886 14 9.47344 14 7.21469C14 3.22577 10.8605 -0.00540557 6.9895 6.78953e-06Z" fill="currentColor"/>
<path d="M6.9895 6.78953e-06L6.98391 -3.99999H6.9839L6.9895 6.78953e-06ZM2.6915 12.9013L5.8795 15.3172L8.22389 12.2236L5.2021 9.78729L2.6915 12.9013ZM2.03525 13.7673L-1.15275 11.3513L-1.15848 11.3589L-1.16417 11.3665L2.03525 13.7673ZM2.1455 14L2.12575 10L2.10439 10.0001L2.08303 10.0005L2.1455 14ZM5.068 13.9855V9.98555H5.05812L5.04825 9.9856L5.068 13.9855ZM5.20275 13.8069L1.30976 14.726L1.31675 14.7556L1.3242 14.7851L5.20275 13.8069ZM4.5115 10.8789L8.40449 9.95981L8.40412 9.95827L4.5115 10.8789ZM4.26475 10.8247L7.45284 13.2405L7.45853 13.233L7.46418 13.2255L4.26475 10.8247ZM3.5525 11.7647L1.0375 14.8751L4.24748 17.4706L6.74059 14.1805L3.5525 11.7647ZM3.03975 11.2956L5.91092 8.51057L5.90608 8.5056L3.03975 11.2956ZM1.83925 9.46082L5.54053 7.94405L5.53877 7.93978L1.83925 9.46082ZM1.83925 4.96855L5.53877 6.48959L5.54039 6.48564L1.83925 4.96855ZM4.8195 1.89614L6.41705 5.56327L6.41773 5.56297L4.8195 1.89614ZM9.17875 1.89614L7.57712 5.56149L7.5812 5.56327L9.17875 1.89614ZM12.159 4.96855L8.45785 6.48564L8.45948 6.48959L12.159 4.96855ZM12.159 9.46082L8.45948 7.93978L8.45772 7.94405L12.159 9.46082ZM10.9585 11.2956L8.09217 8.50559L8.08734 8.51057L10.9585 11.2956ZM10.549 11.6781L13.117 14.7449L13.1308 14.7334L13.1444 14.7217L10.549 11.6781ZM10.528 11.8783L13.7176 9.46449L13.7047 9.44755L13.6917 9.43073L10.528 11.8783ZM11.2175 12.7894L8.02793 15.2033L8.04254 15.2226L8.05737 15.2417L11.2175 12.7894ZM11.417 12.8129L13.9621 15.8988L13.9758 15.8874L13.9895 15.8759L11.417 12.8129ZM6.9839 -3.99999C0.79802 -3.99133 -4 1.13734 -4 7.21469H4C4 5.32143 5.44948 4.00217 6.9951 4L6.9839 -3.99999ZM-4 7.21469C-4 10.7594 -2.37885 13.9515 0.180895 16.0153L5.2021 9.78729C4.48585 9.20982 4 8.28856 4 7.21469H-4ZM-0.496504 10.4854L-1.15275 11.3513L5.22325 16.1832L5.8795 15.3172L-0.496504 10.4854ZM-1.16417 11.3665C-3.03117 13.8545 -1.56246 18.0584 2.20797 17.9995L2.08303 10.0005C5.62246 9.94518 6.95817 13.8712 5.23467 16.168L-1.16417 11.3665ZM2.16525 17.9999L5.08775 17.9855L5.04825 9.9856L2.12575 10L2.16525 17.9999ZM5.068 17.9855C7.90268 17.9855 9.7071 15.3101 9.0813 12.8288L1.3242 14.7851C0.743904 12.4842 2.41532 9.98555 5.068 9.98555V17.9855ZM9.09574 12.8879L8.40449 9.95981L0.61851 11.7979L1.30976 14.726L9.09574 12.8879ZM8.40412 9.95827C8.2297 9.22073 7.85351 8.53366 7.30278 7.98241L1.64324 13.6366C1.13032 13.1232 0.780814 12.4842 0.618875 11.7994L8.40412 9.95827ZM7.30278 7.98241C6.75091 7.43001 6.04546 7.03669 5.26163 6.86476L3.54761 14.679C2.81533 14.5184 2.15729 14.1511 1.64324 13.6366L7.30278 7.98241ZM5.26163 6.86476C4.477 6.69265 3.66128 6.75312 2.91325 7.03581L5.74135 14.5192C5.04281 14.7832 4.28069 14.8398 3.54761 14.679L5.26163 6.86476ZM2.91325 7.03581C2.1664 7.31806 1.52962 7.80521 1.06532 8.42397L7.46418 13.2255C7.03213 13.8013 6.43871 14.2557 5.74135 14.5192L2.91325 7.03581ZM1.07666 8.40893L0.364408 9.34888L6.74059 14.1805L7.45284 13.2405L1.07666 8.40893ZM6.0675 8.65425C6.01709 8.61349 5.96425 8.56556 5.91091 8.51057L0.168586 14.0806C0.440746 14.3612 0.730908 14.6272 1.0375 14.8751L6.0675 8.65425ZM5.90608 8.5056C5.75555 8.35095 5.62952 8.16123 5.54052 7.94405L-1.86202 10.9776C-1.3888 12.1324 -0.699379 13.1889 0.173422 14.0856L5.90608 8.5056ZM5.53877 7.93978C5.44941 7.72243 5.4 7.48424 5.4 7.21469H-2.6C-2.6 8.50389 -2.35541 9.77755 -1.86027 10.9818L5.53877 7.93978ZM5.4 7.21469C5.4 6.94513 5.44941 6.70694 5.53877 6.48959L-1.86027 3.44752C-2.35541 4.65182 -2.6 5.92548 -2.6 7.21469H5.4ZM5.54039 6.48564C5.6289 6.26972 5.75151 6.08314 5.91091 5.9188L0.168586 0.348731C-0.701007 1.24522 -1.3869 2.29265 -1.86189 3.45147L5.54039 6.48564ZM5.91091 5.9188C6.07022 5.75457 6.23843 5.64108 6.41705 5.56327L3.22195 -1.77099C2.06707 -1.26788 1.03828 -0.547863 0.168586 0.348731L5.91091 5.9188ZM6.41773 5.56297C6.59986 5.48359 6.78856 5.4433 7 5.4433V-2.5567C5.69944 -2.5567 4.42164 -2.29389 3.22127 -1.7707L6.41773 5.56297ZM7 5.4433C7.21208 5.4433 7.39939 5.48383 7.57712 5.56149L10.7804 -1.76921C9.57911 -2.29413 8.29992 -2.5567 7 -2.5567V5.4433ZM7.5812 5.56327C7.75982 5.64108 7.92803 5.75457 8.08734 5.9188L13.8297 0.348731C12.96 -0.547864 11.9312 -1.26788 10.7763 -1.77099L7.5812 5.56327ZM8.08734 5.9188C8.24674 6.08313 8.36935 6.26972 8.45786 6.48564L15.8601 3.45147C15.3851 2.29265 14.6993 1.24522 13.8297 0.348731L8.08734 5.9188ZM8.45948 6.48959C8.54884 6.70694 8.59825 6.94514 8.59825 7.21469H16.5983C16.5983 5.92547 16.3537 4.65181 15.8585 3.44752L8.45948 6.48959ZM8.59825 7.21469C8.59825 7.48423 8.54884 7.72243 8.45948 7.93978L15.8585 10.9818C16.3537 9.77756 16.5983 8.5039 16.5983 7.21469H8.59825ZM8.45772 7.94405C8.36872 8.16124 8.2427 8.35095 8.09217 8.5056L13.8248 14.0856C14.6976 13.1889 15.387 12.1324 15.8603 10.9776L8.45772 7.94405ZM8.08734 8.51057C8.05552 8.54337 8.01302 8.58375 7.95357 8.63444L13.1444 14.7217C13.3685 14.5307 13.599 14.3185 13.8297 14.0806L8.08734 8.51057ZM7.98098 8.61128C7.14059 9.31498 6.6304 10.307 6.52034 11.3566L14.4767 12.1909C14.3745 13.1655 13.9006 14.0887 13.117 14.7449L7.98098 8.61128ZM6.52034 11.3566C6.41037 12.4052 6.70336 13.4717 7.36426 14.3259L13.6917 9.43073C14.307 10.226 14.5788 11.2173 14.4767 12.1909L6.52034 11.3566ZM7.33843 14.2922L8.02793 15.2033L14.4071 10.3756L13.7176 9.46449L7.33843 14.2922ZM8.05737 15.2417C9.45368 17.041 12.1162 17.4211 13.9621 15.8988L8.87194 9.72699C10.5953 8.30563 13.0793 8.66408 14.3776 10.3372L8.05737 15.2417ZM13.9895 15.8759C16.4512 13.8085 18 10.6811 18 7.21469H10C10 8.26577 9.53635 9.16879 8.84451 9.74982L13.9895 15.8759ZM18 7.21469C18 1.12899 13.1791 -4.00865 6.98391 -3.99999L6.99509 4C8.54194 3.99784 10 5.32256 10 7.21469H18Z" fill="currentColor" mask="url(#path-1-inside-1)"/>
</svg>
