<svg width="100" height="100" viewBox="0 0 66 80" fill="none" xmlns="http://www.w3.org/2000/svg">
<path d="M52.6367 34.8247C53.2705 34.9539 53.8882 34.5452 54.0179 33.9102C54.3071 32.4927 54.4536 31.0342 54.4536 29.5746C54.4536 17.7095 44.8297 8.05634 33.0001 8.05634C21.1706 8.05634 11.5466 17.7095 11.5466 29.5746C11.5466 41.4397 21.1706 51.0928 33.0001 51.0928C41.0632 51.0928 48.3719 46.6255 52.0739 39.4343C52.3704 38.8583 52.1454 38.1502 51.5711 37.8528C50.9969 37.5553 50.2909 37.7814 49.9944 38.3571C46.6957 44.7648 40.184 48.7453 33.0003 48.7453C22.4612 48.7453 13.8872 40.1453 13.8872 29.5744C13.8872 19.0036 22.4612 10.4036 33.0003 10.4036C43.5393 10.4036 52.1134 19.0036 52.1134 29.5744C52.1134 30.8762 51.9828 32.1765 51.7251 33.4393C51.5954 34.0745 52.0037 34.6947 52.6367 34.8247Z" fill="#717484"/>
<path d="M46.0199 25.2093C45.882 24.7835 45.5147 24.4737 45.073 24.4102L37.4465 23.3144L34.0507 16.3777C33.6628 15.5156 32.3376 15.5158 31.9498 16.3777L28.5541 23.3143L20.9276 24.41C19.9892 24.5138 19.5815 25.7787 20.2784 26.4139L25.8062 31.7967L24.4884 39.4105C24.2968 40.3348 25.3674 41.1183 26.188 40.6491L33.0002 37.0392L39.8124 40.6491C40.6317 41.1183 41.7041 40.3348 41.512 39.4105L40.1942 31.7967L45.7221 26.4139C46.0424 26.1023 46.1578 25.635 46.0199 25.2093ZM38.1205 30.5446C37.8429 30.8149 37.7165 31.2051 37.7825 31.5875L38.7984 37.457L33.5468 34.674C33.2048 34.4929 32.7955 34.4929 32.4535 34.674L27.2018 37.457L28.2177 31.5875C28.2839 31.2051 28.1573 30.8149 27.8798 30.5446L23.6182 26.3948L29.4977 25.5499C29.8806 25.4949 30.2117 25.2538 30.3823 24.9054L33.0001 19.5579L35.6178 24.9054C35.7884 25.2536 36.1195 25.4949 36.5024 25.5499L42.3819 26.3948L38.1205 30.5446Z" fill="#717484"/>
<path d="M65.8389 69.7673L54.4014 49.8971C59.4095 44.5941 62.4859 37.4382 62.4859 29.5745C62.4857 13.267 49.2587 0 33.0002 0C27.9979 0 23.0559 1.27956 18.7083 3.70046C18.1431 4.01516 17.9394 4.7296 18.2531 5.29644C18.5668 5.86297 19.2792 6.06736 19.8441 5.75297C23.8451 3.52508 28.3943 2.34756 33.0002 2.34756C47.9682 2.34756 60.1454 14.5617 60.1454 29.5746C60.1454 44.5877 47.9682 56.8018 33.0002 56.8018C18.0322 56.8018 5.85505 44.5877 5.85505 29.5745C5.85505 21.5204 9.38232 13.9237 15.5327 8.73243C16.0271 8.31506 16.0906 7.57457 15.6745 7.07872C15.2584 6.58271 14.5202 6.51874 14.0258 6.93642C7.34587 12.5747 3.51467 20.826 3.51467 29.5745C3.51467 37.4516 6.60132 44.6188 11.6246 49.9246L8.38531 55.5519C7.60909 56.8547 9.66301 58.0593 10.4121 56.7257L13.3568 51.6101C16.8797 54.7729 21.1622 57.0999 25.8926 58.2786L15.7948 75.8212L13.2118 67.6671C13.0288 67.0891 12.4365 66.7464 11.8458 66.8761L3.51389 68.7094L7.68133 61.4693C8.00446 60.908 7.8127 60.1901 7.25304 59.866C6.69322 59.542 5.97769 59.7342 5.65456 60.2956L0.161212 69.839C-0.359913 70.6773 0.467646 71.8165 1.42533 71.5725L11.3044 69.3986L14.367 79.0668C14.6348 80.018 16.0281 80.1729 16.4957 79.2982L28.3098 58.7735C29.8376 59.0196 31.4038 59.1493 32.9997 59.1493C34.6088 59.1493 36.1875 59.0173 37.7273 58.7673L44.8229 71.0944C45.0396 71.471 45.4329 71.6814 45.8374 71.6814C46.0358 71.6814 46.2371 71.6307 46.4214 71.5239C46.981 71.1997 47.1728 70.482 46.8496 69.9206L40.1434 58.2697C44.8717 57.085 49.1513 54.7529 52.6703 51.5858L62.4857 68.6378L54.1538 66.8045C53.5631 66.6745 52.971 67.0175 52.7878 67.5955L50.2048 75.7496L49.5801 74.6643C49.257 74.1029 48.5413 73.9107 47.9816 74.2347C47.4219 74.559 47.2302 75.2767 47.5533 75.838L49.5038 79.2268C49.9716 80.1016 51.3647 79.9464 51.6325 78.9954L54.6951 69.3271L64.5741 71.501C65.5328 71.7441 66.3597 70.6057 65.8389 69.7673Z" fill="#717484"/>
</svg>
