<svg width="12" height="16" viewBox="0 0 12 16" fill="none" xmlns="http://www.w3.org/2000/svg">
<path d="M10.043 4.58984V2.23438H11.5547C11.632 2.23438 11.6953 2.17109 11.6953 2.09375V1.10938C11.6953 1.03203 11.632 0.96875 11.5547 0.96875H0.445312C0.367969 0.96875 0.304688 1.03203 0.304688 1.10938V2.09375C0.304688 2.17109 0.367969 2.23438 0.445312 2.23438H1.95703V4.58984C1.95703 6.02246 2.70234 7.28281 3.82734 8C2.70234 8.71719 1.95703 9.97754 1.95703 11.4102V13.7656H0.445312C0.367969 13.7656 0.304688 13.8289 0.304688 13.9062V14.8906C0.304688 14.968 0.367969 15.0312 0.445312 15.0312H11.5547C11.632 15.0312 11.6953 14.968 11.6953 14.8906V13.9062C11.6953 13.8289 11.632 13.7656 11.5547 13.7656H10.043V11.4102C10.043 9.97754 9.29766 8.71719 8.17266 8C9.29766 7.28281 10.043 6.02246 10.043 4.58984Z" fill="#EB6A45"/>
</svg>
