<svg viewBox="0 0 20 20" fill="none" xmlns="http://www.w3.org/2000/svg">
<path d="M10 0.375C4.68477 0.375 0.375 4.68477 0.375 10C0.375 15.3152 4.68477 19.625 10 19.625C15.3152 19.625 19.625 15.3152 19.625 10C19.625 4.68477 15.3152 0.375 10 0.375ZM13.5535 13.6566L12.1355 13.6502L10 11.1043L7.8666 13.648L6.44648 13.6545C6.35195 13.6545 6.27461 13.5793 6.27461 13.4826C6.27461 13.4418 6.28965 13.4031 6.31543 13.3709L9.11055 10.0408L6.31543 6.71289C6.28947 6.6814 6.27506 6.64198 6.27461 6.60117C6.27461 6.50664 6.35195 6.4293 6.44648 6.4293L7.8666 6.43574L10 8.98164L12.1334 6.43789L13.5514 6.43145C13.6459 6.43145 13.7232 6.50664 13.7232 6.60332C13.7232 6.64414 13.7082 6.68281 13.6824 6.71504L10.8916 10.043L13.6846 13.373C13.7104 13.4053 13.7254 13.4439 13.7254 13.4848C13.7254 13.5793 13.648 13.6566 13.5535 13.6566Z" fill="currentColor"/>
</svg>
