<svg viewBox="0 0 11 11" fill="none" xmlns="http://www.w3.org/2000/svg">
  <path d="M10.5417 1.98H8.70833V0.88C8.70833 0.394625 8.29727 0 7.79167 0H3.20833C2.70273 0 2.29167 0.394625 2.29167 0.88V1.98H0.458333C0.204818 1.98 0 2.17663 0 2.42V2.86C0 2.9205 0.0515625 2.97 0.114583 2.97H0.979687L1.33346 10.1613C1.35638 10.6301 1.76029 11 2.2487 11H8.7513C9.24115 11 9.64362 10.6315 9.66654 10.1613L10.0203 2.97H10.8854C10.9484 2.97 11 2.9205 11 2.86V2.42C11 2.17663 10.7952 1.98 10.5417 1.98ZM7.67708 1.98H3.32292V0.99H7.67708V1.98Z" fill="currentColor"/>
</svg>
