<svg width="50" height="50" viewBox="0 0 50 50" fill="none" xmlns="http://www.w3.org/2000/svg">
<path d="M48 0H2C0.89375 0 0 0.89375 0 2V48C0 49.1063 0.89375 50 2 50H48C49.1063 50 50 49.1063 50 48V2C50 0.89375 49.1063 0 48 0ZM38.4562 18.1063C38.475 18.4 38.475 18.7063 38.475 19.0063C38.475 28.1813 31.4875 38.75 18.7188 38.75C14.7812 38.75 11.1312 37.6063 8.05625 35.6375C8.61875 35.7 9.15625 35.725 9.73125 35.725C12.9813 35.725 15.9688 34.625 18.35 32.7625C15.3 32.7 12.7375 30.7 11.8625 27.95C12.9312 28.1063 13.8937 28.1063 14.9937 27.825C13.4233 27.5059 12.0117 26.653 10.9989 25.4111C9.98598 24.1693 9.43429 22.615 9.4375 21.0125V20.925C10.3562 21.4437 11.4375 21.7625 12.5688 21.8062C11.6178 21.1725 10.8379 20.3138 10.2982 19.3064C9.75853 18.2991 9.47577 17.1741 9.475 16.0312C9.475 14.7375 9.8125 13.5562 10.4188 12.5312C12.1619 14.6771 14.3371 16.4321 16.8029 17.6823C19.2687 18.9324 21.97 19.6497 24.7313 19.7875C23.75 15.0688 27.275 11.25 31.5125 11.25C33.5125 11.25 35.3125 12.0875 36.5812 13.4375C38.15 13.1438 39.65 12.5562 40.9875 11.7687C40.4688 13.375 39.3812 14.7312 37.9375 15.5875C39.3375 15.4375 40.6875 15.05 41.9375 14.5063C40.9938 15.8938 39.8125 17.125 38.4562 18.1063Z" fill="#4DA1EB"/>
</svg>
