<svg viewBox="0 0 18 18" fill="none" xmlns="http://www.w3.org/2000/svg">
<path d="M17.2938 14.6894C16.8423 13.679 16.1871 12.7612 15.3646 11.9872C14.5446 11.2109 13.5733 10.592 12.5042 10.1646C12.4947 10.1601 12.4851 10.1578 12.4755 10.1533C13.9667 9.13568 14.9361 7.47814 14.9361 5.60804C14.9361 2.51005 12.2792 0 9 0C5.72077 0 3.06387 2.51005 3.06387 5.60804C3.06387 7.47814 4.03328 9.13568 5.52449 10.1555C5.51492 10.16 5.50534 10.1623 5.49577 10.1668C4.42343 10.5942 3.46121 11.207 2.63541 11.9894C1.81371 12.7641 1.15857 13.6817 0.706172 14.6917C0.261734 15.6805 0.0220377 16.7406 5.98544e-05 17.8146C-0.00057901 17.8387 0.00390188 17.8627 0.0132386 17.8852C0.0225753 17.9077 0.036579 17.9281 0.0544243 17.9454C0.0722696 17.9627 0.0935956 17.9764 0.117146 17.9858C0.140696 17.9952 0.165993 18 0.191548 18H1.62771C1.73303 18 1.8168 17.9209 1.8192 17.8236C1.86707 16.0779 2.60908 14.443 3.92078 13.2038C5.27795 11.9216 7.08033 11.2161 9 11.2161C10.9197 11.2161 12.722 11.9216 14.0792 13.2038C15.3909 14.443 16.1329 16.0779 16.1808 17.8236C16.1832 17.9231 16.267 18 16.3723 18H17.8085C17.834 18 17.8593 17.9952 17.8829 17.9858C17.9064 17.9764 17.9277 17.9627 17.9456 17.9454C17.9634 17.9281 17.9774 17.9077 17.9868 17.8852C17.9961 17.8627 18.0006 17.8387 17.9999 17.8146C17.976 16.7337 17.739 15.6822 17.2938 14.6894ZM9 9.49749C7.90134 9.49749 6.8673 9.09271 6.08938 8.35779C5.31146 7.62286 4.88301 6.64598 4.88301 5.60804C4.88301 4.5701 5.31146 3.59322 6.08938 2.85829C6.8673 2.12337 7.90134 1.71859 9 1.71859C10.0987 1.71859 11.1327 2.12337 11.9106 2.85829C12.6885 3.59322 13.117 4.5701 13.117 5.60804C13.117 6.64598 12.6885 7.62286 11.9106 8.35779C11.1327 9.09271 10.0987 9.49749 9 9.49749Z" fill="currentColor"/>
</svg>
