<svg viewBox="0 0 12 12" fill="none" xmlns="http://www.w3.org/2000/svg">
<path d="M0.0330843 5.44147L5.5962 11.8162C5.64649 11.8739 5.70866 11.9202 5.7785 11.9519C5.84834 11.9836 5.92421 12 6.00099 12C6.07776 12 6.15364 11.9836 6.22348 11.9519C6.29332 11.9202 6.35549 11.8739 6.40578 11.8162L11.9672 5.44147C11.984 5.42225 11.9949 5.39864 11.9986 5.37344C12.0023 5.34824 11.9986 5.32252 11.988 5.29934C11.9774 5.27616 11.9604 5.25649 11.9388 5.24269C11.9173 5.22888 11.8923 5.22152 11.8666 5.22148L10.509 5.22148C10.4319 5.22148 10.3581 5.25481 10.3062 5.31314L6.63708 9.51799L6.63708 0.133329C6.63708 0.059998 6.57674 -4.79558e-07 6.50299 -4.73111e-07L5.49731 -3.85191e-07C5.42356 -3.78743e-07 5.36321 0.0599981 5.36321 0.133329L5.36322 9.51799L1.69414 5.31314C1.64386 5.25481 1.57011 5.22148 1.49133 5.22148L0.133653 5.22148C0.0196756 5.22148 -0.0423418 5.35481 0.0330843 5.44147Z" fill="currentColor"/>
</svg>
