<svg viewBox="0 0 73 29" fill="none" xmlns="http://www.w3.org/2000/svg">
<path d="M48.7193 27.3429L33.1163 0.519015C33.08 0.438299 33.0328 0.362913 32.9758 0.294977C32.7999 0.122865 32.5676 0.0190388 32.3211 0.00237154C32.0745 -0.0142957 31.8301 0.0573024 31.6323 0.204152C31.5121 0.299248 31.4142 0.41907 31.3453 0.555345L24.4262 12.4051L17.5132 0.519015C17.4652 0.438011 17.4078 0.362826 17.3422 0.294977C17.1673 0.123323 16.936 0.0197127 16.6905 0.0030399C16.445 -0.0136329 16.2017 0.0577431 16.0048 0.204152C15.8813 0.297412 15.781 0.417566 15.7117 0.555345L7.93763 13.9249L7.90709 13.9855L0.133044 27.3429C0.0458251 27.4963 0 27.6694 0 27.8455C0 28.0216 0.0458251 28.1947 0.133044 28.3481C0.222359 28.5027 0.351294 28.6312 0.506793 28.7205C0.662292 28.8098 0.838833 28.8568 1.01854 28.8567H16.6216C16.8013 28.8568 16.9779 28.8098 17.1334 28.7205C17.2888 28.6312 17.4178 28.5027 17.5071 28.3481L24.4262 16.4499L31.3514 28.3481C31.4387 28.5031 31.5664 28.632 31.721 28.7214C31.8757 28.8109 32.0517 28.8576 32.2308 28.8567H47.8338C48.0135 28.8568 48.1901 28.8098 48.3456 28.7205C48.5011 28.6312 48.63 28.5027 48.7193 28.3481C48.8066 28.1947 48.8524 28.0216 48.8524 27.8455C48.8524 27.6694 48.8066 27.4963 48.7193 27.3429ZM32.2308 3.02581L38.8567 14.4275L32.2308 25.8231L25.5987 14.4275L32.2308 3.02581ZM16.6216 3.02581L23.2537 14.4275L16.6216 25.8231L9.99565 14.4275L16.6216 3.02581ZM2.77732 26.8343L8.81702 16.4499L14.8628 26.8343H2.77732ZM33.9957 26.8343L40.0354 16.4499L46.0751 26.8343H33.9957Z" fill="#E8471C"/>
<path d="M54.571 29C54.2998 29 54.0246 28.9363 53.7455 28.8089C53.4743 28.6736 53.2151 28.4826 52.9678 28.2358H52.932L52.8123 28.8567H51.7236V20.4266H53.0994V22.5998L53.0636 23.5789C53.3108 23.364 53.578 23.1889 53.8651 23.0535C54.1602 22.9182 54.4593 22.8505 54.7624 22.8505C55.1293 22.8505 55.4563 22.9222 55.7435 23.0655C56.0306 23.2008 56.2739 23.3998 56.4733 23.6625C56.6726 23.9172 56.8242 24.2277 56.9279 24.5939C57.0316 24.9601 57.0834 25.37 57.0834 25.8238C57.0834 26.3253 57.0116 26.7751 56.8681 27.1731C56.7325 27.5631 56.549 27.8935 56.3177 28.1642C56.0864 28.4348 55.8192 28.6418 55.5161 28.7851C55.2131 28.9284 54.898 29 54.571 29ZM54.2839 27.8656C54.6747 27.8656 55.0017 27.6985 55.2649 27.3641C55.5281 27.0218 55.6597 26.5163 55.6597 25.8477C55.6597 25.2586 55.56 24.8009 55.3606 24.4745C55.1612 24.1481 54.8382 23.9849 54.3915 23.9849C53.9768 23.9849 53.5461 24.2038 53.0994 24.6416V27.3761C53.3068 27.5592 53.5102 27.6865 53.7096 27.7582C53.917 27.8298 54.1084 27.8656 54.2839 27.8656Z" fill="#E8471C"/>
<path d="M60.9774 29C60.5706 29 60.1917 28.9323 59.8408 28.797C59.4899 28.6537 59.1828 28.4507 58.9196 28.188C58.6564 27.9253 58.449 27.6069 58.2975 27.2328C58.1539 26.8507 58.0821 26.4168 58.0821 25.9312C58.0821 25.4536 58.1579 25.0237 58.3094 24.6416C58.461 24.2595 58.6604 23.9371 58.9076 23.6744C59.1628 23.4117 59.454 23.2088 59.781 23.0655C60.108 22.9222 60.443 22.8505 60.7859 22.8505C61.1847 22.8505 61.5357 22.9182 61.8388 23.0535C62.1418 23.1889 62.3931 23.3799 62.5925 23.6267C62.7999 23.8735 62.9554 24.168 63.0591 24.5103C63.1628 24.8526 63.2146 25.2267 63.2146 25.6327C63.2146 25.768 63.2066 25.8954 63.1907 26.0148C63.1827 26.1342 63.1707 26.2298 63.1548 26.3014H59.4221C59.4859 26.8268 59.6693 27.2328 59.9724 27.5194C60.2835 27.798 60.6783 27.9373 61.1568 27.9373C61.412 27.9373 61.6473 27.9015 61.8627 27.8298C62.086 27.7502 62.3053 27.6427 62.5207 27.5074L62.9873 28.3671C62.7081 28.5502 62.3971 28.7015 62.0541 28.8209C61.7111 28.9403 61.3522 29 60.9774 29ZM59.4101 25.37H62.0182C62.0182 24.9163 61.9185 24.562 61.7191 24.3073C61.5277 24.0446 61.2286 23.9133 60.8218 23.9133C60.4709 23.9133 60.1638 24.0366 59.9006 24.2834C59.6374 24.5302 59.4739 24.8924 59.4101 25.37Z" fill="#E8471C"/>
<path d="M66.4816 29C66.1386 29 65.8475 28.9483 65.6082 28.8448C65.3769 28.7413 65.1855 28.598 65.0339 28.4149C64.8904 28.2239 64.7827 28.001 64.7109 27.7462C64.6471 27.4835 64.6152 27.193 64.6152 26.8746V24.0804H63.7777V23.0535L64.687 22.9938L64.8545 21.3938H66.003V22.9938H67.4985V24.0804H66.003V26.8746C66.003 27.5592 66.2782 27.9015 66.8285 27.9015C66.9322 27.9015 67.0359 27.8895 67.1396 27.8656C67.2512 27.8418 67.3509 27.8099 67.4387 27.7701L67.678 28.7851C67.5184 28.8408 67.335 28.8886 67.1276 28.9284C66.9282 28.9761 66.7129 29 66.4816 29Z" fill="#E8471C"/>
<path d="M69.9014 29C69.3829 29 68.9642 28.8448 68.6452 28.5343C68.3261 28.2159 68.1666 27.798 68.1666 27.2805C68.1666 26.9701 68.2304 26.6954 68.358 26.4566C68.4936 26.2099 68.701 25.9989 68.9801 25.8238C69.2673 25.6486 69.6262 25.5014 70.0569 25.382C70.4956 25.2626 71.018 25.171 71.6242 25.1073C71.6162 24.9561 71.5922 24.8128 71.5524 24.6775C71.5205 24.5342 71.4606 24.4108 71.3729 24.3073C71.2932 24.1959 71.1855 24.1123 71.0499 24.0565C70.9143 23.9929 70.7468 23.961 70.5474 23.961C70.2603 23.961 69.9771 24.0167 69.698 24.1282C69.4268 24.2396 69.1596 24.375 68.8964 24.5342L68.3939 23.6147C68.7209 23.4078 69.0878 23.2287 69.4946 23.0774C69.9014 22.9262 70.34 22.8505 70.8106 22.8505C71.5444 22.8505 72.0907 23.0695 72.4497 23.5073C72.8166 23.9371 73 24.562 73 25.382V28.8567H71.8634L71.7677 28.2119H71.7199C71.4567 28.4348 71.1735 28.6219 70.8704 28.7731C70.5753 28.9244 70.2523 29 69.9014 29ZM70.344 27.9253C70.5833 27.9253 70.7987 27.8696 70.9901 27.7582C71.1895 27.6467 71.4008 27.4875 71.6242 27.2805V25.9671C71.2254 26.0148 70.8904 26.0785 70.6192 26.1581C70.348 26.2377 70.1287 26.3293 69.9612 26.4327C69.7937 26.5283 69.674 26.6397 69.6023 26.7671C69.5305 26.8945 69.4946 27.0298 69.4946 27.1731C69.4946 27.4358 69.5743 27.6268 69.7339 27.7462C69.8934 27.8656 70.0968 27.9253 70.344 27.9253Z" fill="#E8471C"/>
</svg>
