<svg width="100%" height="auto" viewBox="0 0 450 251" fill="none" xmlns="http://www.w3.org/2000/svg">
<rect y="188" width="450" height="62.5" fill="#F99FEB" fill-opacity="0.1"/>
<rect y="125" width="450" height="62.5" fill="#9FA8F9" fill-opacity="0.1"/>
<rect width="450" height="62.5" fill="#89E6B9" fill-opacity="0.1"/>
<rect y="62" width="450" height="62.5" fill="#83E1FF" fill-opacity="0.1"/>
<path d="M390.926 36V26.844H396.442V28.216H392.55V30.554H395.84V31.926H392.55V34.628H396.582V36H390.926ZM396.96 36L399.144 32.416L397.1 29.126H398.836L399.606 30.428C399.708 30.6147 399.811 30.8107 399.914 31.016C400.026 31.212 400.133 31.4033 400.236 31.59H400.292C400.376 31.4033 400.464 31.212 400.558 31.016C400.651 30.8107 400.74 30.6147 400.824 30.428L401.482 29.126H403.148L401.118 32.598L403.302 36H401.566L400.726 34.642C400.614 34.4367 400.497 34.2313 400.376 34.026C400.264 33.8207 400.147 33.62 400.026 33.424H399.97C399.867 33.62 399.764 33.8207 399.662 34.026C399.568 34.222 399.47 34.4273 399.368 34.642L398.64 36H396.96ZM407.081 36.168C406.615 36.168 406.176 36.0887 405.765 35.93C405.364 35.7713 405.014 35.538 404.715 35.23C404.417 34.922 404.183 34.544 404.015 34.096C403.847 33.648 403.763 33.1393 403.763 32.57C403.763 32.0007 403.857 31.492 404.043 31.044C404.23 30.596 404.482 30.218 404.799 29.91C405.117 29.602 405.481 29.3687 405.891 29.21C406.311 29.042 406.75 28.958 407.207 28.958C407.655 28.958 408.038 29.0327 408.355 29.182C408.682 29.3313 408.971 29.5133 409.223 29.728L408.439 30.778C408.253 30.6193 408.066 30.498 407.879 30.414C407.702 30.3207 407.506 30.274 407.291 30.274C406.731 30.274 406.279 30.484 405.933 30.904C405.588 31.3147 405.415 31.87 405.415 32.57C405.415 33.2607 405.583 33.816 405.919 34.236C406.265 34.6467 406.708 34.852 407.249 34.852C407.52 34.852 407.772 34.796 408.005 34.684C408.248 34.5627 408.467 34.4227 408.663 34.264L409.321 35.328C408.995 35.608 408.635 35.818 408.243 35.958C407.861 36.098 407.473 36.168 407.081 36.168ZM413.276 36.168C412.8 36.168 412.357 36.0887 411.946 35.93C411.536 35.762 411.176 35.524 410.868 35.216C410.56 34.908 410.318 34.5347 410.14 34.096C409.972 33.648 409.888 33.1393 409.888 32.57C409.888 32.01 409.977 31.506 410.154 31.058C410.332 30.61 410.565 30.232 410.854 29.924C411.153 29.616 411.494 29.378 411.876 29.21C412.259 29.042 412.651 28.958 413.052 28.958C413.519 28.958 413.93 29.0373 414.284 29.196C414.639 29.3547 414.933 29.5787 415.166 29.868C415.409 30.1573 415.591 30.5027 415.712 30.904C415.834 31.3053 415.894 31.744 415.894 32.22C415.894 32.3787 415.885 32.528 415.866 32.668C415.857 32.808 415.843 32.92 415.824 33.004H411.456C411.531 33.62 411.746 34.096 412.1 34.432C412.464 34.7587 412.926 34.922 413.486 34.922C413.785 34.922 414.06 34.88 414.312 34.796C414.574 34.7027 414.83 34.5767 415.082 34.418L415.628 35.426C415.302 35.6407 414.938 35.818 414.536 35.958C414.135 36.098 413.715 36.168 413.276 36.168ZM411.442 31.912H414.494C414.494 31.38 414.378 30.9647 414.144 30.666C413.92 30.358 413.57 30.204 413.094 30.204C412.684 30.204 412.324 30.3487 412.016 30.638C411.708 30.9273 411.517 31.352 411.442 31.912ZM419 36.168C418.421 36.168 418.015 35.9953 417.782 35.65C417.549 35.3047 417.432 34.8333 417.432 34.236V26.116H419.042V34.32C419.042 34.516 419.079 34.656 419.154 34.74C419.229 34.8147 419.308 34.852 419.392 34.852C419.429 34.852 419.462 34.852 419.49 34.852C419.527 34.852 419.579 34.8427 419.644 34.824L419.854 36.028C419.639 36.1213 419.355 36.168 419 36.168ZM422.801 36.168C422.222 36.168 421.816 35.9953 421.583 35.65C421.35 35.3047 421.233 34.8333 421.233 34.236V26.116H422.843V34.32C422.843 34.516 422.88 34.656 422.955 34.74C423.03 34.8147 423.109 34.852 423.193 34.852C423.23 34.852 423.263 34.852 423.291 34.852C423.328 34.852 423.38 34.8427 423.445 34.824L423.655 36.028C423.44 36.1213 423.156 36.168 422.801 36.168ZM427.974 36.168C427.498 36.168 427.054 36.0887 426.644 35.93C426.233 35.762 425.874 35.524 425.566 35.216C425.258 34.908 425.015 34.5347 424.838 34.096C424.67 33.648 424.586 33.1393 424.586 32.57C424.586 32.01 424.674 31.506 424.852 31.058C425.029 30.61 425.262 30.232 425.552 29.924C425.85 29.616 426.191 29.378 426.574 29.21C426.956 29.042 427.348 28.958 427.75 28.958C428.216 28.958 428.627 29.0373 428.982 29.196C429.336 29.3547 429.63 29.5787 429.864 29.868C430.106 30.1573 430.288 30.5027 430.41 30.904C430.531 31.3053 430.592 31.744 430.592 32.22C430.592 32.3787 430.582 32.528 430.564 32.668C430.554 32.808 430.54 32.92 430.522 33.004H426.154C426.228 33.62 426.443 34.096 426.798 34.432C427.162 34.7587 427.624 34.922 428.184 34.922C428.482 34.922 428.758 34.88 429.01 34.796C429.271 34.7027 429.528 34.5767 429.78 34.418L430.326 35.426C429.999 35.6407 429.635 35.818 429.234 35.958C428.832 36.098 428.412 36.168 427.974 36.168ZM426.14 31.912H429.192C429.192 31.38 429.075 30.9647 428.842 30.666C428.618 30.358 428.268 30.204 427.792 30.204C427.381 30.204 427.022 30.3487 426.714 30.638C426.406 30.9273 426.214 31.352 426.14 31.912ZM432.129 36V29.126H433.459L433.571 30.05H433.627C433.935 29.7513 434.267 29.4947 434.621 29.28C434.985 29.0653 435.405 28.958 435.881 28.958C436.619 28.958 437.155 29.196 437.491 29.672C437.827 30.1387 437.995 30.8107 437.995 31.688V36H436.385V31.898C436.385 31.3287 436.301 30.9273 436.133 30.694C435.965 30.4607 435.69 30.344 435.307 30.344C435.009 30.344 434.743 30.4187 434.509 30.568C434.285 30.708 434.029 30.918 433.739 31.198V36H432.129ZM442.385 36.168C441.984 36.168 441.643 36.1073 441.363 35.986C441.093 35.8647 440.869 35.6967 440.691 35.482C440.523 35.258 440.397 34.9967 440.313 34.698C440.239 34.39 440.201 34.0493 440.201 33.676V30.4H439.221V29.196L440.285 29.126L440.481 27.25H441.825V29.126H443.575V30.4H441.825V33.676C441.825 34.4787 442.147 34.88 442.791 34.88C442.913 34.88 443.034 34.866 443.155 34.838C443.286 34.81 443.403 34.7727 443.505 34.726L443.785 35.916C443.599 35.9813 443.384 36.0373 443.141 36.084C442.908 36.14 442.656 36.168 442.385 36.168Z" fill="#89E6B9"/>
<path d="M422.426 162V152.844H427.956V154.216H424.05V156.806H427.382V158.178H424.05V162H422.426ZM430.583 162.168C429.976 162.168 429.486 161.986 429.113 161.622C428.739 161.249 428.553 160.759 428.553 160.152C428.553 159.788 428.627 159.466 428.777 159.186C428.935 158.897 429.178 158.649 429.505 158.444C429.841 158.239 430.261 158.066 430.765 157.926C431.278 157.786 431.889 157.679 432.599 157.604C432.589 157.427 432.561 157.259 432.515 157.1C432.477 156.932 432.407 156.787 432.305 156.666C432.211 156.535 432.085 156.437 431.927 156.372C431.768 156.297 431.572 156.26 431.339 156.26C431.003 156.26 430.671 156.325 430.345 156.456C430.027 156.587 429.715 156.745 429.407 156.932L428.819 155.854C429.201 155.611 429.631 155.401 430.107 155.224C430.583 155.047 431.096 154.958 431.647 154.958C432.505 154.958 433.145 155.215 433.565 155.728C433.994 156.232 434.209 156.965 434.209 157.926V162H432.879L432.767 161.244H432.711C432.403 161.505 432.071 161.725 431.717 161.902C431.371 162.079 430.993 162.168 430.583 162.168ZM431.101 160.908C431.381 160.908 431.633 160.843 431.857 160.712C432.09 160.581 432.337 160.395 432.599 160.152V158.612C432.132 158.668 431.74 158.743 431.423 158.836C431.105 158.929 430.849 159.037 430.653 159.158C430.457 159.27 430.317 159.401 430.233 159.55C430.149 159.699 430.107 159.858 430.107 160.026C430.107 160.334 430.2 160.558 430.387 160.698C430.573 160.838 430.811 160.908 431.101 160.908ZM436.135 162V155.126H437.745V162H436.135ZM436.947 153.922C436.658 153.922 436.42 153.838 436.233 153.67C436.047 153.502 435.953 153.283 435.953 153.012C435.953 152.741 436.047 152.522 436.233 152.354C436.42 152.177 436.658 152.088 436.947 152.088C437.237 152.088 437.475 152.177 437.661 152.354C437.848 152.522 437.941 152.741 437.941 153.012C437.941 153.283 437.848 153.502 437.661 153.67C437.475 153.838 437.237 153.922 436.947 153.922ZM439.799 162V155.126H441.129L441.241 156.344H441.297C441.54 155.896 441.834 155.555 442.179 155.322C442.525 155.079 442.879 154.958 443.243 154.958C443.57 154.958 443.831 155.005 444.027 155.098L443.747 156.498C443.626 156.461 443.514 156.433 443.411 156.414C443.309 156.395 443.183 156.386 443.033 156.386C442.763 156.386 442.478 156.493 442.179 156.708C441.881 156.913 441.624 157.277 441.409 157.8V162H439.799Z" fill="#9FA8F9"/>
<path d="M416.937 99.168C416.321 99.168 415.747 99.0653 415.215 98.86C414.693 98.6547 414.235 98.3513 413.843 97.95C413.461 97.5487 413.162 97.054 412.947 96.466C412.733 95.878 412.625 95.206 412.625 94.45C412.625 93.7033 412.737 93.036 412.961 92.448C413.185 91.8507 413.489 91.3467 413.871 90.936C414.263 90.5253 414.721 90.2127 415.243 89.998C415.775 89.7833 416.345 89.676 416.951 89.676C417.605 89.676 418.155 89.7973 418.603 90.04C419.061 90.2733 419.434 90.5393 419.723 90.838L418.855 91.888C418.622 91.664 418.361 91.4773 418.071 91.328C417.791 91.1693 417.437 91.09 417.007 91.09C416.597 91.09 416.223 91.1693 415.887 91.328C415.561 91.4773 415.276 91.6967 415.033 91.986C414.8 92.266 414.618 92.6113 414.487 93.022C414.357 93.4327 414.291 93.8947 414.291 94.408C414.291 95.4533 414.525 96.2747 414.991 96.872C415.467 97.46 416.167 97.754 417.091 97.754C417.353 97.754 417.6 97.7213 417.833 97.656C418.067 97.5813 418.258 97.4787 418.407 97.348V95.374H416.671V94.044H419.863V98.076C419.555 98.384 419.145 98.6453 418.631 98.86C418.127 99.0653 417.563 99.168 416.937 99.168ZM424.566 99.168C424.137 99.168 423.726 99.0887 423.334 98.93C422.942 98.7713 422.592 98.538 422.284 98.23C421.986 97.922 421.748 97.544 421.57 97.096C421.393 96.648 421.304 96.1393 421.304 95.57C421.304 95.0007 421.393 94.492 421.57 94.044C421.748 93.596 421.986 93.218 422.284 92.91C422.592 92.602 422.942 92.3687 423.334 92.21C423.726 92.042 424.137 91.958 424.566 91.958C424.996 91.958 425.406 92.042 425.798 92.21C426.2 92.3687 426.55 92.602 426.848 92.91C427.147 93.218 427.385 93.596 427.562 94.044C427.749 94.492 427.842 95.0007 427.842 95.57C427.842 96.1393 427.749 96.648 427.562 97.096C427.385 97.544 427.147 97.922 426.848 98.23C426.55 98.538 426.2 98.7713 425.798 98.93C425.406 99.0887 424.996 99.168 424.566 99.168ZM424.566 97.852C425.07 97.852 425.467 97.6467 425.756 97.236C426.046 96.816 426.19 96.2607 426.19 95.57C426.19 94.87 426.046 94.3147 425.756 93.904C425.467 93.484 425.07 93.274 424.566 93.274C424.062 93.274 423.666 93.484 423.376 93.904C423.096 94.3147 422.956 94.87 422.956 95.57C422.956 96.2607 423.096 96.816 423.376 97.236C423.666 97.6467 424.062 97.852 424.566 97.852ZM432.25 99.168C431.821 99.168 431.41 99.0887 431.018 98.93C430.626 98.7713 430.276 98.538 429.968 98.23C429.669 97.922 429.431 97.544 429.254 97.096C429.077 96.648 428.988 96.1393 428.988 95.57C428.988 95.0007 429.077 94.492 429.254 94.044C429.431 93.596 429.669 93.218 429.968 92.91C430.276 92.602 430.626 92.3687 431.018 92.21C431.41 92.042 431.821 91.958 432.25 91.958C432.679 91.958 433.09 92.042 433.482 92.21C433.883 92.3687 434.233 92.602 434.532 92.91C434.831 93.218 435.069 93.596 435.246 94.044C435.433 94.492 435.526 95.0007 435.526 95.57C435.526 96.1393 435.433 96.648 435.246 97.096C435.069 97.544 434.831 97.922 434.532 98.23C434.233 98.538 433.883 98.7713 433.482 98.93C433.09 99.0887 432.679 99.168 432.25 99.168ZM432.25 97.852C432.754 97.852 433.151 97.6467 433.44 97.236C433.729 96.816 433.874 96.2607 433.874 95.57C433.874 94.87 433.729 94.3147 433.44 93.904C433.151 93.484 432.754 93.274 432.25 93.274C431.746 93.274 431.349 93.484 431.06 93.904C430.78 94.3147 430.64 94.87 430.64 95.57C430.64 96.2607 430.78 96.816 431.06 97.236C431.349 97.6467 431.746 97.852 432.25 97.852ZM439.528 99.168C438.66 99.168 437.969 98.8553 437.456 98.23C436.952 97.5953 436.7 96.7087 436.7 95.57C436.7 95.01 436.779 94.506 436.938 94.058C437.106 93.61 437.325 93.232 437.596 92.924C437.866 92.616 438.174 92.378 438.52 92.21C438.874 92.042 439.238 91.958 439.612 91.958C440.004 91.958 440.335 92.028 440.606 92.168C440.876 92.2987 441.147 92.4807 441.418 92.714L441.362 91.608V89.116H442.972V99H441.642L441.53 98.258H441.474C441.222 98.51 440.928 98.7247 440.592 98.902C440.256 99.0793 439.901 99.168 439.528 99.168ZM439.92 97.838C440.433 97.838 440.914 97.5813 441.362 97.068V93.862C441.119 93.6473 440.881 93.498 440.648 93.414C440.424 93.33 440.195 93.288 439.962 93.288C439.514 93.288 439.136 93.484 438.828 93.876C438.52 94.268 438.366 94.828 438.366 95.556C438.366 96.3027 438.496 96.872 438.758 97.264C439.028 97.6467 439.416 97.838 439.92 97.838Z" fill="#83E1FF"/>
<path d="M416.738 225V215.844H419.622C420.126 215.844 420.593 215.891 421.022 215.984C421.461 216.077 421.839 216.236 422.156 216.46C422.474 216.684 422.721 216.978 422.898 217.342C423.076 217.697 423.164 218.14 423.164 218.672C423.164 219.176 423.076 219.615 422.898 219.988C422.721 220.361 422.474 220.674 422.156 220.926C421.848 221.169 421.48 221.351 421.05 221.472C420.63 221.584 420.173 221.64 419.678 221.64H418.362V225H416.738ZM418.362 220.338H419.552C420.896 220.338 421.568 219.783 421.568 218.672C421.568 218.093 421.391 217.697 421.036 217.482C420.691 217.258 420.178 217.146 419.496 217.146H418.362V220.338ZM427.246 225.168C426.817 225.168 426.406 225.089 426.014 224.93C425.622 224.771 425.272 224.538 424.964 224.23C424.665 223.922 424.427 223.544 424.25 223.096C424.073 222.648 423.984 222.139 423.984 221.57C423.984 221.001 424.073 220.492 424.25 220.044C424.427 219.596 424.665 219.218 424.964 218.91C425.272 218.602 425.622 218.369 426.014 218.21C426.406 218.042 426.817 217.958 427.246 217.958C427.675 217.958 428.086 218.042 428.478 218.21C428.879 218.369 429.229 218.602 429.528 218.91C429.827 219.218 430.065 219.596 430.242 220.044C430.429 220.492 430.522 221.001 430.522 221.57C430.522 222.139 430.429 222.648 430.242 223.096C430.065 223.544 429.827 223.922 429.528 224.23C429.229 224.538 428.879 224.771 428.478 224.93C428.086 225.089 427.675 225.168 427.246 225.168ZM427.246 223.852C427.75 223.852 428.147 223.647 428.436 223.236C428.725 222.816 428.87 222.261 428.87 221.57C428.87 220.87 428.725 220.315 428.436 219.904C428.147 219.484 427.75 219.274 427.246 219.274C426.742 219.274 426.345 219.484 426.056 219.904C425.776 220.315 425.636 220.87 425.636 221.57C425.636 222.261 425.776 222.816 426.056 223.236C426.345 223.647 426.742 223.852 427.246 223.852ZM434.93 225.168C434.5 225.168 434.09 225.089 433.698 224.93C433.306 224.771 432.956 224.538 432.648 224.23C432.349 223.922 432.111 223.544 431.934 223.096C431.756 222.648 431.668 222.139 431.668 221.57C431.668 221.001 431.756 220.492 431.934 220.044C432.111 219.596 432.349 219.218 432.648 218.91C432.956 218.602 433.306 218.369 433.698 218.21C434.09 218.042 434.5 217.958 434.93 217.958C435.359 217.958 435.77 218.042 436.162 218.21C436.563 218.369 436.913 218.602 437.212 218.91C437.51 219.218 437.748 219.596 437.926 220.044C438.112 220.492 438.206 221.001 438.206 221.57C438.206 222.139 438.112 222.648 437.926 223.096C437.748 223.544 437.51 223.922 437.212 224.23C436.913 224.538 436.563 224.771 436.162 224.93C435.77 225.089 435.359 225.168 434.93 225.168ZM434.93 223.852C435.434 223.852 435.83 223.647 436.12 223.236C436.409 222.816 436.554 222.261 436.554 221.57C436.554 220.87 436.409 220.315 436.12 219.904C435.83 219.484 435.434 219.274 434.93 219.274C434.426 219.274 434.029 219.484 433.74 219.904C433.46 220.315 433.32 220.87 433.32 221.57C433.32 222.261 433.46 222.816 433.74 223.236C434.029 223.647 434.426 223.852 434.93 223.852ZM439.799 225V218.126H441.129L441.241 219.344H441.297C441.54 218.896 441.834 218.555 442.179 218.322C442.525 218.079 442.879 217.958 443.243 217.958C443.57 217.958 443.831 218.005 444.027 218.098L443.747 219.498C443.626 219.461 443.514 219.433 443.411 219.414C443.309 219.395 443.183 219.386 443.033 219.386C442.763 219.386 442.478 219.493 442.179 219.708C441.881 219.913 441.624 220.277 441.409 220.8V225H439.799Z" fill="#F99FEB"/>
</svg>