<svg width="100%" height="100%" viewBox="0 0 388 269" fill="none" xmlns="http://www.w3.org/2000/svg">
<rect width="97" height="269" fill="#F99FEB" fill-opacity="0.1"/>
<rect x="97" width="97" height="269" fill="#F1F2FA"/>
<rect x="194" width="97" height="269" fill="#EEF8FB"/>
<rect x="291" width="97" height="269" fill="#EFF8F4"/>
<path d="M314.044 17V7.844H319.56V9.216H315.668V11.554H318.958V12.926H315.668V15.628H319.7V17H314.044ZM320.078 17L322.262 13.416L320.218 10.126H321.954L322.724 11.428C322.827 11.6147 322.929 11.8107 323.032 12.016C323.144 12.212 323.251 12.4033 323.354 12.59H323.41C323.494 12.4033 323.583 12.212 323.676 12.016C323.769 11.8107 323.858 11.6147 323.942 11.428L324.6 10.126H326.266L324.236 13.598L326.42 17H324.684L323.844 15.642C323.732 15.4367 323.615 15.2313 323.494 15.026C323.382 14.8207 323.265 14.62 323.144 14.424H323.088C322.985 14.62 322.883 14.8207 322.78 15.026C322.687 15.222 322.589 15.4273 322.486 15.642L321.758 17H320.078ZM330.2 17.168C329.733 17.168 329.294 17.0887 328.884 16.93C328.482 16.7713 328.132 16.538 327.834 16.23C327.535 15.922 327.302 15.544 327.134 15.096C326.966 14.648 326.882 14.1393 326.882 13.57C326.882 13.0007 326.975 12.492 327.162 12.044C327.348 11.596 327.6 11.218 327.918 10.91C328.235 10.602 328.599 10.3687 329.01 10.21C329.43 10.042 329.868 9.958 330.326 9.958C330.774 9.958 331.156 10.0327 331.474 10.182C331.8 10.3313 332.09 10.5133 332.342 10.728L331.558 11.778C331.371 11.6193 331.184 11.498 330.998 11.414C330.82 11.3207 330.624 11.274 330.41 11.274C329.85 11.274 329.397 11.484 329.052 11.904C328.706 12.3147 328.534 12.87 328.534 13.57C328.534 14.2607 328.702 14.816 329.038 15.236C329.383 15.6467 329.826 15.852 330.368 15.852C330.638 15.852 330.89 15.796 331.124 15.684C331.366 15.5627 331.586 15.4227 331.782 15.264L332.44 16.328C332.113 16.608 331.754 16.818 331.362 16.958C330.979 17.098 330.592 17.168 330.2 17.168ZM336.395 17.168C335.919 17.168 335.475 17.0887 335.065 16.93C334.654 16.762 334.295 16.524 333.987 16.216C333.679 15.908 333.436 15.5347 333.259 15.096C333.091 14.648 333.007 14.1393 333.007 13.57C333.007 13.01 333.095 12.506 333.273 12.058C333.45 11.61 333.683 11.232 333.973 10.924C334.271 10.616 334.612 10.378 334.995 10.21C335.377 10.042 335.769 9.958 336.171 9.958C336.637 9.958 337.048 10.0373 337.403 10.196C337.757 10.3547 338.051 10.5787 338.285 10.868C338.527 11.1573 338.709 11.5027 338.831 11.904C338.952 12.3053 339.013 12.744 339.013 13.22C339.013 13.3787 339.003 13.528 338.985 13.668C338.975 13.808 338.961 13.92 338.943 14.004H334.575C334.649 14.62 334.864 15.096 335.219 15.432C335.583 15.7587 336.045 15.922 336.605 15.922C336.903 15.922 337.179 15.88 337.431 15.796C337.692 15.7027 337.949 15.5767 338.201 15.418L338.747 16.426C338.42 16.6407 338.056 16.818 337.655 16.958C337.253 17.098 336.833 17.168 336.395 17.168ZM334.561 12.912H337.613C337.613 12.38 337.496 11.9647 337.263 11.666C337.039 11.358 336.689 11.204 336.213 11.204C335.802 11.204 335.443 11.3487 335.135 11.638C334.827 11.9273 334.635 12.352 334.561 12.912ZM342.118 17.168C341.54 17.168 341.134 16.9953 340.9 16.65C340.667 16.3047 340.55 15.8333 340.55 15.236V7.116H342.16V15.32C342.16 15.516 342.198 15.656 342.272 15.74C342.347 15.8147 342.426 15.852 342.51 15.852C342.548 15.852 342.58 15.852 342.608 15.852C342.646 15.852 342.697 15.8427 342.762 15.824L342.972 17.028C342.758 17.1213 342.473 17.168 342.118 17.168ZM345.919 17.168C345.34 17.168 344.934 16.9953 344.701 16.65C344.468 16.3047 344.351 15.8333 344.351 15.236V7.116H345.961V15.32C345.961 15.516 345.998 15.656 346.073 15.74C346.148 15.8147 346.227 15.852 346.311 15.852C346.348 15.852 346.381 15.852 346.409 15.852C346.446 15.852 346.498 15.8427 346.563 15.824L346.773 17.028C346.558 17.1213 346.274 17.168 345.919 17.168ZM351.092 17.168C350.616 17.168 350.173 17.0887 349.762 16.93C349.351 16.762 348.992 16.524 348.684 16.216C348.376 15.908 348.133 15.5347 347.956 15.096C347.788 14.648 347.704 14.1393 347.704 13.57C347.704 13.01 347.793 12.506 347.97 12.058C348.147 11.61 348.381 11.232 348.67 10.924C348.969 10.616 349.309 10.378 349.692 10.21C350.075 10.042 350.467 9.958 350.868 9.958C351.335 9.958 351.745 10.0373 352.1 10.196C352.455 10.3547 352.749 10.5787 352.982 10.868C353.225 11.1573 353.407 11.5027 353.528 11.904C353.649 12.3053 353.71 12.744 353.71 13.22C353.71 13.3787 353.701 13.528 353.682 13.668C353.673 13.808 353.659 13.92 353.64 14.004H349.272C349.347 14.62 349.561 15.096 349.916 15.432C350.28 15.7587 350.742 15.922 351.302 15.922C351.601 15.922 351.876 15.88 352.128 15.796C352.389 15.7027 352.646 15.5767 352.898 15.418L353.444 16.426C353.117 16.6407 352.753 16.818 352.352 16.958C351.951 17.098 351.531 17.168 351.092 17.168ZM349.258 12.912H352.31C352.31 12.38 352.193 11.9647 351.96 11.666C351.736 11.358 351.386 11.204 350.91 11.204C350.499 11.204 350.14 11.3487 349.832 11.638C349.524 11.9273 349.333 12.352 349.258 12.912ZM355.248 17V10.126H356.578L356.69 11.05H356.746C357.054 10.7513 357.385 10.4947 357.74 10.28C358.104 10.0653 358.524 9.958 359 9.958C359.737 9.958 360.274 10.196 360.61 10.672C360.946 11.1387 361.114 11.8107 361.114 12.688V17H359.504V12.898C359.504 12.3287 359.42 11.9273 359.252 11.694C359.084 11.4607 358.808 11.344 358.426 11.344C358.127 11.344 357.861 11.4187 357.628 11.568C357.404 11.708 357.147 11.918 356.858 12.198V17H355.248ZM365.504 17.168C365.102 17.168 364.762 17.1073 364.482 16.986C364.211 16.8647 363.987 16.6967 363.81 16.482C363.642 16.258 363.516 15.9967 363.432 15.698C363.357 15.39 363.32 15.0493 363.32 14.676V11.4H362.34V10.196L363.404 10.126L363.6 8.25H364.944V10.126H366.694V11.4H364.944V14.676C364.944 15.4787 365.266 15.88 365.91 15.88C366.031 15.88 366.152 15.866 366.274 15.838C366.404 15.81 366.521 15.7727 366.624 15.726L366.904 16.916C366.717 16.9813 366.502 17.0373 366.26 17.084C366.026 17.14 365.774 17.168 365.504 17.168Z" fill="#89E6B9"/>
<path d="M135.794 17V7.844H141.324V9.216H137.418V11.806H140.75V13.178H137.418V17H135.794ZM143.951 17.168C143.344 17.168 142.854 16.986 142.481 16.622C142.107 16.2487 141.921 15.7587 141.921 15.152C141.921 14.788 141.995 14.466 142.145 14.186C142.303 13.8967 142.546 13.6493 142.873 13.444C143.209 13.2387 143.629 13.066 144.133 12.926C144.646 12.786 145.257 12.6787 145.967 12.604C145.957 12.4267 145.929 12.2587 145.883 12.1C145.845 11.932 145.775 11.7873 145.673 11.666C145.579 11.5353 145.453 11.4373 145.295 11.372C145.136 11.2973 144.94 11.26 144.707 11.26C144.371 11.26 144.039 11.3253 143.713 11.456C143.395 11.5867 143.083 11.7453 142.775 11.932L142.187 10.854C142.569 10.6113 142.999 10.4013 143.475 10.224C143.951 10.0467 144.464 9.958 145.015 9.958C145.873 9.958 146.513 10.2147 146.933 10.728C147.362 11.232 147.577 11.9647 147.577 12.926V17H146.247L146.135 16.244H146.079C145.771 16.5053 145.439 16.7247 145.085 16.902C144.739 17.0793 144.361 17.168 143.951 17.168ZM144.469 15.908C144.749 15.908 145.001 15.8427 145.225 15.712C145.458 15.5813 145.705 15.3947 145.967 15.152V13.612C145.5 13.668 145.108 13.7427 144.791 13.836C144.473 13.9293 144.217 14.0367 144.021 14.158C143.825 14.27 143.685 14.4007 143.601 14.55C143.517 14.6993 143.475 14.858 143.475 15.026C143.475 15.334 143.568 15.558 143.755 15.698C143.941 15.838 144.179 15.908 144.469 15.908ZM149.503 17V10.126H151.113V17H149.503ZM150.315 8.922C150.026 8.922 149.788 8.838 149.601 8.67C149.415 8.502 149.321 8.28267 149.321 8.012C149.321 7.74133 149.415 7.522 149.601 7.354C149.788 7.17667 150.026 7.088 150.315 7.088C150.605 7.088 150.843 7.17667 151.029 7.354C151.216 7.522 151.309 7.74133 151.309 8.012C151.309 8.28267 151.216 8.502 151.029 8.67C150.843 8.838 150.605 8.922 150.315 8.922ZM153.168 17V10.126H154.498L154.61 11.344H154.666C154.908 10.896 155.202 10.5553 155.548 10.322C155.893 10.0793 156.248 9.958 156.612 9.958C156.938 9.958 157.2 10.0047 157.396 10.098L157.116 11.498C156.994 11.4607 156.882 11.4327 156.78 11.414C156.677 11.3953 156.551 11.386 156.402 11.386C156.131 11.386 155.846 11.4933 155.548 11.708C155.249 11.9133 154.992 12.2773 154.778 12.8V17H153.168Z" fill="#9FA8F9"/>
<path d="M231.968 17.168C231.352 17.168 230.778 17.0653 230.246 16.86C229.723 16.6547 229.266 16.3513 228.874 15.95C228.491 15.5487 228.192 15.054 227.978 14.466C227.763 13.878 227.656 13.206 227.656 12.45C227.656 11.7033 227.768 11.036 227.992 10.448C228.216 9.85067 228.519 9.34667 228.902 8.936C229.294 8.52533 229.751 8.21267 230.274 7.998C230.806 7.78333 231.375 7.676 231.982 7.676C232.635 7.676 233.186 7.79733 233.634 8.04C234.091 8.27333 234.464 8.53933 234.754 8.838L233.886 9.888C233.652 9.664 233.391 9.47733 233.102 9.328C232.822 9.16933 232.467 9.09 232.038 9.09C231.627 9.09 231.254 9.16933 230.918 9.328C230.591 9.47733 230.306 9.69667 230.064 9.986C229.83 10.266 229.648 10.6113 229.518 11.022C229.387 11.4327 229.322 11.8947 229.322 12.408C229.322 13.4533 229.555 14.2747 230.022 14.872C230.498 15.46 231.198 15.754 232.122 15.754C232.383 15.754 232.63 15.7213 232.864 15.656C233.097 15.5813 233.288 15.4787 233.438 15.348V13.374H231.702V12.044H234.894V16.076C234.586 16.384 234.175 16.6453 233.662 16.86C233.158 17.0653 232.593 17.168 231.968 17.168ZM239.597 17.168C239.167 17.168 238.757 17.0887 238.365 16.93C237.973 16.7713 237.623 16.538 237.315 16.23C237.016 15.922 236.778 15.544 236.601 15.096C236.423 14.648 236.335 14.1393 236.335 13.57C236.335 13.0007 236.423 12.492 236.601 12.044C236.778 11.596 237.016 11.218 237.315 10.91C237.623 10.602 237.973 10.3687 238.365 10.21C238.757 10.042 239.167 9.958 239.597 9.958C240.026 9.958 240.437 10.042 240.829 10.21C241.23 10.3687 241.58 10.602 241.879 10.91C242.177 11.218 242.415 11.596 242.593 12.044C242.779 12.492 242.873 13.0007 242.873 13.57C242.873 14.1393 242.779 14.648 242.593 15.096C242.415 15.544 242.177 15.922 241.879 16.23C241.58 16.538 241.23 16.7713 240.829 16.93C240.437 17.0887 240.026 17.168 239.597 17.168ZM239.597 15.852C240.101 15.852 240.497 15.6467 240.787 15.236C241.076 14.816 241.221 14.2607 241.221 13.57C241.221 12.87 241.076 12.3147 240.787 11.904C240.497 11.484 240.101 11.274 239.597 11.274C239.093 11.274 238.696 11.484 238.407 11.904C238.127 12.3147 237.987 12.87 237.987 13.57C237.987 14.2607 238.127 14.816 238.407 15.236C238.696 15.6467 239.093 15.852 239.597 15.852ZM247.28 17.168C246.851 17.168 246.44 17.0887 246.048 16.93C245.656 16.7713 245.306 16.538 244.998 16.23C244.7 15.922 244.462 15.544 244.284 15.096C244.107 14.648 244.018 14.1393 244.018 13.57C244.018 13.0007 244.107 12.492 244.284 12.044C244.462 11.596 244.7 11.218 244.998 10.91C245.306 10.602 245.656 10.3687 246.048 10.21C246.44 10.042 246.851 9.958 247.28 9.958C247.71 9.958 248.12 10.042 248.512 10.21C248.914 10.3687 249.264 10.602 249.562 10.91C249.861 11.218 250.099 11.596 250.276 12.044C250.463 12.492 250.556 13.0007 250.556 13.57C250.556 14.1393 250.463 14.648 250.276 15.096C250.099 15.544 249.861 15.922 249.562 16.23C249.264 16.538 248.914 16.7713 248.512 16.93C248.12 17.0887 247.71 17.168 247.28 17.168ZM247.28 15.852C247.784 15.852 248.181 15.6467 248.47 15.236C248.76 14.816 248.904 14.2607 248.904 13.57C248.904 12.87 248.76 12.3147 248.47 11.904C248.181 11.484 247.784 11.274 247.28 11.274C246.776 11.274 246.38 11.484 246.09 11.904C245.81 12.3147 245.67 12.87 245.67 13.57C245.67 14.2607 245.81 14.816 246.09 15.236C246.38 15.6467 246.776 15.852 247.28 15.852ZM254.558 17.168C253.69 17.168 252.999 16.8553 252.486 16.23C251.982 15.5953 251.73 14.7087 251.73 13.57C251.73 13.01 251.809 12.506 251.968 12.058C252.136 11.61 252.355 11.232 252.626 10.924C252.897 10.616 253.205 10.378 253.55 10.21C253.905 10.042 254.269 9.958 254.642 9.958C255.034 9.958 255.365 10.028 255.636 10.168C255.907 10.2987 256.177 10.4807 256.448 10.714L256.392 9.608V7.116H258.002V17H256.672L256.56 16.258H256.504C256.252 16.51 255.958 16.7247 255.622 16.902C255.286 17.0793 254.931 17.168 254.558 17.168ZM254.95 15.838C255.463 15.838 255.944 15.5813 256.392 15.068V11.862C256.149 11.6473 255.911 11.498 255.678 11.414C255.454 11.33 255.225 11.288 254.992 11.288C254.544 11.288 254.166 11.484 253.858 11.876C253.55 12.268 253.396 12.828 253.396 13.556C253.396 14.3027 253.527 14.872 253.788 15.264C254.059 15.6467 254.446 15.838 254.95 15.838Z" fill="#83E1FF"/>
<path d="M35.9501 17V7.844H38.8341C39.3381 7.844 39.8048 7.89067 40.2341 7.984C40.6728 8.07733 41.0508 8.236 41.3681 8.46C41.6854 8.684 41.9328 8.978 42.1101 9.342C42.2874 9.69667 42.3761 10.14 42.3761 10.672C42.3761 11.176 42.2874 11.6147 42.1101 11.988C41.9328 12.3613 41.6854 12.674 41.3681 12.926C41.0601 13.1687 40.6914 13.3507 40.2621 13.472C39.8421 13.584 39.3848 13.64 38.8901 13.64H37.5741V17H35.9501ZM37.5741 12.338H38.7641C40.1081 12.338 40.7801 11.7827 40.7801 10.672C40.7801 10.0933 40.6028 9.69667 40.2481 9.482C39.9028 9.258 39.3894 9.146 38.7081 9.146H37.5741V12.338ZM46.4581 17.168C46.0287 17.168 45.6181 17.0887 45.2261 16.93C44.8341 16.7713 44.4841 16.538 44.1761 16.23C43.8774 15.922 43.6394 15.544 43.4621 15.096C43.2847 14.648 43.1961 14.1393 43.1961 13.57C43.1961 13.0007 43.2847 12.492 43.4621 12.044C43.6394 11.596 43.8774 11.218 44.1761 10.91C44.4841 10.602 44.8341 10.3687 45.2261 10.21C45.6181 10.042 46.0287 9.958 46.4581 9.958C46.8874 9.958 47.2981 10.042 47.6901 10.21C48.0914 10.3687 48.4414 10.602 48.7401 10.91C49.0387 11.218 49.2767 11.596 49.4541 12.044C49.6407 12.492 49.7341 13.0007 49.7341 13.57C49.7341 14.1393 49.6407 14.648 49.4541 15.096C49.2767 15.544 49.0387 15.922 48.7401 16.23C48.4414 16.538 48.0914 16.7713 47.6901 16.93C47.2981 17.0887 46.8874 17.168 46.4581 17.168ZM46.4581 15.852C46.9621 15.852 47.3587 15.6467 47.6481 15.236C47.9374 14.816 48.0821 14.2607 48.0821 13.57C48.0821 12.87 47.9374 12.3147 47.6481 11.904C47.3587 11.484 46.9621 11.274 46.4581 11.274C45.9541 11.274 45.5574 11.484 45.2681 11.904C44.9881 12.3147 44.8481 12.87 44.8481 13.57C44.8481 14.2607 44.9881 14.816 45.2681 15.236C45.5574 15.6467 45.9541 15.852 46.4581 15.852ZM54.1417 17.168C53.7123 17.168 53.3017 17.0887 52.9097 16.93C52.5177 16.7713 52.1677 16.538 51.8597 16.23C51.561 15.922 51.323 15.544 51.1457 15.096C50.9683 14.648 50.8797 14.1393 50.8797 13.57C50.8797 13.0007 50.9683 12.492 51.1457 12.044C51.323 11.596 51.561 11.218 51.8597 10.91C52.1677 10.602 52.5177 10.3687 52.9097 10.21C53.3017 10.042 53.7123 9.958 54.1417 9.958C54.571 9.958 54.9817 10.042 55.3737 10.21C55.775 10.3687 56.125 10.602 56.4237 10.91C56.7223 11.218 56.9603 11.596 57.1377 12.044C57.3243 12.492 57.4177 13.0007 57.4177 13.57C57.4177 14.1393 57.3243 14.648 57.1377 15.096C56.9603 15.544 56.7223 15.922 56.4237 16.23C56.125 16.538 55.775 16.7713 55.3737 16.93C54.9817 17.0887 54.571 17.168 54.1417 17.168ZM54.1417 15.852C54.6457 15.852 55.0423 15.6467 55.3317 15.236C55.621 14.816 55.7657 14.2607 55.7657 13.57C55.7657 12.87 55.621 12.3147 55.3317 11.904C55.0423 11.484 54.6457 11.274 54.1417 11.274C53.6377 11.274 53.241 11.484 52.9517 11.904C52.6717 12.3147 52.5317 12.87 52.5317 13.57C52.5317 14.2607 52.6717 14.816 52.9517 15.236C53.241 15.6467 53.6377 15.852 54.1417 15.852ZM59.0113 17V10.126H60.3413L60.4533 11.344H60.5093C60.7519 10.896 61.0459 10.5553 61.3913 10.322C61.7366 10.0793 62.0913 9.958 62.4553 9.958C62.7819 9.958 63.0433 10.0047 63.2393 10.098L62.9593 11.498C62.8379 11.4607 62.7259 11.4327 62.6233 11.414C62.5206 11.3953 62.3946 11.386 62.2453 11.386C61.9746 11.386 61.6899 11.4933 61.3913 11.708C61.0926 11.9133 60.8359 12.2773 60.6213 12.8V17H59.0113Z" fill="#F99FEB"/>
</svg>
