<svg width="100" height="100" viewBox="0 0 200 39" fill="none" xmlns="http://www.w3.org/2000/svg">
<path d="M2.21444 8.53722C3.60171 6.36396 5.43138 4.50742 7.58418 3.0886C9.73697 1.66978 12.1646 0.720523 14.7088 0.302698C25.3211 -1.55742 35.0253 5.33905 36.9118 15.9426C38.7192 26.1294 31.5332 36.2767 21.285 37.8385C13.6427 39.0054 7.44382 36.4127 2.69263 30.3146C2.47766 30.0382 2.30656 29.7311 2.11792 29.4372C2.38114 29.1696 2.71895 29.2266 3.0392 29.2266C4.79403 29.2266 6.57518 29.1784 8.33878 29.2266C9.38879 29.2685 10.4229 28.9598 11.2781 28.3492C11.7914 28.0026 12.2345 27.5332 12.8531 27.3402C13.0894 27.3633 13.3099 27.4689 13.476 27.6385C17.6701 30.6042 22.4432 29.1959 25.0711 25.3134C27.9577 21.0491 27.5717 15.0169 24.0752 11.2265C22.8649 9.85482 21.2133 8.94928 19.406 8.66649C17.5987 8.3837 15.7494 8.74145 14.178 9.67786C13.77 9.91915 13.4234 10.3359 12.8618 10.2613C12.5848 10.1354 12.3216 9.98107 12.0766 9.8007C11.0325 9.08035 9.78667 8.71013 8.51865 8.74342C6.76382 8.80484 4.96951 8.76535 3.19714 8.74342C2.86372 8.77413 2.50837 8.82677 2.21444 8.53722Z" fill="#ED2F26"/>
<path d="M195.689 29.7707V26.7831C195.689 24.5194 195.654 22.2513 195.689 19.9876C195.737 17.5483 193.956 16.7016 191.859 17.2105C190.306 17.5922 189.358 18.7943 188.639 20.1411C188.007 21.2906 187.675 22.5805 187.674 23.892C187.674 25.6469 187.674 27.4017 187.674 29.1565C187.634 29.3989 187.685 29.6475 187.818 29.8541H189.986C190.081 30.3511 190.108 30.8589 190.065 31.3632H183.572C183.449 30.8989 183.434 30.4128 183.528 29.9418C184.313 29.7839 185.09 29.9813 185.822 29.8058C186.077 29.5514 185.985 29.2574 185.985 28.9854C185.985 26.1397 185.985 23.2896 185.985 20.435C185.985 19.1847 185.857 17.93 184.511 17.3641C183.844 17.0632 183.103 16.9685 182.382 17.092C181.661 17.2155 180.994 17.5516 180.466 18.0572C179.662 18.7605 179.017 19.6262 178.572 20.5971C178.127 21.5681 177.893 22.6223 177.886 23.6902C177.825 25.5328 177.864 27.3798 177.864 29.2267C177.864 29.4066 177.895 29.5865 177.912 29.7926C178.79 30.012 179.698 29.7663 180.575 29.9681C180.686 30.4249 180.704 30.8994 180.628 31.3632H173.604C173.42 30.9245 173.578 30.4858 173.495 29.9023H176.092V17.1798C175.609 16.8025 174.973 17.0965 174.39 16.8859C174.329 16.4149 174.337 15.9377 174.412 15.4689H177.798V18.5398C178.444 17.5812 179.278 16.7646 180.251 16.1401C181.053 15.6515 181.969 15.3811 182.908 15.3557C183.846 15.3303 184.776 15.5508 185.603 15.9953C186.511 16.434 187.016 17.1842 187.516 18.6012C187.823 18.4696 187.911 18.1625 188.086 17.9344C189.63 15.9997 191.547 14.9995 194.083 15.5215C195 15.6828 195.83 16.1625 196.427 16.8761C197.024 17.5896 197.35 18.4912 197.347 19.4216C197.347 22.5759 197.347 25.7302 197.347 28.8845C197.297 29.1814 197.335 29.4865 197.457 29.7619C198.22 30.012 199.054 29.7619 199.865 29.933C200.089 30.3717 199.971 30.8412 199.953 31.3544H193.372C193.197 30.9157 193.311 30.477 193.28 29.9813C194.044 29.7268 194.851 29.9988 195.689 29.7707Z" fill="#B9B8B9"/>
<path d="M129.519 29.2795V30.078H126.992V25.4453H129.418C129.549 25.5286 129.58 25.6909 129.641 25.8401C130.387 27.5949 131.835 28.2881 133.678 27.7572C133.945 27.7087 134.188 27.5706 134.367 27.3657C134.545 27.1609 134.649 26.9013 134.66 26.6298C134.698 26.3475 134.634 26.0611 134.482 25.8206C134.33 25.58 134.098 25.4006 133.827 25.3136C132.73 24.8749 131.559 24.774 130.422 24.5196C129.76 24.3843 129.121 24.1507 128.527 23.8264C127.908 23.4821 127.423 22.9398 127.15 22.2866C126.806 21.5727 126.662 20.7791 126.732 19.9899C126.803 19.2007 127.087 18.4454 127.552 17.8043C128.018 17.1632 128.649 16.6602 129.377 16.3486C130.106 16.0371 130.905 15.9287 131.69 16.035C132.573 16.1293 133.414 16.463 134.121 17.0001L134.195 16.3772H136.49V20.7248H134.09C133.476 18.9261 132.3 18.2154 130.664 18.6497C130.347 18.6934 130.056 18.8511 129.847 19.0934C129.638 19.3356 129.524 19.6458 129.527 19.9658C129.492 20.7028 129.966 21.0187 130.572 21.1547C131.686 21.4091 132.813 21.5934 133.928 21.8566C136.999 22.5937 138.354 25.6909 136.814 28.4767C136.082 29.7928 134.84 30.271 133.432 30.3939C132.738 30.4925 132.031 30.4442 131.357 30.2523C130.683 30.0603 130.057 29.7289 129.519 29.2795Z" fill="#ED2F26"/>
<path d="M74.5398 16.3638H80.2693V19.1013C79.949 19.3075 79.5498 19.1013 79.1111 19.2724C79.7736 21.3036 80.4272 23.3436 81.1555 25.5591L83.349 19.189H81.9145V16.3901H87.6484V19.1057C87.2316 19.2899 86.7709 19.1057 86.2796 19.2417L81.9759 30.2708H79.8832L75.8866 19.189H74.5398V16.3638Z" fill="#67675D"/>
<path d="M0.266846 25.8093C2.71044 25.8093 5.15404 25.7347 7.59325 25.84C8.15858 25.8758 8.72474 25.7844 9.25011 25.5726C9.77548 25.3608 10.2467 25.0339 10.6291 24.616C10.923 24.0282 11.4714 23.6465 11.8355 23.1113C12.3379 22.4498 12.6965 21.6907 12.8884 20.8826C13.2836 19.4519 13.3273 17.9468 13.0157 16.4956C13.1263 15.7797 13.3794 15.0932 13.7599 14.4768C14.1404 13.8604 14.6407 13.3266 15.2311 12.9069C15.2778 12.8719 15.3332 12.8505 15.3913 12.8451C15.4494 12.8397 15.5078 12.8505 15.5602 12.8762C16.1217 13.3149 16.306 13.9423 16.5122 14.5477C17.1363 16.2226 17.3606 18.0202 17.1671 19.7972C16.9736 21.5741 16.3678 23.2813 15.3978 24.7827C14.862 25.594 14.2478 26.3508 13.564 27.0421C13.404 27.242 13.1816 27.3826 12.9323 27.4413C12.0822 28.0987 11.1799 28.6856 10.2343 29.1961C9.90107 29.3597 9.535 29.4452 9.16382 29.4462C6.80796 29.4462 4.4565 29.4462 2.10064 29.4462C1.33059 28.3207 0.713897 27.0976 0.266846 25.8093Z" fill="#66675D"/>
<path d="M156.933 20.1499C156.387 20.2199 155.834 20.2199 155.288 20.1499C155.227 20.0841 155.183 20.0035 155.162 19.9159C155.14 19.8283 155.141 19.7367 155.165 19.6498C155.332 18.6057 154.771 18.0485 153.906 17.6449C150.318 15.9691 146.475 17.6449 145.641 21.8126C145.418 22.7444 145.381 23.711 145.531 24.6572C145.682 25.6034 146.017 26.5107 146.519 27.3272C148.559 30.5604 153.178 30.5078 155.389 28.4897C155.416 28.2309 155.437 27.9589 155.468 27.6606C156.032 27.5736 156.604 27.5633 157.17 27.6299C157.27 28.1221 157.291 28.6271 157.232 29.1259C156.275 30.1413 155.063 30.8807 153.722 31.2666C152.381 31.6526 150.962 31.6708 149.611 31.3194C146.677 30.6701 144.834 28.7442 144.106 25.8707C143.377 22.9971 143.768 20.1675 145.799 17.7985C147.506 15.8067 149.747 15.1662 152.279 15.4645C153.204 15.5855 154.098 15.8834 154.911 16.342C156.495 17.1887 157.241 18.0661 156.933 20.1499Z" fill="#B9B8B9"/>
<path d="M10.7256 12.9158C9.89795 12.3061 8.8825 12.0064 7.85645 12.0691C5.3646 12.1305 2.86836 12.0691 0.398438 12.0691C0.836327 10.8047 1.45552 9.61067 2.23662 8.5243C4.37751 8.5243 6.52279 8.58134 8.66367 8.5243C10.3922 8.46727 11.7346 9.21307 13.0507 10.2221C13.0667 10.2913 13.0632 10.3635 13.0408 10.4308C13.0183 10.4982 12.9778 10.558 12.9235 10.6038C12.205 11.3025 11.5475 12.0613 10.9581 12.8719C10.9307 12.9053 10.8923 12.9281 10.8498 12.9361C10.8073 12.9441 10.7633 12.9369 10.7256 12.9158Z" fill="#67675D"/>
<path d="M10.7254 12.9155C11.3643 11.9214 12.133 11.0169 13.0111 10.2262C14.2978 9.20303 15.8506 8.56972 17.4859 8.40119C20.3024 8.19938 22.6012 9.2786 24.4438 11.3405C28.1377 15.5039 28.0763 22.4442 24.3297 26.5637C21.2237 29.9812 16.5032 30.3453 12.9497 27.4411C13.7988 26.6271 14.5632 25.729 15.231 24.7606C15.3336 24.7349 15.4411 24.7351 15.5437 24.7612C15.6462 24.7872 15.7408 24.8382 15.8188 24.9097C17.6658 26.2039 20.2673 25.7169 21.8379 23.6945C24.0577 20.8298 23.8954 16.2804 21.443 13.6043C20.7866 12.8815 19.909 12.3969 18.9476 12.2262C17.9863 12.0555 16.9955 12.2084 16.1303 12.661C15.9451 12.8044 15.7195 12.8857 15.4854 12.8935C14.3077 13.7486 13.4689 14.9912 13.1164 16.4032C13.1796 16.6029 13.1719 16.8183 13.0945 17.013C12.8444 18.3291 13.0067 19.6935 13.033 21.0316C12.6084 22.4433 11.7655 23.6931 10.6158 24.6158C9.68654 22.9244 9.1819 21.0326 9.14522 19.1031C9.10854 17.1735 9.54091 15.264 10.4052 13.5384L10.7254 12.9155Z" fill="#FEFEFE"/>
<path d="M107.123 12.9375C103.385 6.58063 94.896 6.41831 91.0792 12.7225C88.447 17.0482 88.5128 21.58 90.952 25.9583C91.6364 27.1936 92.5996 28.2522 93.7651 29.0498C94.9305 29.8475 96.2659 30.3622 97.6652 30.553C99.0645 30.7438 100.489 30.6055 101.825 30.1491C103.162 29.6926 104.373 28.9306 105.364 27.9237C107.728 25.5942 108.781 22.6987 108.807 19.4084C108.855 17.1372 108.272 14.8972 107.123 12.9375ZM103.486 24.8572C100.555 28.1255 95.8129 27.6342 93.6281 23.8306C92.9905 22.7756 92.6256 21.5785 92.5665 20.3473C92.6279 17.6097 93.0359 15.7233 94.2643 14.0869C94.7795 13.3822 95.445 12.8009 96.2127 12.3851C96.9803 11.9693 97.8308 11.7294 98.7025 11.6828C99.5743 11.6361 100.445 11.784 101.253 12.1156C102.061 12.4472 102.784 12.9542 103.372 13.5999C106.092 16.5173 106.149 21.8915 103.486 24.8572Z" fill="#ED2F26"/>
<path d="M56.8072 12.9289C56.1268 11.7512 55.1744 10.7536 54.0295 10.0194C52.8847 9.28514 51.5807 8.83567 50.2266 8.70853C47.4101 8.38828 44.5804 8.59008 41.7552 8.59008C41.7201 8.59008 41.6806 8.63834 41.6455 8.66905V11.5163H43.5319V27.1518C42.8651 27.2746 42.2158 27.0816 41.6323 27.2746V30.0867C44.2646 30.0867 46.7959 30.1525 49.336 30.0867C53.6529 29.9507 57.2854 26.6516 58.3207 22.4225C58.73 20.8206 58.8068 19.1518 58.5465 17.5191C58.2862 15.8863 57.6943 14.3241 56.8072 12.9289ZM54.074 24.2782C53.6302 25.1471 52.9577 25.8784 52.129 26.3932C51.3002 26.9081 50.3467 27.1871 49.3711 27.2C48.5858 27.2439 47.7962 27.2 46.9714 27.2V11.525C48.045 11.4426 49.1247 11.4897 50.1871 11.6654C51.1105 11.841 51.9761 12.2421 52.707 12.8329C53.438 13.4238 54.0116 14.1862 54.3768 15.0522C55.066 16.5027 55.3982 18.097 55.3456 19.702C55.2929 21.307 54.8569 22.8761 54.074 24.2782Z" fill="#67675D"/>
<path d="M122.947 17.8775C120.859 15.5217 117.985 15.4076 115.677 17.588C115.506 17.7459 115.392 17.996 115.112 18.0574C115.024 17.4695 115.182 16.9124 115.019 16.3903H110.632V19.2068H112.326V33.5174H110.632V36.2681H117.09V33.4648H115.375V28.7882C117.502 30.9817 120.569 30.9817 122.692 28.8628C125.399 26.134 125.526 20.7818 122.947 17.8775ZM121.324 25.6251C121.087 26.2176 120.671 26.721 120.134 27.0642C119.596 27.4074 118.964 27.5731 118.327 27.5379C117.703 27.5533 117.09 27.3723 116.574 27.0204C116.059 26.6686 115.667 26.1636 115.454 25.5768C115.085 24.7917 114.906 23.931 114.93 23.0639C114.954 22.1968 115.182 21.3476 115.594 20.5844C115.837 20.0695 116.225 19.6369 116.711 19.3399C117.196 19.0429 117.758 18.8945 118.327 18.9129C118.903 18.8762 119.477 19.0066 119.981 19.2883C120.484 19.57 120.896 19.9911 121.166 20.501C121.648 21.3525 121.88 22.3225 121.837 23.3C121.857 24.1052 121.681 24.9032 121.324 25.6251Z" fill="#ED2F26"/>
<path d="M65.406 27.2436C64.7907 27.0269 64.2666 26.6088 63.9186 26.057C63.5706 25.5051 63.4192 24.852 63.4889 24.2034H73.0132C73.1076 22.4246 72.7132 20.654 71.8725 19.0836C71.4692 18.3422 70.9124 17.6952 70.2393 17.1858C69.5662 16.6764 68.7923 16.3163 67.9691 16.1295C67.146 15.9427 66.2924 15.9334 65.4654 16.1024C64.6384 16.2714 63.8569 16.6147 63.173 17.1095C61.1374 18.5221 60.4047 20.5972 60.2907 22.9706C60.0582 27.8666 63.6599 31.1481 68.3146 30.2707C70.4511 29.8671 72.3288 28.0771 72.6534 26.103H69.7404C68.5384 27.6779 67.0994 27.849 65.406 27.2436ZM66.6519 18.9082C68.1523 18.9082 70.1046 20.2243 70.008 21.8694H63.4889C63.571 21.0784 63.9364 20.3438 64.5178 19.8012C65.0991 19.2585 65.8571 18.9445 66.6519 18.9169V18.9082Z" fill="#67675D"/>
<path d="M173.266 22.2161C172.828 18.2678 169.757 15.3284 166.036 15.403C163.404 15.4732 161.285 16.4998 159.921 18.7986C158.263 21.5844 158.188 24.5018 159.517 27.4323C160.01 28.5918 160.818 29.5893 161.851 30.3108C162.884 31.0323 164.098 31.4487 165.356 31.5123C166.653 31.6714 167.968 31.453 169.144 30.8834C170.32 30.3138 171.306 29.4172 171.985 28.301C173.127 26.4913 173.581 24.3323 173.266 22.2161ZM169.757 28.358C169.165 28.9358 168.45 29.3711 167.665 29.6305C166.88 29.8899 166.046 29.9667 165.227 29.855C164.408 29.7433 163.625 29.446 162.938 28.9859C162.251 28.5258 161.678 27.9149 161.263 27.1998C160.618 26.046 160.338 24.9054 160.342 22.8391C160.354 21.9205 160.577 21.017 160.993 20.1979C161.409 19.3788 162.007 18.666 162.742 18.1142C163.387 17.6282 164.132 17.2924 164.923 17.1315C165.714 16.9705 166.532 16.9885 167.315 17.184C168.099 17.3796 168.828 17.7478 169.451 18.2617C170.074 18.7756 170.574 19.4222 170.915 20.1542C172.288 22.8917 171.797 26.3575 169.77 28.3756L169.757 28.358Z" fill="#B9B8B9"/>
</svg>
