<svg width="100" height="100" viewBox="0 0 129 31" fill="none" xmlns="http://www.w3.org/2000/svg">
<path d="M127.889 15.1621L126.708 15.4729C125.587 11.7429 123.704 10.1449 121.047 10.1449C119.182 10.1449 117.86 11.3422 117.86 13.2533C117.86 15.0723 119.395 16.0509 123.567 17.6937C127.407 19.0706 129 20.7561 129 23.7033C129 28.1875 125.387 31 119.454 31C116.6 31 113.368 30.3783 111.546 29.668L111.318 23.4374L112.44 23.2152C114.124 27.4783 116.28 29.0912 119.086 29.0912C121.515 29.0912 122.79 27.4484 122.79 25.7606C122.79 24.0729 121.803 23.0966 118.009 21.7657C114.396 20.611 111.923 19.1017 111.923 15.3567C111.923 11.6726 115.246 8.54811 120.895 8.54811C123.567 8.54811 125.995 8.9925 127.589 9.70283L127.889 15.1621ZM103.451 17.1158C103.587 14.1858 102.978 9.95265 100.506 9.95265C97.9713 9.95265 96.5747 13.9049 96.5298 17.2942L103.451 17.1158ZM101.113 8.53199C107.335 8.53199 110.341 12.9724 110.387 18.8035H96.3799C96.3327 23.9692 99.1425 27.8755 104.394 27.8755C106.684 27.8755 108.006 27.2538 109.402 26.2775L110.055 26.9879C108.52 29.0302 105.332 30.9827 101.082 30.9827C94.2524 30.9827 89.517 26.4099 89.517 19.956C89.5017 14.1248 93.387 8.52969 101.113 8.52969V8.53199ZM80.9269 19.3343C80.79 14.7292 79.0616 11.0613 75.7358 11.0613C74.9448 11.0613 74.3392 11.1949 73.3982 11.5057L73.6698 29.2512C74.0039 29.3848 74.7913 29.4734 75.3545 29.4734C78.587 29.4734 80.9246 25.018 80.9246 19.3354L80.9269 19.3343ZM87.8606 18.99C87.8606 26.2867 83.1382 30.9931 75.1266 30.9931C72.2731 30.9931 69.3133 30.5487 66.7491 29.9719C66.9769 27.042 66.9769 8.89579 66.7491 5.47655C66.5212 3.70015 66.0053 2.85628 64.5933 2.67898L63.6523 2.59034V1.77639L73.534 0C73.4868 1.49664 73.397 5.47655 73.397 10.138C75.1278 9.29413 76.7204 8.80599 78.875 8.80599C84.0201 8.80599 87.8476 13.0691 87.8476 18.9889L87.8606 18.99ZM62.7008 15.0263C59.6501 13.0726 56.3727 13.9164 55.7187 15.0263C55.4306 18.4455 55.4908 23.6999 55.7659 26.4076C55.9028 28.184 56.4188 28.9381 57.8296 29.0716L59.6949 29.2489V30.4036H45.7366V29.2489L46.8145 29.0716C48.1651 28.9381 48.6362 28.1852 48.7271 26.4076C49.0612 23.5214 49.1521 17.4681 48.7271 14.1375C48.6362 12.2287 48.1651 11.5172 46.8145 11.3399L45.7366 11.2064V10.4074L55.708 8.54236L55.5711 13.5158C57.9087 8.36506 62.5532 7.74338 65.0726 9.12029L62.7008 15.0263ZM29.9779 19.7925C29.9779 25.2241 31.4808 29.6645 34.5162 29.6645C37.7947 29.6645 38.7357 25.3128 38.7357 19.7925C38.7357 14.2722 37.2788 9.96531 34.1974 9.96531C30.8917 9.96531 29.9779 14.1835 29.9779 19.7925ZM45.7933 19.7038C45.7933 25.9345 41.5738 30.9862 34.0463 30.9862C26.6392 30.9862 22.9061 26.1762 22.9061 19.8708C22.9061 13.6839 27.1256 8.53314 34.6531 8.53314C42.0602 8.53314 45.7933 13.373 45.7933 19.6923V19.7038ZM26.4078 8.97638L24.873 9.42077C23.5672 5.05403 21.2603 2.56846 17.2841 2.56846H12.0929C11.8049 5.46964 11.6679 9.9538 11.8049 14.7949L15.264 14.6176C17.6016 14.6176 18.5874 12.9747 19.16 10.5881H20.4658V20.6824H19.1376C18.5756 18.2417 17.6028 16.5839 15.2416 16.4492L11.7824 16.4032C11.7824 19.9997 11.8297 23.0782 12.0705 24.9432C12.2984 27.6072 13.0575 28.8207 15.061 29.0728L16.9429 29.2501V30.4048H0V29.2501L1.412 29.0728C3.36945 28.808 4.17462 27.6072 4.40248 24.9432C4.78027 20.5914 4.87472 11.2973 4.40248 6.13162C4.17462 3.36859 3.37063 2.26913 1.412 2.04694L0 1.82475V0.627437H26.3747L26.4078 8.97638Z" fill="#33629A"/>
</svg>
