<svg width="100" height="100" viewBox="0 0 129 53" fill="none" xmlns="http://www.w3.org/2000/svg">
<rect width="129" height="52.3818" fill="#323232"/>
<path d="M17.9817 14.0769H24.4323V36.8494H17.9817V14.0769Z" fill="#FFE019"/>
<path d="M32.8252 19.1843H25.8225V14.0762H46.2482V19.1843H39.2758V36.8486H32.8252V19.1843Z" fill="#FFE019"/>
<path d="M109.953 30.0327H104.017C103.86 30.0327 103.733 30.1596 103.733 30.3162V36.2436C103.733 36.4001 103.86 36.527 104.017 36.527H109.953C110.109 36.527 110.236 36.4001 110.236 36.2436V30.3162C110.236 30.1596 110.109 30.0327 109.953 30.0327Z" fill="#FFE019"/>
<path d="M63.4937 15.1002C64.9411 15.7179 66.1752 16.7472 67.0426 18.0604C67.91 19.3735 68.3724 20.9126 68.3724 22.4863C68.3724 24.0601 67.91 25.5991 67.0426 26.9123C66.1752 28.2254 64.9411 29.2548 63.4937 29.8725C61.7944 30.5893 59.9627 30.9383 58.1189 30.8964H54.1433V36.8516H47.6951V14.0763H58.1189C59.9627 14.0334 61.7947 14.3824 63.4937 15.1002ZM60.726 24.958C61.0686 24.6511 61.3373 24.2707 61.5121 23.8452C61.6868 23.4198 61.763 22.9603 61.7351 22.5012C61.762 22.04 61.6854 21.5787 61.5108 21.151C61.3362 20.7233 61.068 20.3401 60.726 20.0296C60.0533 19.444 59.0544 19.1512 57.7292 19.1512H54.1433V25.8195H57.7297C59.0526 25.8198 60.0514 25.5326 60.726 24.958Z" fill="white"/>
<path d="M78.0183 19.5243C79.126 19.1055 80.303 18.9007 81.487 18.9208V24.4849C81.0225 24.4269 80.555 24.3948 80.0869 24.3888C78.9487 24.3219 77.8303 24.7076 76.9752 25.4617C76.2263 26.177 75.8518 27.2728 75.8518 28.7492V36.8465H69.6616V19.2182H75.5587V21.3324C76.2018 20.5202 77.0513 19.8957 78.0183 19.5243Z" fill="white"/>
<path d="M86.8191 35.9705C85.3588 35.2202 84.1335 34.0821 83.2775 32.6812C82.4215 31.2803 81.9679 29.6707 81.9666 28.0289C81.9652 26.3872 82.416 24.7768 83.2696 23.3745C84.1233 21.9721 85.3467 20.832 86.8056 20.0792C88.412 19.3173 90.1676 18.9221 91.9455 18.9221C93.7233 18.9221 95.4789 19.3173 97.0853 20.0792C98.5481 20.7968 99.7787 21.9127 100.636 23.2985C101.289 24.3496 101.716 25.5251 101.89 26.7503C102.065 27.9755 101.982 29.2236 101.649 30.4152C101.315 31.6068 100.737 32.716 99.951 33.6722C99.1654 34.6284 98.1895 35.4107 97.0853 35.9695C95.4838 36.7399 93.7294 37.14 91.9522 37.14C90.175 37.14 88.4206 36.7399 86.8191 35.9695V35.9705ZM94.6031 31.1079C95.3379 30.2452 95.7111 29.1319 95.6447 28.0006C95.7101 26.8842 95.3362 25.7866 94.6031 24.9422C93.8939 24.2342 92.9327 23.8365 91.9306 23.8365C90.9284 23.8365 89.9672 24.2342 89.258 24.9422C88.5249 25.7873 88.1516 26.8857 88.2178 28.0025C88.1514 29.1338 88.5246 30.2471 89.2595 31.1098C89.6081 31.4651 90.0239 31.7473 90.4828 31.9399C90.9416 32.1325 91.4343 32.2317 91.932 32.2317C92.4297 32.2317 92.9223 32.1325 93.3812 31.9399C93.8401 31.7473 94.256 31.4651 94.6045 31.1098L94.6031 31.1079Z" fill="white"/>
</svg>
