<svg width="100" height="100" viewBox="0 0 320 240" fill="none" xmlns="http://www.w3.org/2000/svg">
<path d="M320 0H0V240H320V0Z" fill="white"/>
<g filter="url(#filter0_d)">
<rect x="10" y="95" width="50" height="50" rx="2" fill="#E8471C"/>
</g>
<path d="M42.4317 129.465L47.1357 121.553L51.8367 129.465H42.4317ZM18.1361 129.465L22.8371 121.553L27.5412 129.465H18.1361ZM28.911 111.315L34.0737 120.003L28.911 128.694L23.7514 120.003L28.911 111.315ZM41.0618 111.315L46.2215 120.003L41.0618 128.694L35.8992 120.003L41.0618 111.315ZM53.8945 129.848L47.8146 119.622L41.7528 109.398C41.7167 109.336 41.672 109.279 41.62 109.228C41.4842 109.095 41.3026 109.014 41.1097 109.002C40.9168 108.989 40.7258 109.046 40.573 109.161C40.4767 109.232 40.3992 109.325 40.3467 109.431L34.9849 118.462L29.605 109.398C29.5679 109.337 29.5233 109.28 29.4722 109.228C29.3835 109.142 29.2747 109.077 29.1549 109.039C29.0351 109.001 28.9078 108.992 28.7835 109.012C28.6592 109.032 28.5416 109.08 28.4404 109.153C28.3393 109.226 28.2575 109.321 28.2019 109.431L22.1673 119.619L22.1401 119.666L16.1055 129.845C16.0363 129.962 15.9999 130.095 16 130.23C16.0001 130.365 16.0366 130.497 16.106 130.614C16.1753 130.731 16.275 130.828 16.3951 130.896C16.5152 130.964 16.6515 130.999 16.7904 131H28.911C29.0502 131 29.187 130.965 29.3077 130.897C29.4284 130.83 29.5288 130.733 29.599 130.616L34.9879 121.532L40.3739 130.616C40.444 130.733 40.5444 130.83 40.6651 130.897C40.7858 130.965 40.9226 131 41.0618 131H53.2096C53.3485 130.999 53.4848 130.964 53.6049 130.896C53.725 130.828 53.8247 130.731 53.894 130.614C53.9634 130.497 53.9999 130.365 54 130.23C54.0001 130.095 53.9637 129.962 53.8945 129.845" fill="white"/>
<g filter="url(#filter1_d)">
<path d="M192 45H146C144.894 45 144 45.8937 144 47V93C144 94.1063 144.894 95 146 95H192C193.106 95 194 94.1063 194 93V47C194 45.8937 193.106 45 192 45ZM186.225 59.5938H182.231C179.1 59.5938 178.494 61.0812 178.494 63.2687V68.0875H185.969L184.994 75.6312H178.494V95H170.7V75.6375H164.181V68.0875H170.7V62.525C170.7 56.0687 174.644 52.55 180.406 52.55C183.169 52.55 185.538 52.7563 186.231 52.85V59.5938H186.225Z" fill="#425A93"/>
</g>
<g filter="url(#filter2_d)">
<path d="M285 20H239C237.894 20 237 20.8937 237 22V68C237 69.1063 237.894 70 239 70H285C286.106 70 287 69.1063 287 68V22C287 20.8937 286.106 20 285 20ZM275.456 38.1063C275.475 38.4 275.475 38.7063 275.475 39.0063C275.475 48.1813 268.487 58.75 255.719 58.75C251.781 58.75 248.131 57.6063 245.056 55.6375C245.619 55.7 246.156 55.725 246.731 55.725C249.981 55.725 252.969 54.625 255.35 52.7625C252.3 52.7 249.737 50.7 248.862 47.95C249.931 48.1063 250.894 48.1063 251.994 47.825C250.423 47.5059 249.012 46.653 247.999 45.4111C246.986 44.1693 246.434 42.615 246.438 41.0125V40.925C247.356 41.4437 248.438 41.7625 249.569 41.8062C248.618 41.1725 247.838 40.3138 247.298 39.3064C246.759 38.2991 246.476 37.1741 246.475 36.0312C246.475 34.7375 246.813 33.5562 247.419 32.5312C249.162 34.6771 251.337 36.4321 253.803 37.6823C256.269 38.9324 258.97 39.6497 261.731 39.7875C260.75 35.0688 264.275 31.25 268.513 31.25C270.513 31.25 272.312 32.0875 273.581 33.4375C275.15 33.1438 276.65 32.5562 277.987 31.7687C277.469 33.375 276.381 34.7312 274.938 35.5875C276.338 35.4375 277.688 35.05 278.938 34.5063C277.994 35.8938 276.812 37.125 275.456 38.1063Z" fill="#4DA1EB"/>
</g>
<g filter="url(#filter3_d)">
<path d="M310 104H264C262.894 104 262 104.894 262 106V152C262 153.106 262.894 154 264 154H310C311.106 154 312 153.106 312 152V106C312 104.894 311.106 104 310 104ZM276.831 146.606H269.413V122.744H276.831V146.606ZM273.125 119.481C272.275 119.481 271.443 119.229 270.736 118.757C270.029 118.284 269.478 117.613 269.152 116.827C268.827 116.041 268.742 115.176 268.908 114.342C269.074 113.508 269.483 112.742 270.084 112.141C270.686 111.539 271.452 111.13 272.286 110.964C273.12 110.798 273.985 110.883 274.771 111.209C275.556 111.534 276.228 112.085 276.7 112.792C277.173 113.499 277.425 114.331 277.425 115.181C277.419 117.556 275.494 119.481 273.125 119.481ZM304.606 146.606H297.194V135C297.194 132.231 297.144 128.675 293.338 128.675C289.481 128.675 288.888 131.688 288.888 134.8V146.606H281.481V122.744H288.594V126.006H288.694C289.681 124.131 292.1 122.15 295.713 122.15C303.225 122.15 304.606 127.094 304.606 133.519V146.606Z" fill="#3377B0"/>
</g>
<g filter="url(#filter4_d)">
<rect x="136" y="129" width="50" height="50" rx="2" fill="#DEDFE3"/>
</g>
<rect x="155" y="141" width="12" height="12" rx="1" fill="white"/>
<path d="M166.52 141H155.48C155.214 141 155 141.214 155 141.48V152.52C155 152.785 155.214 153 155.48 153H166.52C166.785 153 167 152.785 167 152.52V141.48C167 141.214 166.785 141 166.52 141ZM158.559 151.226H156.779V145.498H158.559V151.226ZM157.67 144.716C157.466 144.716 157.266 144.655 157.097 144.542C156.927 144.428 156.795 144.267 156.717 144.078C156.638 143.89 156.618 143.682 156.658 143.482C156.698 143.282 156.796 143.098 156.94 142.954C157.085 142.809 157.268 142.711 157.469 142.671C157.669 142.632 157.876 142.652 158.065 142.73C158.254 142.808 158.415 142.94 158.528 143.11C158.641 143.28 158.702 143.479 158.702 143.683C158.7 144.253 158.238 144.716 157.67 144.716ZM165.226 151.226H163.446V148.44C163.446 147.776 163.435 146.922 162.521 146.922C161.596 146.922 161.453 147.645 161.453 148.392V151.226H159.675V145.498H161.382V146.281H161.406C161.643 145.832 162.224 145.356 163.091 145.356C164.894 145.356 165.226 146.542 165.226 148.084V151.226Z" fill="#3377B0"/>
<path d="M142.891 166.12C143.731 166.12 144.371 165.78 144.901 165.17L144.441 164.67C144.021 165.13 143.551 165.38 142.921 165.38C141.681 165.38 140.901 164.35 140.901 162.7C140.901 161.07 141.721 160.06 142.951 160.06C143.511 160.06 143.941 160.29 144.291 160.65L144.751 160.13C144.361 159.7 143.741 159.32 142.941 159.32C141.271 159.32 140.031 160.61 140.031 162.72C140.031 164.86 141.251 166.12 142.891 166.12Z" fill="#3377B0"/>
<path d="M148.004 166.12C148.674 166.12 149.194 165.92 149.614 165.62L149.324 165.09C148.984 165.32 148.574 165.45 148.104 165.45C147.184 165.45 146.574 164.79 146.504 163.79H149.774C149.804 163.63 149.814 163.48 149.814 163.3C149.814 161.9 149.104 161.02 147.864 161.02C146.754 161.02 145.684 161.99 145.684 163.57C145.684 165.18 146.704 166.12 148.004 166.12ZM146.504 163.15C146.604 162.22 147.204 161.68 147.884 161.68C148.624 161.68 149.074 162.19 149.074 163.15H146.504Z" fill="#3377B0"/>
<path d="M151.005 166H151.835V162.88C152.165 162.06 152.655 161.77 153.065 161.77C153.255 161.77 153.365 161.79 153.505 161.83L153.685 161.12C153.535 161.05 153.385 161.02 153.165 161.02C152.625 161.02 152.125 161.41 151.785 162.02H151.755L151.685 161.14H151.005V166Z" fill="#3377B0"/>
<path d="M156.011 166.12C156.341 166.12 156.671 166.03 156.931 165.91L156.761 165.32C156.561 165.41 156.381 165.44 156.201 165.44C155.651 165.44 155.451 165.1 155.451 164.51V161.81H156.771V161.14H155.451V159.58H154.761L154.661 161.14L153.901 161.19V161.81H154.621V164.49C154.621 165.46 154.971 166.12 156.011 166.12Z" fill="#3377B0"/>
<path d="M157.87 166H158.7V161.14H157.87V166ZM158.29 160.14C158.61 160.14 158.84 159.93 158.84 159.6C158.84 159.28 158.61 159.06 158.29 159.06C157.97 159.06 157.74 159.28 157.74 159.6C157.74 159.93 157.97 160.14 158.29 160.14Z" fill="#3377B0"/>
<path d="M160.481 166H161.311V161.81H162.331V161.14H161.311V160.38C161.311 159.76 161.531 159.43 161.991 159.43C162.161 159.43 162.341 159.47 162.531 159.53L162.711 158.92C162.511 158.83 162.201 158.76 161.901 158.76C160.931 158.76 160.481 159.39 160.481 160.38V161.14L159.821 161.19V161.81H160.481V166Z" fill="#3377B0"/>
<path d="M163.26 166H164.09V161.14H163.26V166ZM163.68 160.14C164 160.14 164.23 159.93 164.23 159.6C164.23 159.28 164 159.06 163.68 159.06C163.36 159.06 163.13 159.28 163.13 159.6C163.13 159.93 163.36 160.14 163.68 160.14Z" fill="#3377B0"/>
<path d="M167.651 166.12C168.231 166.12 168.781 165.9 169.221 165.5L168.861 164.97C168.571 165.23 168.171 165.43 167.721 165.43C166.831 165.43 166.231 164.69 166.231 163.58C166.231 162.46 166.871 161.71 167.751 161.71C168.141 161.71 168.451 161.86 168.721 162.11L169.131 161.59C168.791 161.27 168.351 161.02 167.711 161.02C166.461 161.02 165.371 161.95 165.371 163.58C165.371 165.19 166.361 166.12 167.651 166.12Z" fill="#3377B0"/>
<path d="M171.314 166.12C171.924 166.12 172.454 165.81 172.914 165.42H172.944L173.024 166H173.704V163.01C173.704 161.81 173.194 161.02 172.014 161.02C171.234 161.02 170.554 161.35 170.104 161.65L170.424 162.21C170.804 161.96 171.314 161.71 171.874 161.71C172.664 161.71 172.864 162.3 172.874 162.91C170.794 163.14 169.894 163.66 169.894 164.74C169.894 165.62 170.504 166.12 171.314 166.12ZM171.544 165.44C171.074 165.44 170.704 165.23 170.704 164.69C170.704 164.06 171.234 163.69 172.874 163.5V164.82C172.404 165.23 172.014 165.44 171.544 165.44Z" fill="#3377B0"/>
<path d="M176.626 166.12C176.956 166.12 177.286 166.03 177.546 165.91L177.376 165.32C177.176 165.41 176.996 165.44 176.816 165.44C176.266 165.44 176.066 165.1 176.066 164.51V161.81H177.386V161.14H176.066V159.58H175.376L175.276 161.14L174.516 161.19V161.81H175.236V164.49C175.236 165.46 175.586 166.12 176.626 166.12Z" fill="#3377B0"/>
<path d="M180.308 166.12C180.978 166.12 181.498 165.92 181.918 165.62L181.628 165.09C181.288 165.32 180.878 165.45 180.408 165.45C179.488 165.45 178.878 164.79 178.808 163.79H182.078C182.108 163.63 182.118 163.48 182.118 163.3C182.118 161.9 181.408 161.02 180.168 161.02C179.058 161.02 177.988 161.99 177.988 163.57C177.988 165.18 179.008 166.12 180.308 166.12ZM178.808 163.15C178.908 162.22 179.508 161.68 180.188 161.68C180.928 161.68 181.378 162.19 181.378 163.15H178.808Z" fill="#3377B0"/>
<g filter="url(#filter5_d)">
<rect x="219" y="171" width="50" height="50" rx="2" fill="#20BF64"/>
</g>
<path d="M250.261 191.268C250.469 191.268 250.676 191.275 250.88 191.286C250.022 186.761 245.315 183.302 239.634 183.302C233.348 183.302 228.25 187.542 228.25 192.773C228.25 195.624 229.783 198.194 232.184 199.931C232.283 200.001 232.364 200.093 232.419 200.201C232.475 200.309 232.504 200.428 232.504 200.549C232.504 200.634 232.486 200.711 232.465 200.792C232.272 201.506 231.966 202.648 231.952 202.701C231.927 202.792 231.892 202.884 231.892 202.979C231.892 203.186 232.061 203.358 232.272 203.358C232.353 203.358 232.42 203.327 232.49 203.288L234.982 201.85C235.169 201.741 235.369 201.674 235.587 201.674C235.7 201.674 235.812 201.692 235.921 201.724C237.085 202.058 238.34 202.244 239.637 202.244C239.848 202.244 240.055 202.24 240.263 202.23C240.013 201.492 239.88 200.715 239.88 199.91C239.88 195.135 244.527 191.268 250.261 191.268ZM243.43 188.227C244.267 188.227 244.949 188.906 244.949 189.742C244.949 190.579 244.271 191.258 243.43 191.258C242.594 191.258 241.912 190.579 241.912 189.742C241.912 188.906 242.594 188.227 243.43 188.227ZM235.84 191.258C235.004 191.258 234.321 190.579 234.321 189.742C234.321 188.906 235 188.227 235.84 188.227C236.68 188.227 237.359 188.906 237.359 189.742C237.359 190.579 236.677 191.258 235.84 191.258ZM256.47 205.869C258.47 204.42 259.746 202.283 259.746 199.903C259.746 195.543 255.5 192.01 250.258 192.01C245.02 192.01 240.769 195.543 240.769 199.903C240.769 204.262 245.016 207.795 250.258 207.795C251.341 207.795 252.388 207.64 253.355 207.363C253.446 207.335 253.538 207.321 253.633 207.321C253.816 207.321 253.981 207.377 254.136 207.465L256.213 208.66C256.273 208.695 256.329 208.72 256.396 208.72C256.438 208.72 256.479 208.712 256.518 208.696C256.556 208.681 256.591 208.658 256.621 208.628C256.65 208.599 256.674 208.564 256.689 208.525C256.705 208.486 256.713 208.445 256.712 208.403C256.712 208.326 256.681 208.249 256.663 208.171C256.653 208.129 256.396 207.176 256.234 206.579C256.217 206.512 256.203 206.445 256.203 206.378C256.206 206.171 256.312 205.985 256.47 205.869ZM247.101 198.644C246.401 198.644 245.835 198.078 245.835 197.382C245.835 196.686 246.401 196.12 247.101 196.12C247.8 196.12 248.366 196.686 248.366 197.382C248.366 198.078 247.797 198.644 247.101 198.644ZM253.425 198.644C252.726 198.644 252.16 198.078 252.16 197.382C252.16 196.686 252.726 196.12 253.425 196.12C254.125 196.12 254.691 196.686 254.691 197.382C254.689 197.717 254.555 198.037 254.318 198.274C254.081 198.51 253.76 198.643 253.425 198.644Z" fill="white"/>
<path fill-rule="evenodd" clip-rule="evenodd" d="M105 109.5C103.711 109.5 102.667 110.545 102.667 111.833C102.667 113.122 103.711 114.167 105 114.167C106.289 114.167 107.333 113.122 107.333 111.833C107.333 110.545 106.289 109.5 105 109.5ZM100.333 111.833C100.333 109.256 102.423 107.167 105 107.167C107.577 107.167 109.667 109.256 109.667 111.833C109.667 114.411 107.577 116.5 105 116.5C102.423 116.5 100.333 114.411 100.333 111.833Z" fill="#717484"/>
<path fill-rule="evenodd" clip-rule="evenodd" d="M90.9999 117.667C89.7113 117.667 88.6666 118.711 88.6666 120C88.6666 121.289 89.7113 122.333 90.9999 122.333C92.2886 122.333 93.3333 121.289 93.3333 120C93.3333 118.711 92.2886 117.667 90.9999 117.667ZM86.3333 120C86.3333 117.423 88.4226 115.333 90.9999 115.333C93.5772 115.333 95.6666 117.423 95.6666 120C95.6666 122.577 93.5772 124.667 90.9999 124.667C88.4226 124.667 86.3333 122.577 86.3333 120Z" fill="#717484"/>
<path fill-rule="evenodd" clip-rule="evenodd" d="M105 125.833C103.711 125.833 102.667 126.878 102.667 128.167C102.667 129.455 103.711 130.5 105 130.5C106.289 130.5 107.333 129.455 107.333 128.167C107.333 126.878 106.289 125.833 105 125.833ZM100.333 128.167C100.333 125.589 102.423 123.5 105 123.5C107.577 123.5 109.667 125.589 109.667 128.167C109.667 130.744 107.577 132.833 105 132.833C102.423 132.833 100.333 130.744 100.333 128.167Z" fill="#717484"/>
<path fill-rule="evenodd" clip-rule="evenodd" d="M93.0136 121.174C93.338 120.618 94.0523 120.429 94.609 120.754L102.577 125.397C103.134 125.721 103.322 126.436 102.998 126.992C102.674 127.549 101.959 127.737 101.403 127.413L93.4342 122.77C92.8775 122.445 92.6892 121.731 93.0136 121.174Z" fill="#717484"/>
<path fill-rule="evenodd" clip-rule="evenodd" d="M102.986 113.007C103.311 113.563 103.123 114.278 102.566 114.603L94.6096 119.246C94.0531 119.571 93.3387 119.383 93.014 118.826C92.6892 118.27 92.8771 117.555 93.4336 117.231L101.39 112.587C101.947 112.263 102.661 112.45 102.986 113.007Z" fill="#717484"/>
<defs>
<filter id="filter0_d" x="2" y="89" width="66" height="66" filterUnits="userSpaceOnUse" color-interpolation-filters="sRGB">
<feFlood flood-opacity="0" result="BackgroundImageFix"/>
<feColorMatrix in="SourceAlpha" type="matrix" values="0 0 0 0 0 0 0 0 0 0 0 0 0 0 0 0 0 0 127 0"/>
<feOffset dy="2"/>
<feGaussianBlur stdDeviation="4"/>
<feColorMatrix type="matrix" values="0 0 0 0 0 0 0 0 0 0 0 0 0 0 0 0 0 0 0.15 0"/>
<feBlend mode="normal" in2="BackgroundImageFix" result="effect1_dropShadow"/>
<feBlend mode="normal" in="SourceGraphic" in2="effect1_dropShadow" result="shape"/>
</filter>
<filter id="filter1_d" x="136" y="39" width="66" height="66" filterUnits="userSpaceOnUse" color-interpolation-filters="sRGB">
<feFlood flood-opacity="0" result="BackgroundImageFix"/>
<feColorMatrix in="SourceAlpha" type="matrix" values="0 0 0 0 0 0 0 0 0 0 0 0 0 0 0 0 0 0 127 0"/>
<feOffset dy="2"/>
<feGaussianBlur stdDeviation="4"/>
<feColorMatrix type="matrix" values="0 0 0 0 0 0 0 0 0 0 0 0 0 0 0 0 0 0 0.15 0"/>
<feBlend mode="normal" in2="BackgroundImageFix" result="effect1_dropShadow"/>
<feBlend mode="normal" in="SourceGraphic" in2="effect1_dropShadow" result="shape"/>
</filter>
<filter id="filter2_d" x="229" y="14" width="66" height="66" filterUnits="userSpaceOnUse" color-interpolation-filters="sRGB">
<feFlood flood-opacity="0" result="BackgroundImageFix"/>
<feColorMatrix in="SourceAlpha" type="matrix" values="0 0 0 0 0 0 0 0 0 0 0 0 0 0 0 0 0 0 127 0"/>
<feOffset dy="2"/>
<feGaussianBlur stdDeviation="4"/>
<feColorMatrix type="matrix" values="0 0 0 0 0 0 0 0 0 0 0 0 0 0 0 0 0 0 0.15 0"/>
<feBlend mode="normal" in2="BackgroundImageFix" result="effect1_dropShadow"/>
<feBlend mode="normal" in="SourceGraphic" in2="effect1_dropShadow" result="shape"/>
</filter>
<filter id="filter3_d" x="254" y="98" width="66" height="66" filterUnits="userSpaceOnUse" color-interpolation-filters="sRGB">
<feFlood flood-opacity="0" result="BackgroundImageFix"/>
<feColorMatrix in="SourceAlpha" type="matrix" values="0 0 0 0 0 0 0 0 0 0 0 0 0 0 0 0 0 0 127 0"/>
<feOffset dy="2"/>
<feGaussianBlur stdDeviation="4"/>
<feColorMatrix type="matrix" values="0 0 0 0 0 0 0 0 0 0 0 0 0 0 0 0 0 0 0.15 0"/>
<feBlend mode="normal" in2="BackgroundImageFix" result="effect1_dropShadow"/>
<feBlend mode="normal" in="SourceGraphic" in2="effect1_dropShadow" result="shape"/>
</filter>
<filter id="filter4_d" x="128" y="123" width="66" height="66" filterUnits="userSpaceOnUse" color-interpolation-filters="sRGB">
<feFlood flood-opacity="0" result="BackgroundImageFix"/>
<feColorMatrix in="SourceAlpha" type="matrix" values="0 0 0 0 0 0 0 0 0 0 0 0 0 0 0 0 0 0 127 0"/>
<feOffset dy="2"/>
<feGaussianBlur stdDeviation="4"/>
<feColorMatrix type="matrix" values="0 0 0 0 0 0 0 0 0 0 0 0 0 0 0 0 0 0 0.15 0"/>
<feBlend mode="normal" in2="BackgroundImageFix" result="effect1_dropShadow"/>
<feBlend mode="normal" in="SourceGraphic" in2="effect1_dropShadow" result="shape"/>
</filter>
<filter id="filter5_d" x="211" y="165" width="66" height="66" filterUnits="userSpaceOnUse" color-interpolation-filters="sRGB">
<feFlood flood-opacity="0" result="BackgroundImageFix"/>
<feColorMatrix in="SourceAlpha" type="matrix" values="0 0 0 0 0 0 0 0 0 0 0 0 0 0 0 0 0 0 127 0"/>
<feOffset dy="2"/>
<feGaussianBlur stdDeviation="4"/>
<feColorMatrix type="matrix" values="0 0 0 0 0 0 0 0 0 0 0 0 0 0 0 0 0 0 0.15 0"/>
<feBlend mode="normal" in2="BackgroundImageFix" result="effect1_dropShadow"/>
<feBlend mode="normal" in="SourceGraphic" in2="effect1_dropShadow" result="shape"/>
</filter>
</defs>
</svg>
