<svg width="100" height="100" viewBox="0 0 320 240" fill="none" xmlns="http://www.w3.org/2000/svg">
<path d="M320 0H0V240H320V0Z" fill="white"/>
<g filter="url(#filter0_d)">
<path d="M18 27C18 25.3431 19.3431 24 21 24H175C176.657 24 178 25.3431 178 27V54H18V27Z" fill="#ED6A45"/>
</g>
<g filter="url(#filter1_d)">
<path d="M178 112C178 113.657 176.657 115 175 115L21 115C19.3432 115 18 113.657 18 112L18 54L178 54L178 112Z" fill="#F9CE78"/>
</g>
<path d="M82.1788 70H83.1868V62.98H85.5748V62.128H79.8028V62.98H82.1788V70Z" fill="#4B4D58"/>
<path d="M88.3555 70.144C89.7835 70.144 91.0675 69.028 91.0675 67.096C91.0675 65.14 89.7835 64.024 88.3555 64.024C86.9275 64.024 85.6555 65.14 85.6555 67.096C85.6555 69.028 86.9275 70.144 88.3555 70.144ZM88.3555 69.316C87.3595 69.316 86.6875 68.428 86.6875 67.096C86.6875 65.752 87.3595 64.852 88.3555 64.852C89.3635 64.852 90.0355 65.752 90.0355 67.096C90.0355 68.428 89.3635 69.316 88.3555 69.316Z" fill="#4B4D58"/>
<path d="M92.5914 72.46H93.5874V70.492L93.5634 69.472C94.0914 69.892 94.6434 70.144 95.1714 70.144C96.5034 70.144 97.7034 68.98 97.7034 67C97.7034 65.188 96.8874 64.024 95.3874 64.024C94.7154 64.024 94.0554 64.396 93.5274 64.84H93.4914L93.4074 64.168H92.5914V72.46ZM95.0034 69.304C94.6194 69.304 94.1154 69.148 93.5874 68.704V65.656C94.1514 65.128 94.6434 64.864 95.1354 64.864C96.2274 64.864 96.6714 65.716 96.6714 67C96.6714 68.44 95.9634 69.304 95.0034 69.304Z" fill="#4B4D58"/>
<path d="M103.798 66.064C104.746 66.064 105.214 66.688 105.214 67.684C105.214 68.692 104.638 69.364 103.882 69.364C102.922 69.364 102.334 68.572 102.202 67.084C102.682 66.364 103.306 66.064 103.798 66.064ZM103.882 70.144C105.118 70.144 106.15 69.148 106.15 67.684C106.15 66.112 105.298 65.32 103.966 65.32C103.342 65.32 102.658 65.704 102.178 66.304C102.214 63.868 103.126 63.028 104.194 63.028C104.674 63.028 105.154 63.268 105.454 63.64L106.006 63.016C105.586 62.548 104.986 62.2 104.158 62.2C102.634 62.2 101.242 63.388 101.242 66.46C101.242 68.92 102.382 70.144 103.882 70.144Z" fill="#4B4D58"/>
<path d="M108.839 66.952C109.907 66.952 110.627 66.052 110.627 64.456C110.627 62.884 109.907 61.984 108.839 61.984C107.759 61.984 107.051 62.884 107.051 64.456C107.051 66.052 107.759 66.952 108.839 66.952ZM108.839 66.34C108.227 66.34 107.795 65.704 107.795 64.456C107.795 63.208 108.227 62.596 108.839 62.596C109.451 62.596 109.871 63.208 109.871 64.456C109.871 65.704 109.451 66.34 108.839 66.34ZM109.067 70.144H109.739L114.083 61.984H113.411L109.067 70.144ZM114.323 70.144C115.391 70.144 116.111 69.244 116.111 67.648C116.111 66.076 115.391 65.176 114.323 65.176C113.243 65.176 112.535 66.076 112.535 67.648C112.535 69.244 113.243 70.144 114.323 70.144ZM114.323 69.532C113.711 69.532 113.279 68.896 113.279 67.648C113.279 66.4 113.711 65.788 114.323 65.788C114.935 65.788 115.355 66.4 115.355 67.648C115.355 68.896 114.935 69.532 114.323 69.532Z" fill="#4B4D58"/>
<path d="M34.1199 88H38.4399V87.172H36.8679V80.344H36.0999C35.6799 80.596 35.1759 80.788 34.4679 80.908V81.556H35.8719V87.172H34.1199V88Z" fill="#4B4D58"/>
<path d="M41.9687 88.144C43.3727 88.144 44.5007 87.316 44.5007 85.96C44.5007 84.904 43.7687 84.232 42.8447 84.016V83.968C43.6727 83.656 44.2247 83.068 44.2247 82.144C44.2247 80.908 43.2647 80.2 41.9327 80.2C41.0327 80.2 40.3247 80.608 39.7367 81.16L40.2647 81.784C40.7207 81.34 41.2607 81.016 41.8967 81.016C42.7127 81.016 43.2167 81.484 43.2167 82.216C43.2167 83.02 42.6647 83.644 41.0447 83.644V84.4C42.8687 84.4 43.4927 85.012 43.4927 85.924C43.4927 86.776 42.8327 87.316 41.9087 87.316C41.0087 87.316 40.4087 86.896 39.9527 86.416L39.4487 87.064C39.9647 87.628 40.7447 88.144 41.9687 88.144Z" fill="#4B4D58"/>
<path d="M46.3496 85.096L48.1376 82.492C48.3536 82.108 48.5696 81.772 48.7616 81.412H48.8096C48.7856 81.82 48.7496 82.48 48.7496 82.876V85.096H46.3496ZM48.7496 88H49.6856V85.888H50.7296V85.096H49.6856V80.344H48.5816L45.3056 85.228V85.888H48.7496V88Z" fill="#4B4D58"/>
<path d="M51.5464 88H56.4904V87.148H54.1984C53.8024 87.148 53.3344 87.172 52.9144 87.208C54.7744 85.312 56.1184 83.932 56.1184 82.444C56.1184 81.1 55.2304 80.2 53.8144 80.2C52.8304 80.2 52.1464 80.668 51.5104 81.388L52.0744 81.928C52.5064 81.424 53.0584 81.016 53.6944 81.016C54.6664 81.016 55.1464 81.628 55.1464 82.504C55.1464 83.74 53.8264 85.156 51.5464 87.388V88Z" fill="#4B4D58"/>
<path d="M60.0192 88.144C61.5432 88.144 62.4672 86.716 62.4672 84.148C62.4672 81.58 61.5432 80.2 60.0192 80.2C58.4832 80.2 57.5592 81.58 57.5592 84.148C57.5592 86.716 58.4832 88.144 60.0192 88.144ZM60.0192 87.34C59.1312 87.34 58.5312 86.392 58.5312 84.148C58.5312 81.904 59.1312 81.004 60.0192 81.004C60.9072 81.004 61.5072 81.904 61.5072 84.148C61.5072 86.392 60.9072 87.34 60.0192 87.34Z" fill="#4B4D58"/>
<path d="M66.4784 88H71.1344V87.148H67.4864V84.292H70.4624V83.44H67.4864V80.98H71.0144V80.128H66.4784V88Z" fill="#4B4D58"/>
<path d="M72.8066 88H77.2466V87.148H73.8146V80.128H72.8066V88Z" fill="#4B4D58"/>
<path d="M81.2301 88.144C83.2101 88.144 84.6021 86.56 84.6021 84.028C84.6021 81.52 83.2101 79.984 81.2301 79.984C79.2501 79.984 77.8701 81.508 77.8701 84.028C77.8701 86.56 79.2501 88.144 81.2301 88.144ZM81.2301 87.256C79.8261 87.256 78.9141 85.996 78.9141 84.028C78.9141 82.072 79.8261 80.872 81.2301 80.872C82.6341 80.872 83.5581 82.072 83.5581 84.028C83.5581 85.996 82.6341 87.256 81.2301 87.256Z" fill="#4B4D58"/>
<path d="M89.2708 88.144C90.2788 88.144 91.0468 87.736 91.6828 87.004L91.1308 86.404C90.6268 86.956 90.0628 87.256 89.3068 87.256C87.8188 87.256 86.8828 86.02 86.8828 84.04C86.8828 82.084 87.8668 80.872 89.3428 80.872C90.0148 80.872 90.5308 81.148 90.9508 81.58L91.5028 80.956C91.0348 80.44 90.2908 79.984 89.3308 79.984C87.3268 79.984 85.8388 81.532 85.8388 84.064C85.8388 86.632 87.3028 88.144 89.2708 88.144Z" fill="#4B4D58"/>
<path d="M94.5783 88.144C95.9583 88.144 96.7143 87.352 96.7143 86.404C96.7143 85.348 95.8383 84.952 94.9263 84.628C94.1943 84.376 93.6903 84.16 93.6903 83.632C93.6903 83.2 94.0143 82.792 94.7583 82.792C95.2743 82.792 95.6943 82.96 96.1023 83.26L96.5583 82.684C96.1023 82.3 95.4783 82.024 94.7463 82.024C93.4743 82.024 92.7303 82.744 92.7303 83.68C92.7303 84.64 93.5703 85.06 94.4463 85.372C95.1063 85.612 95.7543 85.864 95.7543 86.464C95.7543 86.968 95.3823 87.364 94.6143 87.364C93.8943 87.364 93.3663 87.148 92.8623 86.728L92.4063 87.304C92.9463 87.832 93.7263 88.144 94.5783 88.144Z" fill="#4B4D58"/>
<path d="M100.484 88H101.48V82.168H100.484V88ZM100.988 80.968C101.372 80.968 101.648 80.716 101.648 80.32C101.648 79.936 101.372 79.672 100.988 79.672C100.604 79.672 100.328 79.936 100.328 80.32C100.328 80.716 100.604 80.968 100.988 80.968Z" fill="#4B4D58"/>
<path d="M103.449 88H104.445V83.776C105.021 83.188 105.441 82.888 106.029 82.888C106.797 82.888 107.133 83.344 107.133 84.436V88H108.129V84.304C108.129 82.816 107.577 82.024 106.341 82.024C105.537 82.024 104.937 82.456 104.385 83.008H104.349L104.265 82.168H103.449V88Z" fill="#4B4D58"/>
<path d="M113.914 88.144C115.498 88.144 116.146 87.04 116.146 85.648V80.128H115.138V85.564C115.138 86.776 114.718 87.256 113.854 87.256C113.278 87.256 112.834 87.004 112.498 86.416L111.826 86.872C112.258 87.724 112.966 88.144 113.914 88.144Z" fill="#4B4D58"/>
<path d="M119.523 88.144C120.255 88.144 120.891 87.772 121.443 87.304H121.479L121.575 88H122.391V84.412C122.391 82.972 121.779 82.024 120.363 82.024C119.427 82.024 118.611 82.42 118.071 82.78L118.455 83.452C118.911 83.152 119.523 82.852 120.195 82.852C121.143 82.852 121.383 83.56 121.395 84.292C118.899 84.568 117.819 85.192 117.819 86.488C117.819 87.544 118.551 88.144 119.523 88.144ZM119.799 87.328C119.235 87.328 118.791 87.076 118.791 86.428C118.791 85.672 119.427 85.228 121.395 85V86.584C120.831 87.076 120.363 87.328 119.799 87.328Z" fill="#4B4D58"/>
<path d="M125.486 88H126.65L128.714 82.168H127.73L126.638 85.468C126.458 86.044 126.266 86.632 126.098 87.196H126.05C125.87 86.632 125.69 86.044 125.51 85.468L124.418 82.168H123.386L125.486 88Z" fill="#4B4D58"/>
<path d="M130.949 88.144C131.681 88.144 132.317 87.772 132.869 87.304H132.905L133.001 88H133.817V84.412C133.817 82.972 133.205 82.024 131.789 82.024C130.853 82.024 130.037 82.42 129.497 82.78L129.881 83.452C130.337 83.152 130.949 82.852 131.621 82.852C132.569 82.852 132.809 83.56 132.821 84.292C130.325 84.568 129.245 85.192 129.245 86.488C129.245 87.544 129.977 88.144 130.949 88.144ZM131.225 87.328C130.661 87.328 130.217 87.076 130.217 86.428C130.217 85.672 130.853 85.228 132.821 85V86.584C132.257 87.076 131.789 87.328 131.225 87.328Z" fill="#4B4D58"/>
<path d="M137.176 88.144C138.556 88.144 139.312 87.352 139.312 86.404C139.312 85.348 138.436 84.952 137.524 84.628C136.792 84.376 136.288 84.16 136.288 83.632C136.288 83.2 136.612 82.792 137.356 82.792C137.872 82.792 138.292 82.96 138.7 83.26L139.156 82.684C138.7 82.3 138.076 82.024 137.344 82.024C136.072 82.024 135.328 82.744 135.328 83.68C135.328 84.64 136.168 85.06 137.044 85.372C137.704 85.612 138.352 85.864 138.352 86.464C138.352 86.968 137.98 87.364 137.212 87.364C136.492 87.364 135.964 87.148 135.46 86.728L135.004 87.304C135.544 87.832 136.324 88.144 137.176 88.144Z" fill="#4B4D58"/>
<path d="M142.983 88.144C143.679 88.144 144.339 87.88 144.867 87.4L144.435 86.764C144.087 87.076 143.607 87.316 143.067 87.316C141.999 87.316 141.279 86.428 141.279 85.096C141.279 83.752 142.047 82.852 143.103 82.852C143.571 82.852 143.943 83.032 144.267 83.332L144.759 82.708C144.351 82.324 143.823 82.024 143.055 82.024C141.555 82.024 140.247 83.14 140.247 85.096C140.247 87.028 141.435 88.144 142.983 88.144Z" fill="#4B4D58"/>
<path d="M146.152 88H147.148V84.256C147.544 83.272 148.132 82.924 148.624 82.924C148.852 82.924 148.984 82.948 149.152 82.996L149.368 82.144C149.188 82.06 149.008 82.024 148.744 82.024C148.096 82.024 147.496 82.492 147.088 83.224H147.052L146.968 82.168H146.152V88Z" fill="#4B4D58"/>
<path d="M150.324 88H151.32V82.168H150.324V88ZM150.828 80.968C151.212 80.968 151.488 80.716 151.488 80.32C151.488 79.936 151.212 79.672 150.828 79.672C150.444 79.672 150.168 79.936 150.168 80.32C150.168 80.716 150.444 80.968 150.828 80.968Z" fill="#4B4D58"/>
<path d="M153.289 90.46H154.285V88.492L154.261 87.472C154.789 87.892 155.341 88.144 155.869 88.144C157.201 88.144 158.401 86.98 158.401 85C158.401 83.188 157.585 82.024 156.085 82.024C155.413 82.024 154.753 82.396 154.225 82.84H154.189L154.105 82.168H153.289V90.46ZM155.701 87.304C155.317 87.304 154.813 87.148 154.285 86.704V83.656C154.849 83.128 155.341 82.864 155.833 82.864C156.925 82.864 157.369 83.716 157.369 85C157.369 86.44 156.661 87.304 155.701 87.304Z" fill="#4B4D58"/>
<path d="M161.582 88.144C161.978 88.144 162.374 88.036 162.686 87.892L162.482 87.184C162.242 87.292 162.026 87.328 161.81 87.328C161.15 87.328 160.91 86.92 160.91 86.212V82.972H162.494V82.168H160.91V80.296H160.082L159.962 82.168L159.05 82.228V82.972H159.914V86.188C159.914 87.352 160.334 88.144 161.582 88.144Z" fill="#4B4D58"/>
<path d="M76.4399 45H82.3599V43.864H77.7839V34.504H76.4399V45Z" fill="white"/>
<path d="M84.0932 45H85.4212V37.224H84.0932V45ZM84.7652 35.624C85.2772 35.624 85.6452 35.288 85.6452 34.76C85.6452 34.248 85.2772 33.896 84.7652 33.896C84.2532 33.896 83.8852 34.248 83.8852 34.76C83.8852 35.288 84.2532 35.624 84.7652 35.624Z" fill="white"/>
<path d="M88.0463 45H89.3743V39.368C90.1423 38.584 90.7023 38.184 91.4863 38.184C92.5103 38.184 92.9583 38.792 92.9583 40.248V45H94.2863V40.072C94.2863 38.088 93.5503 37.032 91.9023 37.032C90.8303 37.032 90.0303 37.608 89.2943 38.344H89.2463L89.1343 37.224H88.0463V45Z" fill="white"/>
<path d="M99.4203 48.584C101.836 48.584 103.356 47.336 103.356 45.88C103.356 44.6 102.444 44.024 100.636 44.024H99.1323C98.0923 44.024 97.7723 43.672 97.7723 43.192C97.7723 42.76 97.9803 42.504 98.2683 42.264C98.6203 42.44 99.0363 42.536 99.4203 42.536C101.004 42.536 102.268 41.496 102.268 39.832C102.268 39.176 102.012 38.6 101.644 38.248H103.228V37.224H100.524C100.236 37.112 99.8523 37.032 99.4203 37.032C97.8363 37.032 96.4923 38.104 96.4923 39.8C96.4923 40.728 96.9883 41.48 97.5003 41.896V41.96C97.1003 42.232 96.6523 42.744 96.6523 43.4C96.6523 44.008 96.9563 44.424 97.3403 44.664V44.728C96.6363 45.208 96.2043 45.832 96.2043 46.488C96.2043 47.832 97.5163 48.584 99.4203 48.584ZM99.4203 41.64C98.5243 41.64 97.7723 40.936 97.7723 39.8C97.7723 38.664 98.5083 37.992 99.4203 37.992C100.332 37.992 101.068 38.68 101.068 39.8C101.068 40.936 100.316 41.64 99.4203 41.64ZM99.6123 47.656C98.2043 47.656 97.3563 47.144 97.3563 46.312C97.3563 45.864 97.5963 45.4 98.1563 45C98.4923 45.096 98.8603 45.128 99.1643 45.128H100.492C101.516 45.128 102.06 45.368 102.06 46.088C102.06 46.888 101.084 47.656 99.6123 47.656Z" fill="white"/>
<path d="M107.146 45.192C108.218 45.192 108.986 44.632 109.706 43.784H109.754L109.866 45H110.954V37.224H109.626V42.728C108.906 43.64 108.346 44.04 107.562 44.04C106.538 44.04 106.09 43.416 106.09 41.976V37.224H104.762V42.152C104.762 44.136 105.498 45.192 107.146 45.192Z" fill="white"/>
<path d="M113.578 45H114.906V37.224H113.578V45ZM114.25 35.624C114.762 35.624 115.13 35.288 115.13 34.76C115.13 34.248 114.762 33.896 114.25 33.896C113.738 33.896 113.37 34.248 113.37 34.76C113.37 35.288 113.738 35.624 114.25 35.624Z" fill="white"/>
<path d="M119.563 45.192C121.403 45.192 122.411 44.136 122.411 42.872C122.411 41.464 121.243 40.936 120.027 40.504C119.051 40.168 118.379 39.88 118.379 39.176C118.379 38.6 118.811 38.056 119.803 38.056C120.491 38.056 121.051 38.28 121.595 38.68L122.203 37.912C121.595 37.4 120.763 37.032 119.787 37.032C118.091 37.032 117.099 37.992 117.099 39.24C117.099 40.52 118.219 41.08 119.387 41.496C120.267 41.816 121.131 42.152 121.131 42.952C121.131 43.624 120.635 44.152 119.611 44.152C118.651 44.152 117.947 43.864 117.275 43.304L116.667 44.072C117.387 44.776 118.427 45.192 119.563 45.192Z" fill="white"/>
<path d="M126.369 45.192C126.897 45.192 127.425 45.048 127.841 44.856L127.569 43.912C127.249 44.056 126.961 44.104 126.673 44.104C125.793 44.104 125.473 43.56 125.473 42.616V38.296H127.585V37.224H125.473V34.728H124.369L124.209 37.224L122.993 37.304V38.296H124.145V42.584C124.145 44.136 124.705 45.192 126.369 45.192Z" fill="white"/>
<path d="M65.0625 42.5156C65.0625 42.5844 65.1156 42.6406 65.1797 42.6406H68.0703C68.1344 42.6406 68.1875 42.5844 68.1875 42.5156V41.7656C68.1875 41.6969 68.1344 41.6406 68.0703 41.6406H65.1797C65.1156 41.6406 65.0625 41.6969 65.0625 41.7656V42.5156ZM62.0172 42.6109L65.0172 40.0953C65.0766 40.0453 65.0766 39.9531 65.0172 39.9031L62.0172 37.3891C61.9991 37.3737 61.9769 37.3638 61.9534 37.3606C61.9298 37.3574 61.9058 37.361 61.8843 37.3711C61.8627 37.3811 61.8445 37.3971 61.8318 37.4172C61.8191 37.4373 61.8124 37.4606 61.8125 37.4844V38.4641C61.8125 38.5016 61.8281 38.5359 61.8578 38.5594L63.5734 40L61.8578 41.4406C61.8438 41.4523 61.8326 41.4669 61.8247 41.4833C61.8169 41.4998 61.8127 41.5177 61.8125 41.5359V42.5156C61.8125 42.6219 61.9359 42.6797 62.0172 42.6109ZM70.75 33.75H59.25C58.9734 33.75 58.75 33.9734 58.75 34.25V45.75C58.75 46.0266 58.9734 46.25 59.25 46.25H70.75C71.0266 46.25 71.25 46.0266 71.25 45.75V34.25C71.25 33.9734 71.0266 33.75 70.75 33.75ZM70.125 45.125H59.875V34.875H70.125V45.125Z" fill="white"/>
<path d="M148 96H142V109.351H148V96Z" fill="white"/>
<path d="M48 100.324H49.5653V100.809C49.696 100.613 49.8737 100.454 50.0821 100.345C50.2904 100.235 50.5227 100.18 50.7578 100.184C51.0056 100.163 51.2545 100.211 51.4766 100.323C51.6987 100.435 51.8853 100.606 52.0157 100.818C52.1843 100.614 52.3967 100.452 52.6372 100.342C52.8776 100.232 53.1397 100.178 53.4039 100.184C54.3356 100.184 54.8946 100.762 54.8946 102.169V107.284H53.3107V102.486C53.3107 101.908 53.1244 101.647 52.789 101.647C52.4536 101.647 52.1927 101.908 52.1927 102.486V107.284H50.646V102.486C50.646 101.908 50.4504 101.647 50.1243 101.647C49.7982 101.647 49.5373 101.908 49.5373 102.486V107.284H48V100.324Z" fill="white"/>
<path d="M56.3855 103.79C56.3855 101.47 57.8017 100.184 59.6278 100.184C61.454 100.184 62.7397 101.516 62.7397 103.911C62.7491 104.072 62.7491 104.234 62.7397 104.395H58.1837C58.1836 104.598 58.2244 104.799 58.3037 104.986C58.383 105.173 58.4992 105.342 58.6454 105.483C58.7915 105.624 58.9645 105.734 59.1542 105.806C59.3438 105.879 59.5461 105.912 59.749 105.905C60.404 105.898 61.0462 105.722 61.6124 105.392L62.3018 106.715C61.4855 107.21 60.545 107.462 59.5906 107.442C57.7365 107.433 56.3855 106.119 56.3855 103.79ZM61.044 103.137C60.9509 102.206 60.5968 101.647 59.6278 101.647C58.8266 101.647 58.3607 102.196 58.2582 103.137H61.044Z" fill="white"/>
<path d="M64.1653 100.323H66.0287V101.134C66.2513 100.851 66.5338 100.62 66.856 100.459C67.1782 100.298 67.532 100.21 67.8921 100.202C68.4262 100.144 68.9647 100.259 69.4294 100.528L68.8331 102.392C68.4719 102.055 67.9944 101.871 67.5008 101.879C66.6343 101.879 66.0939 102.541 66.0939 103.575V107.255H64.2305L64.1653 100.323Z" fill="white"/>
<path d="M70.7803 98.3855C70.8063 98.0958 70.9397 97.8263 71.1544 97.6301C71.3691 97.4338 71.6494 97.325 71.9403 97.325C72.2311 97.325 72.5114 97.4338 72.7261 97.6301C72.9408 97.8263 73.0742 98.0958 73.1002 98.3855C73.0742 98.6752 72.9408 98.9447 72.7261 99.141C72.5114 99.3372 72.2311 99.4461 71.9403 99.4461C71.6494 99.4461 71.3691 99.3372 71.1544 99.141C70.9397 98.9447 70.8063 98.6752 70.7803 98.3855ZM70.9852 105.28V100.351H72.8487V104.954C72.8487 105.625 73.212 105.821 73.7058 105.821C74.1579 105.824 74.6056 105.732 75.0195 105.55L74.7121 107.05C74.195 107.277 73.6368 107.394 73.0723 107.395C72.7842 107.434 72.491 107.404 72.2163 107.309C71.9416 107.214 71.6929 107.057 71.4901 106.848C71.2873 106.64 71.136 106.387 71.0483 106.11C70.9607 105.833 70.9391 105.539 70.9852 105.252V105.28Z" fill="white"/>
<path d="M75.6719 103.789C75.633 103.317 75.6952 102.842 75.8543 102.396C76.0134 101.949 76.2657 101.542 76.5946 101.201C76.9234 100.86 77.3211 100.593 77.7612 100.417C78.2014 100.242 78.6738 100.162 79.1472 100.184C79.6532 100.164 80.1566 100.265 80.6164 100.477C81.0763 100.689 81.4795 101.007 81.7932 101.404L80.5354 102.531C80.386 102.28 80.1729 102.073 79.9177 101.931C79.6625 101.788 79.3741 101.716 79.0819 101.721C78.1502 101.721 77.5819 102.587 77.5819 103.789C77.5819 104.991 78.0943 105.867 79.1472 105.867C79.4585 105.85 79.7616 105.761 80.0331 105.607C80.3045 105.454 80.537 105.24 80.7124 104.982L81.8398 106.119C81.5145 106.55 81.0916 106.898 80.6057 107.135C80.1199 107.371 79.5849 107.489 79.0447 107.479C77.1067 107.432 75.6719 106.119 75.6719 103.789Z" fill="white"/>
<path d="M82.4731 103.799C82.4731 101.386 83.9266 100.174 85.7341 100.174C87.5416 100.174 89.0044 101.376 89.0044 103.771C89.0044 106.165 87.5509 107.404 85.7341 107.404C83.9173 107.404 82.4731 106.184 82.4731 103.799ZM87.0758 103.799C87.0758 102.382 86.5633 101.749 85.7248 101.749C84.8863 101.749 84.3831 102.382 84.3831 103.799C84.3831 105.215 84.8956 105.867 85.7248 105.867C86.554 105.867 87.1317 105.187 87.1317 103.799H87.0758Z" fill="white"/>
<path d="M96.1971 108.503H94.4269V107.283C93.4889 107.139 92.6297 106.675 91.9951 105.969L93.1132 104.684C93.5372 105.166 94.0849 105.523 94.6971 105.718V103.323C92.9175 102.652 92.2187 101.935 92.2187 100.528C92.2083 99.9113 92.4292 99.3129 92.8378 98.8507C93.2465 98.3886 93.8134 98.0962 94.4269 98.0311V96.8013H96.2064V98.0498C96.9938 98.1816 97.7149 98.5716 98.2562 99.1585L97.1009 100.472C96.782 100.099 96.3754 99.8108 95.9176 99.6337V101.832C97.6506 102.513 98.3773 103.239 98.3773 104.628C98.4033 105.25 98.1947 105.86 97.7927 106.336C97.3907 106.812 96.8246 107.12 96.2064 107.199L96.1971 108.503ZM94.6877 99.5964C94.503 99.6361 94.3385 99.7406 94.224 99.8909C94.1096 100.041 94.0526 100.228 94.0635 100.416C94.0529 100.619 94.1091 100.821 94.2235 100.989C94.3379 101.157 94.5042 101.283 94.6971 101.348L94.6877 99.5964ZM95.9176 105.718C96.1035 105.646 96.2617 105.518 96.369 105.35C96.4763 105.182 96.5271 104.985 96.5139 104.786C96.5271 104.587 96.4763 104.39 96.369 104.222C96.2617 104.054 96.1035 103.926 95.9176 103.854V105.718Z" fill="white"/>
<path d="M96.1971 108.503H94.4269V107.283C93.4889 107.139 92.6297 106.675 91.9951 105.969L93.1132 104.684C93.5372 105.166 94.0849 105.523 94.6971 105.718V103.323C92.9175 102.652 92.2187 101.935 92.2187 100.528C92.2083 99.9113 92.4292 99.3129 92.8378 98.8507C93.2465 98.3886 93.8134 98.0962 94.4269 98.0311V96.8013H96.2064V98.0498C96.9938 98.1816 97.7149 98.5716 98.2562 99.1585L97.1009 100.472C96.782 100.099 96.3754 99.8108 95.9176 99.6337V101.832C97.6506 102.513 98.3773 103.239 98.3773 104.628C98.4033 105.25 98.1947 105.86 97.7927 106.336C97.3907 106.812 96.8246 107.12 96.2064 107.199L96.1971 108.503ZM94.6877 99.5964C94.503 99.6361 94.3385 99.7406 94.224 99.8909C94.1096 100.041 94.0526 100.228 94.0635 100.416C94.0529 100.619 94.1091 100.821 94.2235 100.989C94.3379 101.157 94.5042 101.283 94.6971 101.348L94.6877 99.5964ZM95.9176 105.718C96.1035 105.646 96.2617 105.518 96.369 105.35C96.4763 105.182 96.5271 104.985 96.5139 104.786C96.5271 104.587 96.4763 104.39 96.369 104.222C96.2617 104.054 96.1035 103.926 95.9176 103.854V105.718Z" fill="white"/>
<path d="M107.723 106.817V107.432H105.859V98.581L107.723 97.7704V101.125C107.964 100.874 108.254 100.675 108.574 100.539C108.894 100.403 109.238 100.333 109.586 100.333C110.928 100.333 111.999 101.423 111.999 103.901C111.999 106.379 110.937 107.572 109.483 107.572C109.154 107.575 108.827 107.509 108.524 107.379C108.221 107.249 107.948 107.058 107.723 106.817ZM110.061 103.957C110.061 102.438 109.67 101.916 108.934 101.916C108.704 101.923 108.477 101.977 108.269 102.075C108.061 102.172 107.875 102.312 107.723 102.485V105.392C107.873 105.576 108.062 105.725 108.276 105.828C108.49 105.931 108.724 105.986 108.962 105.988C109.688 105.988 110.061 105.429 110.061 103.957Z" fill="white"/>
<path d="M113.872 104.767V100.472H115.735V104.516C115.735 105.606 116.098 105.988 116.797 105.988C117.496 105.988 117.925 105.625 117.925 104.562V100.472H119.788V107.432H117.925V106.817C117.697 107.063 117.42 107.258 117.112 107.388C116.803 107.518 116.47 107.581 116.136 107.572C114.682 107.572 113.872 106.631 113.872 104.767Z" fill="white"/>
<path d="M121.605 98.5343C121.631 98.2446 121.764 97.9751 121.979 97.7789C122.194 97.5826 122.474 97.4738 122.765 97.4738C123.056 97.4738 123.336 97.5826 123.551 97.7789C123.765 97.9751 123.899 98.2446 123.925 98.5343C123.899 98.824 123.765 99.0935 123.551 99.2898C123.336 99.4861 123.056 99.5949 122.765 99.5949C122.474 99.5949 122.194 99.4861 121.979 99.2898C121.764 99.0935 121.631 98.824 121.605 98.5343ZM121.81 105.429V100.472H123.673V105.131C123.654 105.248 123.663 105.368 123.7 105.481C123.736 105.594 123.798 105.697 123.882 105.782C123.965 105.866 124.068 105.93 124.18 105.967C124.293 106.005 124.413 106.015 124.531 105.997C124.964 105.993 125.392 105.901 125.788 105.727L125.509 107.283C124.992 107.509 124.433 107.627 123.869 107.628C123.576 107.667 123.278 107.636 122.999 107.538C122.721 107.439 122.47 107.276 122.267 107.061C122.064 106.846 121.915 106.586 121.832 106.302C121.75 106.018 121.735 105.719 121.791 105.429H121.81Z" fill="white"/>
<path d="M127.251 105.429V98.581L129.114 97.7704V105.094C129.114 105.755 129.459 105.96 129.962 105.96C130.401 105.954 130.835 105.862 131.239 105.69L130.959 107.246C130.435 107.471 129.871 107.589 129.301 107.591C129.014 107.623 128.723 107.589 128.451 107.49C128.18 107.392 127.935 107.231 127.736 107.021C127.537 106.812 127.39 106.559 127.306 106.282C127.222 106.006 127.203 105.714 127.251 105.429Z" fill="white"/>
<path d="M132.785 103.985C132.785 101.507 133.838 100.314 135.329 100.314C135.65 100.314 135.968 100.378 136.264 100.503C136.56 100.628 136.828 100.81 137.053 101.041V98.581L138.916 97.7704V107.432H137.053V106.789C136.818 107.035 136.536 107.231 136.224 107.366C135.912 107.5 135.576 107.57 135.236 107.572C133.866 107.572 132.785 106.538 132.785 103.985ZM137.043 105.429V102.531C136.893 102.347 136.704 102.199 136.49 102.098C136.276 101.996 136.041 101.944 135.804 101.944C135.077 101.944 134.695 102.485 134.695 103.976C134.695 105.466 135.105 106.016 135.832 106.016C136.058 106.007 136.28 105.949 136.482 105.848C136.684 105.747 136.863 105.604 137.006 105.429H137.043Z" fill="white"/>
<g filter="url(#filter2_d)">
<path d="M139 132C139 130.343 140.343 129 142 129H296C297.657 129 299 130.343 299 132V159H139V132Z" fill="#ED6A45"/>
</g>
<path d="M178.616 150H179.96V140.64H183.144V139.504H175.448V140.64H178.616V150Z" fill="white"/>
<path d="M186.852 150.192C188.756 150.192 190.468 148.704 190.468 146.128C190.468 143.52 188.756 142.032 186.852 142.032C184.948 142.032 183.252 143.52 183.252 146.128C183.252 148.704 184.948 150.192 186.852 150.192ZM186.852 149.088C185.524 149.088 184.628 147.904 184.628 146.128C184.628 144.336 185.524 143.136 186.852 143.136C188.196 143.136 189.092 144.336 189.092 146.128C189.092 147.904 188.196 149.088 186.852 149.088Z" fill="white"/>
<path d="M192.499 153.28H193.827V150.656L193.795 149.296C194.499 149.856 195.235 150.192 195.939 150.192C197.715 150.192 199.315 148.64 199.315 146C199.315 143.584 198.227 142.032 196.227 142.032C195.331 142.032 194.451 142.528 193.747 143.12H193.699L193.587 142.224H192.499V153.28ZM195.715 149.072C195.203 149.072 194.531 148.864 193.827 148.272V144.208C194.579 143.504 195.235 143.152 195.891 143.152C197.347 143.152 197.939 144.288 197.939 146C197.939 147.92 196.995 149.072 195.715 149.072Z" fill="white"/>
<path d="M208.674 150.192C210.018 150.192 211.042 149.648 211.89 148.672L211.154 147.872C210.482 148.608 209.73 149.008 208.722 149.008C206.738 149.008 205.49 147.36 205.49 144.72C205.49 142.112 206.802 140.496 208.77 140.496C209.666 140.496 210.354 140.864 210.914 141.44L211.65 140.608C211.026 139.92 210.034 139.312 208.754 139.312C206.082 139.312 204.098 141.376 204.098 144.752C204.098 148.176 206.05 150.192 208.674 150.192Z" fill="white"/>
<path d="M216.742 150.192C218.646 150.192 220.358 148.704 220.358 146.128C220.358 143.52 218.646 142.032 216.742 142.032C214.838 142.032 213.142 143.52 213.142 146.128C213.142 148.704 214.838 150.192 216.742 150.192ZM216.742 149.088C215.414 149.088 214.518 147.904 214.518 146.128C214.518 144.336 215.414 143.136 216.742 143.136C218.086 143.136 218.982 144.336 218.982 146.128C218.982 147.904 218.086 149.088 216.742 149.088Z" fill="white"/>
<path d="M222.39 150H223.718V144.368C224.486 143.584 225.046 143.184 225.83 143.184C226.854 143.184 227.302 143.792 227.302 145.248V150H228.63V145.072C228.63 143.088 227.894 142.032 226.246 142.032C225.174 142.032 224.374 142.608 223.638 143.344H223.59L223.478 142.224H222.39V150Z" fill="white"/>
<path d="M233.588 150.192C234.116 150.192 234.644 150.048 235.06 149.856L234.788 148.912C234.468 149.056 234.18 149.104 233.892 149.104C233.012 149.104 232.692 148.56 232.692 147.616V143.296H234.804V142.224H232.692V139.728H231.588L231.428 142.224L230.212 142.304V143.296H231.364V147.584C231.364 149.136 231.924 150.192 233.588 150.192Z" fill="white"/>
<path d="M236.562 150H237.89V145.008C238.418 143.696 239.202 143.232 239.858 143.232C240.162 143.232 240.338 143.264 240.562 143.328L240.85 142.192C240.61 142.08 240.37 142.032 240.018 142.032C239.154 142.032 238.354 142.656 237.81 143.632H237.762L237.65 142.224H236.562V150Z" fill="white"/>
<path d="M242.124 150H243.452V142.224H242.124V150ZM242.797 140.624C243.309 140.624 243.676 140.288 243.676 139.76C243.676 139.248 243.309 138.896 242.797 138.896C242.285 138.896 241.916 139.248 241.916 139.76C241.916 140.288 242.285 140.624 242.797 140.624Z" fill="white"/>
<path d="M249.518 150.192C251.294 150.192 252.894 148.64 252.894 145.984C252.894 143.584 251.806 142.032 249.806 142.032C248.942 142.032 248.078 142.496 247.358 143.104L247.406 141.712V138.608H246.078V150H247.134L247.262 149.2H247.31C247.998 149.824 248.798 150.192 249.518 150.192ZM249.294 149.072C248.782 149.072 248.078 148.864 247.406 148.272V144.208C248.142 143.504 248.814 143.152 249.47 143.152C250.926 143.152 251.518 144.288 251.518 146C251.518 147.92 250.574 149.072 249.294 149.072Z" fill="white"/>
<path d="M257.209 150.192C258.281 150.192 259.049 149.632 259.769 148.784H259.817L259.929 150H261.017V142.224H259.689V147.728C258.969 148.64 258.409 149.04 257.625 149.04C256.601 149.04 256.153 148.416 256.153 146.976V142.224H254.825V147.152C254.825 149.136 255.561 150.192 257.209 150.192Z" fill="white"/>
<path d="M266.088 150.192C266.616 150.192 267.144 150.048 267.56 149.856L267.288 148.912C266.968 149.056 266.68 149.104 266.392 149.104C265.512 149.104 265.192 148.56 265.192 147.616V143.296H267.304V142.224H265.192V139.728H264.088L263.928 142.224L262.712 142.304V143.296H263.864V147.584C263.864 149.136 264.424 150.192 266.088 150.192Z" fill="white"/>
<path d="M271.867 150.192C273.771 150.192 275.483 148.704 275.483 146.128C275.483 143.52 273.771 142.032 271.867 142.032C269.963 142.032 268.267 143.52 268.267 146.128C268.267 148.704 269.963 150.192 271.867 150.192ZM271.867 149.088C270.539 149.088 269.643 147.904 269.643 146.128C269.643 144.336 270.539 143.136 271.867 143.136C273.211 143.136 274.107 144.336 274.107 146.128C274.107 147.904 273.211 149.088 271.867 149.088Z" fill="white"/>
<path d="M277.515 150H278.843V145.008C279.371 143.696 280.155 143.232 280.811 143.232C281.115 143.232 281.291 143.264 281.515 143.328L281.803 142.192C281.563 142.08 281.323 142.032 280.971 142.032C280.107 142.032 279.307 142.656 278.763 143.632H278.715L278.603 142.224H277.515V150Z" fill="white"/>
<path d="M171.056 141.32L168.016 143.194L165.1 139.305C165.088 139.289 165.073 139.276 165.056 139.267C165.038 139.259 165.019 139.254 164.999 139.254C164.98 139.254 164.96 139.259 164.943 139.267C164.925 139.276 164.91 139.289 164.899 139.305L161.984 143.194L158.942 141.32C158.853 141.266 158.738 141.339 158.752 141.444L159.945 150.516C159.963 150.639 160.069 150.734 160.195 150.734H169.806C169.931 150.734 170.039 150.641 170.055 150.516L171.249 141.444C171.261 141.339 171.147 141.266 171.056 141.32ZM169.088 149.666H160.911L160.07 143.269L162.255 144.614L165 140.951L167.745 144.614L169.93 143.269L169.088 149.666ZM165 144.953C164.03 144.953 163.241 145.742 163.241 146.712C163.241 147.683 164.03 148.472 165 148.472C165.97 148.472 166.759 147.683 166.759 146.712C166.759 145.742 165.97 144.953 165 144.953ZM165 147.467C164.584 147.467 164.247 147.13 164.247 146.712C164.247 146.297 164.584 145.958 165 145.958C165.416 145.958 165.753 146.295 165.753 146.712C165.753 147.128 165.416 147.467 165 147.467Z" fill="white"/>
<g filter="url(#filter3_d)">
<path d="M299 217C299 218.657 297.657 220 296 220L142 220C140.343 220 139 218.657 139 217L139 159L299 159L299 217Z" fill="#DEDFE3"/>
</g>
<path d="M208.13 175V167.968H205.754V167.128H211.514V167.968H209.138V175H208.13Z" fill="#4B4D58"/>
<path d="M214.307 175.144C213.947 175.144 213.603 175.076 213.275 174.94C212.955 174.804 212.671 174.608 212.423 174.352C212.175 174.088 211.975 173.768 211.823 173.392C211.679 173.008 211.607 172.576 211.607 172.096C211.607 171.608 211.679 171.176 211.823 170.8C211.975 170.416 212.175 170.092 212.423 169.828C212.671 169.564 212.955 169.364 213.275 169.228C213.603 169.092 213.947 169.024 214.307 169.024C214.667 169.024 215.007 169.092 215.327 169.228C215.655 169.364 215.943 169.564 216.191 169.828C216.439 170.092 216.635 170.416 216.779 170.8C216.931 171.176 217.007 171.608 217.007 172.096C217.007 172.576 216.931 173.008 216.779 173.392C216.635 173.768 216.439 174.088 216.191 174.352C215.943 174.608 215.655 174.804 215.327 174.94C215.007 175.076 214.667 175.144 214.307 175.144ZM214.307 174.328C214.555 174.328 214.783 174.276 214.991 174.172C215.199 174.06 215.375 173.908 215.519 173.716C215.671 173.516 215.787 173.28 215.867 173.008C215.947 172.736 215.987 172.432 215.987 172.096C215.987 171.76 215.947 171.456 215.867 171.184C215.787 170.904 215.671 170.664 215.519 170.464C215.375 170.264 215.199 170.112 214.991 170.008C214.783 169.896 214.555 169.84 214.307 169.84C214.059 169.84 213.831 169.896 213.623 170.008C213.415 170.112 213.235 170.264 213.083 170.464C212.939 170.664 212.827 170.904 212.747 171.184C212.667 171.456 212.627 171.76 212.627 172.096C212.627 172.432 212.667 172.736 212.747 173.008C212.827 173.28 212.939 173.516 213.083 173.716C213.235 173.908 213.415 174.06 213.623 174.172C213.831 174.276 214.059 174.328 214.307 174.328Z" fill="#4B4D58"/>
<path d="M218.543 177.46V169.168H219.359L219.443 169.84H219.479C219.743 169.616 220.031 169.424 220.343 169.264C220.663 169.104 220.995 169.024 221.339 169.024C221.715 169.024 222.047 169.096 222.335 169.24C222.623 169.376 222.863 169.576 223.055 169.84C223.247 170.096 223.391 170.408 223.487 170.776C223.591 171.136 223.643 171.544 223.643 172C223.643 172.496 223.575 172.94 223.439 173.332C223.303 173.716 223.119 174.044 222.887 174.316C222.655 174.588 222.387 174.796 222.083 174.94C221.779 175.076 221.459 175.144 221.123 175.144C220.851 175.144 220.579 175.084 220.307 174.964C220.043 174.844 219.775 174.68 219.503 174.472L219.527 175.492V177.46H218.543ZM220.955 174.316C221.195 174.316 221.415 174.264 221.615 174.16C221.823 174.048 221.999 173.896 222.143 173.704C222.295 173.504 222.411 173.26 222.491 172.972C222.579 172.684 222.623 172.36 222.623 172C222.623 171.68 222.595 171.388 222.539 171.124C222.483 170.86 222.391 170.636 222.263 170.452C222.143 170.26 221.983 170.112 221.783 170.008C221.591 169.904 221.359 169.852 221.087 169.852C220.839 169.852 220.587 169.92 220.331 170.056C220.083 170.192 219.815 170.388 219.527 170.644V173.704C219.791 173.928 220.047 174.088 220.295 174.184C220.543 174.272 220.763 174.316 220.955 174.316Z" fill="#4B4D58"/>
<path d="M228.741 175C228.773 174.28 228.837 173.62 228.933 173.02C229.029 172.42 229.161 171.852 229.329 171.316C229.505 170.772 229.725 170.248 229.989 169.744C230.261 169.24 230.585 168.724 230.961 168.196H227.145V167.344H232.077V167.956C231.621 168.532 231.249 169.084 230.961 169.612C230.681 170.14 230.457 170.68 230.289 171.232C230.121 171.776 229.997 172.356 229.917 172.972C229.845 173.58 229.793 174.256 229.761 175H228.741Z" fill="#4B4D58"/>
<path d="M197.067 193L199.359 188.932L197.223 185.128H198.327L199.395 187.144C199.499 187.328 199.595 187.508 199.683 187.684C199.779 187.852 199.887 188.052 200.007 188.284H200.055C200.167 188.052 200.263 187.852 200.343 187.684C200.431 187.508 200.523 187.328 200.619 187.144L201.663 185.128H202.719L200.571 188.98L202.863 193H201.759L200.607 190.876C200.503 190.684 200.395 190.488 200.283 190.288C200.179 190.08 200.063 189.856 199.935 189.616H199.887C199.775 189.856 199.667 190.08 199.563 190.288C199.459 190.488 199.359 190.684 199.263 190.876L198.123 193H197.067Z" fill="#4B4D58"/>
<path d="M206.521 193V185.128H208.765C209.205 185.128 209.605 185.168 209.965 185.248C210.333 185.328 210.645 185.46 210.901 185.644C211.157 185.82 211.357 186.056 211.501 186.352C211.645 186.648 211.717 187.012 211.717 187.444C211.717 187.86 211.645 188.22 211.501 188.524C211.365 188.828 211.169 189.08 210.913 189.28C210.657 189.48 210.349 189.632 209.989 189.736C209.637 189.832 209.245 189.88 208.813 189.88H207.517V193H206.521ZM207.517 189.064H208.693C209.381 189.064 209.889 188.936 210.217 188.68C210.553 188.416 210.721 188.004 210.721 187.444C210.721 186.876 210.545 186.484 210.193 186.268C209.849 186.044 209.333 185.932 208.645 185.932H207.517V189.064Z" fill="#4B4D58"/>
<path d="M213.222 193V187.168H214.038L214.122 188.224H214.158C214.358 187.856 214.598 187.564 214.878 187.348C215.166 187.132 215.478 187.024 215.814 187.024C216.046 187.024 216.254 187.064 216.438 187.144L216.246 188.008C216.15 187.976 216.062 187.952 215.982 187.936C215.902 187.92 215.802 187.912 215.682 187.912C215.434 187.912 215.174 188.012 214.902 188.212C214.638 188.412 214.406 188.76 214.206 189.256V193H213.222Z" fill="#4B4D58"/>
<path d="M219.533 193.144C219.173 193.144 218.829 193.076 218.501 192.94C218.181 192.804 217.897 192.608 217.649 192.352C217.401 192.088 217.201 191.768 217.049 191.392C216.905 191.008 216.833 190.576 216.833 190.096C216.833 189.608 216.905 189.176 217.049 188.8C217.201 188.416 217.401 188.092 217.649 187.828C217.897 187.564 218.181 187.364 218.501 187.228C218.829 187.092 219.173 187.024 219.533 187.024C219.893 187.024 220.233 187.092 220.553 187.228C220.881 187.364 221.169 187.564 221.417 187.828C221.665 188.092 221.861 188.416 222.005 188.8C222.157 189.176 222.233 189.608 222.233 190.096C222.233 190.576 222.157 191.008 222.005 191.392C221.861 191.768 221.665 192.088 221.417 192.352C221.169 192.608 220.881 192.804 220.553 192.94C220.233 193.076 219.893 193.144 219.533 193.144ZM219.533 192.328C219.781 192.328 220.009 192.276 220.217 192.172C220.425 192.06 220.601 191.908 220.745 191.716C220.897 191.516 221.013 191.28 221.093 191.008C221.173 190.736 221.213 190.432 221.213 190.096C221.213 189.76 221.173 189.456 221.093 189.184C221.013 188.904 220.897 188.664 220.745 188.464C220.601 188.264 220.425 188.112 220.217 188.008C220.009 187.896 219.781 187.84 219.533 187.84C219.285 187.84 219.057 187.896 218.849 188.008C218.641 188.112 218.461 188.264 218.309 188.464C218.165 188.664 218.053 188.904 217.973 189.184C217.893 189.456 217.853 189.76 217.853 190.096C217.853 190.432 217.893 190.736 217.973 191.008C218.053 191.28 218.165 191.516 218.309 191.716C218.461 191.908 218.641 192.06 218.849 192.172C219.057 192.276 219.285 192.328 219.533 192.328Z" fill="#4B4D58"/>
<path d="M223.169 195.604C222.985 195.604 222.821 195.588 222.677 195.556C222.533 195.524 222.409 195.488 222.305 195.448L222.509 194.704C222.581 194.728 222.665 194.748 222.761 194.764C222.857 194.788 222.957 194.8 223.061 194.8C223.349 194.8 223.541 194.7 223.637 194.5C223.733 194.3 223.781 194.02 223.781 193.66V187.168H224.765V193.66C224.765 194.252 224.645 194.724 224.405 195.076C224.165 195.428 223.753 195.604 223.169 195.604ZM224.285 185.968C224.093 185.968 223.929 185.908 223.793 185.788C223.665 185.668 223.601 185.516 223.601 185.332C223.601 185.14 223.665 184.988 223.793 184.876C223.929 184.756 224.093 184.696 224.285 184.696C224.469 184.696 224.625 184.756 224.753 184.876C224.889 184.988 224.957 185.14 224.957 185.332C224.957 185.516 224.889 185.668 224.753 185.788C224.625 185.908 224.469 185.968 224.285 185.968Z" fill="#4B4D58"/>
<path d="M229.098 193.144C228.706 193.144 228.338 193.076 227.994 192.94C227.658 192.796 227.362 192.596 227.106 192.34C226.858 192.076 226.662 191.756 226.518 191.38C226.374 191.004 226.302 190.576 226.302 190.096C226.302 189.616 226.374 189.188 226.518 188.812C226.67 188.428 226.866 188.104 227.106 187.84C227.354 187.576 227.634 187.376 227.946 187.24C228.258 187.096 228.582 187.024 228.918 187.024C229.286 187.024 229.614 187.088 229.902 187.216C230.198 187.344 230.442 187.528 230.634 187.768C230.834 188.008 230.986 188.296 231.09 188.632C231.194 188.968 231.246 189.344 231.246 189.76C231.246 189.864 231.242 189.968 231.234 190.072C231.234 190.168 231.226 190.252 231.21 190.324H227.274C227.314 190.948 227.506 191.444 227.85 191.812C228.202 192.172 228.658 192.352 229.218 192.352C229.498 192.352 229.754 192.312 229.986 192.232C230.226 192.144 230.454 192.032 230.67 191.896L231.018 192.544C230.762 192.704 230.478 192.844 230.166 192.964C229.854 193.084 229.498 193.144 229.098 193.144ZM227.262 189.616H230.382C230.382 189.024 230.254 188.576 229.998 188.272C229.75 187.96 229.398 187.804 228.942 187.804C228.734 187.804 228.534 187.844 228.342 187.924C228.158 188.004 227.99 188.124 227.838 188.284C227.686 188.436 227.558 188.624 227.454 188.848C227.358 189.072 227.294 189.328 227.262 189.616Z" fill="#4B4D58"/>
<path d="M234.991 193.144C234.607 193.144 234.247 193.076 233.911 192.94C233.575 192.804 233.283 192.608 233.035 192.352C232.795 192.088 232.603 191.768 232.459 191.392C232.323 191.008 232.255 190.576 232.255 190.096C232.255 189.608 232.331 189.176 232.483 188.8C232.635 188.416 232.839 188.092 233.095 187.828C233.351 187.564 233.647 187.364 233.983 187.228C234.327 187.092 234.687 187.024 235.063 187.024C235.447 187.024 235.775 187.092 236.047 187.228C236.319 187.364 236.559 187.524 236.767 187.708L236.263 188.356C236.095 188.204 235.915 188.08 235.723 187.984C235.539 187.888 235.331 187.84 235.099 187.84C234.835 187.84 234.591 187.896 234.367 188.008C234.143 188.112 233.951 188.264 233.791 188.464C233.631 188.664 233.503 188.904 233.407 189.184C233.319 189.456 233.275 189.76 233.275 190.096C233.275 190.432 233.319 190.736 233.407 191.008C233.495 191.28 233.615 191.516 233.767 191.716C233.927 191.908 234.119 192.06 234.343 192.172C234.567 192.276 234.811 192.328 235.075 192.328C235.347 192.328 235.595 192.272 235.819 192.16C236.051 192.04 236.259 191.9 236.443 191.74L236.875 192.4C236.611 192.632 236.319 192.816 235.999 192.952C235.679 193.08 235.343 193.144 234.991 193.144Z" fill="#4B4D58"/>
<path d="M239.879 193.144C239.567 193.144 239.303 193.096 239.087 193C238.879 192.904 238.707 192.772 238.571 192.604C238.443 192.436 238.351 192.232 238.295 191.992C238.239 191.752 238.211 191.488 238.211 191.2V187.972H237.347V187.228L238.259 187.168L238.379 185.536H239.207V187.168H240.779V187.972H239.207V191.212C239.207 191.572 239.271 191.852 239.399 192.052C239.535 192.244 239.771 192.34 240.107 192.34C240.211 192.34 240.323 192.324 240.443 192.292C240.563 192.26 240.671 192.224 240.767 192.184L240.959 192.928C240.799 192.984 240.623 193.032 240.431 193.072C240.247 193.12 240.063 193.144 239.879 193.144Z" fill="#4B4D58"/>
<path d="M269 201H263V214.351H269V201Z" fill="#4B4D58"/>
<path d="M169 205.324H170.565V205.809C170.696 205.613 170.874 205.454 171.082 205.345C171.29 205.235 171.523 205.18 171.758 205.184C172.006 205.163 172.254 205.211 172.477 205.323C172.699 205.435 172.885 205.606 173.016 205.818C173.184 205.614 173.397 205.452 173.637 205.342C173.878 205.232 174.14 205.178 174.404 205.184C175.336 205.184 175.895 205.762 175.895 207.169V212.284H174.311V207.486C174.311 206.908 174.124 206.647 173.789 206.647C173.454 206.647 173.193 206.908 173.193 207.486V212.284H171.646V207.486C171.646 206.908 171.45 206.647 171.124 206.647C170.798 206.647 170.537 206.908 170.537 207.486V212.284H169V205.324Z" fill="#4B4D58"/>
<path d="M177.385 208.79C177.385 206.47 178.802 205.184 180.628 205.184C182.454 205.184 183.74 206.516 183.74 208.911C183.749 209.072 183.749 209.234 183.74 209.395H179.184C179.184 209.598 179.224 209.799 179.304 209.986C179.383 210.173 179.499 210.342 179.645 210.483C179.791 210.624 179.965 210.734 180.154 210.806C180.344 210.879 180.546 210.912 180.749 210.905C181.404 210.898 182.046 210.722 182.612 210.392L183.302 211.715C182.486 212.21 181.545 212.462 180.591 212.442C178.736 212.433 177.385 211.119 177.385 208.79ZM182.044 208.137C181.951 207.206 181.597 206.647 180.628 206.647C179.827 206.647 179.361 207.196 179.258 208.137H182.044Z" fill="#4B4D58"/>
<path d="M185.165 205.323H187.029V206.134C187.251 205.851 187.534 205.62 187.856 205.459C188.178 205.298 188.532 205.21 188.892 205.202C189.426 205.144 189.965 205.259 190.429 205.528L189.833 207.392C189.472 207.055 188.994 206.871 188.501 206.879C187.634 206.879 187.094 207.541 187.094 208.575V212.255H185.231L185.165 205.323Z" fill="#4B4D58"/>
<path d="M191.78 203.386C191.806 203.096 191.94 202.826 192.154 202.63C192.369 202.434 192.649 202.325 192.94 202.325C193.231 202.325 193.511 202.434 193.726 202.63C193.941 202.826 194.074 203.096 194.1 203.386C194.074 203.675 193.941 203.945 193.726 204.141C193.511 204.337 193.231 204.446 192.94 204.446C192.649 204.446 192.369 204.337 192.154 204.141C191.94 203.945 191.806 203.675 191.78 203.386ZM191.985 210.28V205.351H193.849V209.954C193.849 210.625 194.212 210.821 194.706 210.821C195.158 210.824 195.606 210.732 196.02 210.55L195.712 212.05C195.195 212.277 194.637 212.394 194.072 212.395C193.784 212.434 193.491 212.404 193.216 212.309C192.942 212.214 192.693 212.057 192.49 211.848C192.287 211.64 192.136 211.387 192.048 211.11C191.961 210.833 191.939 210.539 191.985 210.252V210.28Z" fill="#4B4D58"/>
<path d="M196.672 208.789C196.633 208.317 196.695 207.842 196.854 207.396C197.013 206.949 197.266 206.542 197.595 206.201C197.923 205.86 198.321 205.593 198.761 205.417C199.201 205.242 199.674 205.162 200.147 205.184C200.653 205.164 201.157 205.265 201.616 205.477C202.076 205.689 202.479 206.007 202.793 206.404L201.535 207.531C201.386 207.28 201.173 207.073 200.918 206.931C200.662 206.788 200.374 206.716 200.082 206.721C199.15 206.721 198.582 207.587 198.582 208.789C198.582 209.991 199.094 210.867 200.147 210.867C200.458 210.85 200.762 210.761 201.033 210.607C201.305 210.454 201.537 210.24 201.712 209.982L202.84 211.119C202.514 211.55 202.092 211.898 201.606 212.135C201.12 212.371 200.585 212.489 200.045 212.479C198.107 212.432 196.672 211.119 196.672 208.789Z" fill="#4B4D58"/>
<path d="M203.473 208.799C203.473 206.386 204.927 205.174 206.734 205.174C208.542 205.174 210.004 206.376 210.004 208.771C210.004 211.165 208.551 212.404 206.734 212.404C204.917 212.404 203.473 211.184 203.473 208.799ZM208.076 208.799C208.076 207.382 207.563 206.749 206.725 206.749C205.886 206.749 205.383 207.382 205.383 208.799C205.383 210.215 205.896 210.867 206.725 210.867C207.554 210.867 208.132 210.187 208.132 208.799H208.076Z" fill="#4B4D58"/>
<path d="M217.197 213.503H215.427V212.283C214.489 212.139 213.63 211.675 212.995 210.969L214.113 209.684C214.537 210.166 215.085 210.523 215.697 210.718V208.323C213.918 207.652 213.219 206.935 213.219 205.528C213.208 204.911 213.429 204.313 213.838 203.851C214.247 203.389 214.813 203.096 215.427 203.031V201.801H217.206V203.05C217.994 203.182 218.715 203.572 219.256 204.158L218.101 205.472C217.782 205.099 217.375 204.811 216.918 204.634V206.832C218.651 207.513 219.377 208.239 219.377 209.628C219.403 210.25 219.195 210.86 218.793 211.336C218.391 211.812 217.825 212.12 217.206 212.199L217.197 213.503ZM215.688 204.596C215.503 204.636 215.339 204.741 215.224 204.891C215.11 205.041 215.053 205.228 215.064 205.416C215.053 205.619 215.109 205.821 215.223 205.989C215.338 206.157 215.504 206.283 215.697 206.348L215.688 204.596ZM216.918 210.718C217.103 210.646 217.262 210.518 217.369 210.35C217.476 210.182 217.527 209.985 217.514 209.786C217.527 209.587 217.476 209.39 217.369 209.222C217.262 209.054 217.103 208.926 216.918 208.854V210.718Z" fill="#4B4D58"/>
<path d="M217.197 213.503H215.427V212.283C214.489 212.139 213.63 211.675 212.995 210.969L214.113 209.684C214.537 210.166 215.085 210.523 215.697 210.718V208.323C213.918 207.652 213.219 206.935 213.219 205.528C213.208 204.911 213.429 204.313 213.838 203.851C214.247 203.389 214.813 203.096 215.427 203.031V201.801H217.206V203.05C217.994 203.182 218.715 203.572 219.256 204.158L218.101 205.472C217.782 205.099 217.375 204.811 216.918 204.634V206.832C218.651 207.513 219.377 208.239 219.377 209.628C219.403 210.25 219.195 210.86 218.793 211.336C218.391 211.812 217.825 212.12 217.206 212.199L217.197 213.503ZM215.688 204.596C215.503 204.636 215.339 204.741 215.224 204.891C215.11 205.041 215.053 205.228 215.064 205.416C215.053 205.619 215.109 205.821 215.223 205.989C215.338 206.157 215.504 206.283 215.697 206.348L215.688 204.596ZM216.918 210.718C217.103 210.646 217.262 210.518 217.369 210.35C217.476 210.182 217.527 209.985 217.514 209.786C217.527 209.587 217.476 209.39 217.369 209.222C217.262 209.054 217.103 208.926 216.918 208.854V210.718Z" fill="#4B4D58"/>
<path d="M228.723 211.817V212.432H226.859V203.581L228.723 202.77V206.125C228.964 205.874 229.254 205.675 229.574 205.539C229.894 205.403 230.238 205.333 230.586 205.333C231.928 205.333 232.999 206.423 232.999 208.901C232.999 211.379 231.937 212.572 230.483 212.572C230.154 212.575 229.827 212.509 229.524 212.379C229.221 212.249 228.948 212.058 228.723 211.817ZM231.061 208.957C231.061 207.438 230.67 206.916 229.934 206.916C229.704 206.923 229.477 206.977 229.269 207.075C229.061 207.172 228.875 207.312 228.723 207.485V210.392C228.873 210.576 229.062 210.725 229.276 210.828C229.49 210.931 229.724 210.986 229.962 210.988C230.688 210.988 231.061 210.429 231.061 208.957Z" fill="#4B4D58"/>
<path d="M234.872 209.767V205.472H236.735V209.516C236.735 210.606 237.098 210.988 237.797 210.988C238.496 210.988 238.925 210.625 238.925 209.562V205.472H240.788V212.432H238.925V211.817C238.697 212.063 238.42 212.258 238.112 212.388C237.803 212.518 237.47 212.581 237.136 212.572C235.682 212.572 234.872 211.631 234.872 209.767Z" fill="#4B4D58"/>
<path d="M242.605 203.534C242.631 203.245 242.764 202.975 242.979 202.779C243.194 202.583 243.474 202.474 243.765 202.474C244.056 202.474 244.336 202.583 244.551 202.779C244.765 202.975 244.899 203.245 244.925 203.534C244.899 203.824 244.765 204.094 244.551 204.29C244.336 204.486 244.056 204.595 243.765 204.595C243.474 204.595 243.194 204.486 242.979 204.29C242.764 204.094 242.631 203.824 242.605 203.534ZM242.81 210.429V205.472H244.673V210.131C244.654 210.248 244.663 210.368 244.7 210.481C244.736 210.594 244.798 210.697 244.882 210.782C244.965 210.866 245.068 210.93 245.18 210.967C245.293 211.005 245.413 211.015 245.531 210.997C245.964 210.993 246.392 210.901 246.788 210.727L246.509 212.283C245.992 212.509 245.433 212.627 244.869 212.628C244.576 212.667 244.278 212.636 243.999 212.538C243.721 212.439 243.47 212.276 243.267 212.061C243.064 211.846 242.915 211.586 242.832 211.302C242.75 211.018 242.735 210.719 242.791 210.429H242.81Z" fill="#4B4D58"/>
<path d="M248.251 210.429V203.581L250.114 202.77V210.094C250.114 210.755 250.459 210.96 250.962 210.96C251.401 210.954 251.835 210.862 252.239 210.69L251.959 212.246C251.435 212.471 250.871 212.589 250.301 212.591C250.014 212.623 249.723 212.589 249.451 212.49C249.18 212.392 248.935 212.231 248.736 212.021C248.537 211.812 248.39 211.559 248.306 211.282C248.222 211.006 248.203 210.714 248.251 210.429Z" fill="#4B4D58"/>
<path d="M253.785 208.985C253.785 206.507 254.838 205.314 256.329 205.314C256.65 205.314 256.968 205.378 257.264 205.503C257.56 205.628 257.828 205.81 258.053 206.041V203.581L259.916 202.77V212.432H258.053V211.789C257.818 212.035 257.536 212.231 257.224 212.366C256.912 212.5 256.576 212.57 256.236 212.572C254.866 212.572 253.785 211.538 253.785 208.985ZM258.043 210.429V207.531C257.893 207.347 257.704 207.199 257.49 207.098C257.276 206.996 257.041 206.944 256.804 206.944C256.077 206.944 255.695 207.485 255.695 208.976C255.695 210.466 256.105 211.016 256.832 211.016C257.058 211.007 257.28 210.949 257.482 210.848C257.684 210.747 257.863 210.604 258.006 210.429H258.043Z" fill="#4B4D58"/>
<defs>
<filter id="filter0_d" x="10" y="18" width="176" height="46" filterUnits="userSpaceOnUse" color-interpolation-filters="sRGB">
<feFlood flood-opacity="0" result="BackgroundImageFix"/>
<feColorMatrix in="SourceAlpha" type="matrix" values="0 0 0 0 0 0 0 0 0 0 0 0 0 0 0 0 0 0 127 0"/>
<feOffset dy="2"/>
<feGaussianBlur stdDeviation="4"/>
<feColorMatrix type="matrix" values="0 0 0 0 0 0 0 0 0 0 0 0 0 0 0 0 0 0 0.15 0"/>
<feBlend mode="normal" in2="BackgroundImageFix" result="effect1_dropShadow"/>
<feBlend mode="normal" in="SourceGraphic" in2="effect1_dropShadow" result="shape"/>
</filter>
<filter id="filter1_d" x="10" y="48" width="176" height="77" filterUnits="userSpaceOnUse" color-interpolation-filters="sRGB">
<feFlood flood-opacity="0" result="BackgroundImageFix"/>
<feColorMatrix in="SourceAlpha" type="matrix" values="0 0 0 0 0 0 0 0 0 0 0 0 0 0 0 0 0 0 127 0"/>
<feOffset dy="2"/>
<feGaussianBlur stdDeviation="4"/>
<feColorMatrix type="matrix" values="0 0 0 0 0 0 0 0 0 0 0 0 0 0 0 0 0 0 0.15 0"/>
<feBlend mode="normal" in2="BackgroundImageFix" result="effect1_dropShadow"/>
<feBlend mode="normal" in="SourceGraphic" in2="effect1_dropShadow" result="shape"/>
</filter>
<filter id="filter2_d" x="131" y="123" width="176" height="46" filterUnits="userSpaceOnUse" color-interpolation-filters="sRGB">
<feFlood flood-opacity="0" result="BackgroundImageFix"/>
<feColorMatrix in="SourceAlpha" type="matrix" values="0 0 0 0 0 0 0 0 0 0 0 0 0 0 0 0 0 0 127 0"/>
<feOffset dy="2"/>
<feGaussianBlur stdDeviation="4"/>
<feColorMatrix type="matrix" values="0 0 0 0 0 0 0 0 0 0 0 0 0 0 0 0 0 0 0.15 0"/>
<feBlend mode="normal" in2="BackgroundImageFix" result="effect1_dropShadow"/>
<feBlend mode="normal" in="SourceGraphic" in2="effect1_dropShadow" result="shape"/>
</filter>
<filter id="filter3_d" x="131" y="153" width="176" height="77" filterUnits="userSpaceOnUse" color-interpolation-filters="sRGB">
<feFlood flood-opacity="0" result="BackgroundImageFix"/>
<feColorMatrix in="SourceAlpha" type="matrix" values="0 0 0 0 0 0 0 0 0 0 0 0 0 0 0 0 0 0 127 0"/>
<feOffset dy="2"/>
<feGaussianBlur stdDeviation="4"/>
<feColorMatrix type="matrix" values="0 0 0 0 0 0 0 0 0 0 0 0 0 0 0 0 0 0 0.15 0"/>
<feBlend mode="normal" in2="BackgroundImageFix" result="effect1_dropShadow"/>
<feBlend mode="normal" in="SourceGraphic" in2="effect1_dropShadow" result="shape"/>
</filter>
</defs>
</svg>
