<svg id="github-icon-1" xmlns="http://www.w3.org/2000/svg" width="24.607" height="24" viewBox="0 0 24.607 24">
  <path id="Path_13" data-name="Path 13" d="M12.3,0a12.305,12.305,0,0,0-3.89,23.979c.615.114.841-.267.841-.592,0-.293-.011-1.263-.017-2.291-3.423.744-4.145-1.452-4.145-1.452a3.257,3.257,0,0,0-1.366-1.8c-1.116-.764.084-.748.084-.748A2.586,2.586,0,0,1,5.7,18.364a2.619,2.619,0,0,0,3.58,1.023,2.62,2.62,0,0,1,.781-1.645c-2.733-.311-5.606-1.366-5.606-6.081a4.761,4.761,0,0,1,1.268-3.3A4.421,4.421,0,0,1,5.84,5.1s1.033-.331,3.384,1.261a11.672,11.672,0,0,1,6.162,0c2.348-1.592,3.38-1.261,3.38-1.261a4.415,4.415,0,0,1,.121,3.256,4.752,4.752,0,0,1,1.266,3.3c0,4.726-2.878,5.766-5.618,6.071a2.941,2.941,0,0,1,.835,2.278c0,1.646-.014,2.971-.014,3.377,0,.327.221.711.845.59A12.306,12.306,0,0,0,12.3,0" transform="translate(0)" fill="#161614"/>
  <path id="Path_14" data-name="Path 14" d="M44.669,179.681c-.027.061-.123.079-.211.038s-.139-.124-.11-.185.123-.08.212-.038.14.124.109.186m.605.54c-.059.054-.173.029-.251-.057a.188.188,0,0,1-.036-.256c.061-.054.172-.029.252.057s.1.2.035.256m.415.691c-.075.052-.2,0-.275-.106s-.075-.241,0-.293.2-.005.275.1.075.243,0,.3m.7.8c-.067.074-.211.054-.316-.047a.237.237,0,0,1-.07-.314c.068-.075.213-.054.319.047s.139.241.068.314m.907.27c-.03.1-.168.14-.307.1s-.23-.155-.2-.252.168-.143.308-.1.23.154.2.252m1.033.115c0,.1-.115.186-.261.187s-.266-.079-.268-.179.116-.186.263-.188.266.079.266.179m1.015-.039c.018.1-.084.2-.229.228s-.275-.035-.293-.133.086-.2.228-.229.276.034.294.135" transform="translate(-40.061 -162.153)" fill="#161614"/>
</svg>
