<svg xmlns="http://www.w3.org/2000/svg" width="26.054" height="24" viewBox="0 0 26.054 24">
  <g id="gitlab" transform="translate(-0.164 -0.421)">
    <path id="Path_6" data-name="Path 6" d="M85.767,105.869l4.8-14.764H80.97l4.8,14.764Z" transform="translate(-72.576 -81.449)" fill="#e24329"/>
    <path id="Path_7" data-name="Path 7" d="M26.477,105.868,21.679,91.1H14.956Z" transform="translate(-13.286 -81.448)" fill="#fc6d26"/>
    <path id="Path_8" data-name="Path 8" d="M1.67,91.1.213,95.591A.993.993,0,0,0,.573,96.7l12.618,9.167L1.67,91.1Z" transform="translate(0 -81.448)" fill="#fca326"/>
    <path id="Path_9" data-name="Path 9" d="M14.956,9.656h6.723L18.79.764a.5.5,0,0,0-.945,0Z" transform="translate(-13.286 0)" fill="#e24329"/>
    <path id="Path_10" data-name="Path 10" d="M128.074,105.868l4.8-14.764h6.723l-11.521,14.764Z" transform="translate(-114.883 -81.448)" fill="#fc6d26"/>
    <path id="Path_11" data-name="Path 11" d="M139.6,91.1l1.458,4.487a.993.993,0,0,1-.361,1.11l-12.617,9.167L139.6,91.1Z" transform="translate(-114.884 -81.448)" fill="#fca326"/>
    <path id="Path_12" data-name="Path 12" d="M181.9,9.656h-6.723L178.068.764a.5.5,0,0,1,.945,0Z" transform="translate(-157.191 0)" fill="#e24329"/>
  </g>
</svg>
