<svg width="100" height="100" viewBox="0 0 320 240" fill="none" xmlns="http://www.w3.org/2000/svg">
<path d="M320 0H0V240H320V0Z" fill="white"/>
<rect x="166" y="49" width="145" height="30" rx="4" fill="#FFF3EB"/>
<path d="M251 49H307C309.209 49 311 50.7909 311 53V75C311 77.2091 309.209 79 307 79H251V49Z" fill="#ED6A45"/>
<path d="M262.549 69.0049V60.8009H259.777V59.8209H266.497V60.8009H263.725V69.0049H262.549Z" fill="#717484"/>
<path d="M269.755 69.1729C269.335 69.1729 268.934 69.0935 268.551 68.9349C268.178 68.7762 267.846 68.5475 267.557 68.2489C267.268 67.9409 267.034 67.5675 266.857 67.1289C266.689 66.6809 266.605 66.1769 266.605 65.6169C266.605 65.0475 266.689 64.5435 266.857 64.1049C267.034 63.6569 267.268 63.2789 267.557 62.9709C267.846 62.6629 268.178 62.4295 268.551 62.2709C268.934 62.1122 269.335 62.0329 269.755 62.0329C270.175 62.0329 270.572 62.1122 270.945 62.2709C271.328 62.4295 271.664 62.6629 271.953 62.9709C272.242 63.2789 272.471 63.6569 272.639 64.1049C272.816 64.5435 272.905 65.0475 272.905 65.6169C272.905 66.1769 272.816 66.6809 272.639 67.1289C272.471 67.5675 272.242 67.9409 271.953 68.2489C271.664 68.5475 271.328 68.7762 270.945 68.9349C270.572 69.0935 270.175 69.1729 269.755 69.1729ZM269.755 68.2209C270.044 68.2209 270.31 68.1602 270.553 68.0389C270.796 67.9082 271.001 67.7309 271.169 67.5069C271.346 67.2735 271.482 66.9982 271.575 66.6809C271.668 66.3635 271.715 66.0089 271.715 65.6169C271.715 65.2249 271.668 64.8702 271.575 64.5529C271.482 64.2262 271.346 63.9462 271.169 63.7129C271.001 63.4795 270.796 63.3022 270.553 63.1809C270.31 63.0502 270.044 62.9849 269.755 62.9849C269.466 62.9849 269.2 63.0502 268.957 63.1809C268.714 63.3022 268.504 63.4795 268.327 63.7129C268.159 63.9462 268.028 64.2262 267.935 64.5529C267.842 64.8702 267.795 65.2249 267.795 65.6169C267.795 66.0089 267.842 66.3635 267.935 66.6809C268.028 66.9982 268.159 67.2735 268.327 67.5069C268.504 67.7309 268.714 67.9082 268.957 68.0389C269.2 68.1602 269.466 68.2209 269.755 68.2209Z" fill="#717484"/>
<path d="M274.697 71.8749V62.2009H275.649L275.747 62.9849H275.789C276.097 62.7235 276.433 62.4995 276.797 62.3129C277.17 62.1262 277.558 62.0329 277.959 62.0329C278.398 62.0329 278.785 62.1169 279.121 62.2849C279.457 62.4435 279.737 62.6769 279.961 62.9849C280.185 63.2835 280.353 63.6475 280.465 64.0769C280.586 64.4969 280.647 64.9729 280.647 65.5049C280.647 66.0835 280.568 66.6015 280.409 67.0589C280.25 67.5069 280.036 67.8895 279.765 68.2069C279.494 68.5242 279.182 68.7669 278.827 68.9349C278.472 69.0935 278.099 69.1729 277.707 69.1729C277.39 69.1729 277.072 69.1029 276.755 68.9629C276.447 68.8229 276.134 68.6315 275.817 68.3889L275.845 69.5789V71.8749H274.697ZM277.511 68.2069C277.791 68.2069 278.048 68.1462 278.281 68.0249C278.524 67.8942 278.729 67.7169 278.897 67.4929C279.074 67.2595 279.21 66.9749 279.303 66.6389C279.406 66.3029 279.457 65.9249 279.457 65.5049C279.457 65.1315 279.424 64.7909 279.359 64.4829C279.294 64.1749 279.186 63.9135 279.037 63.6989C278.897 63.4749 278.71 63.3022 278.477 63.1809C278.253 63.0595 277.982 62.9989 277.665 62.9989C277.376 62.9989 277.082 63.0782 276.783 63.2369C276.494 63.3955 276.181 63.6242 275.845 63.9229V67.4929C276.153 67.7542 276.452 67.9409 276.741 68.0529C277.03 68.1555 277.287 68.2069 277.511 68.2069Z" fill="#717484"/>
<path d="M287.869 69.1729C287.431 69.1729 287.025 69.0842 286.651 68.9069C286.278 68.7295 285.951 68.4635 285.671 68.1089C285.401 67.7449 285.186 67.2969 285.027 66.7649C284.869 66.2235 284.789 65.5935 284.789 64.8749C284.789 63.9789 284.883 63.2182 285.069 62.5929C285.256 61.9582 285.508 61.4449 285.825 61.0529C286.143 60.6515 286.502 60.3622 286.903 60.1849C287.314 59.9982 287.743 59.9049 288.191 59.9049C288.677 59.9049 289.092 59.9982 289.437 60.1849C289.792 60.3622 290.095 60.5862 290.347 60.8569L289.703 61.5709C289.517 61.3562 289.293 61.1882 289.031 61.0669C288.779 60.9362 288.513 60.8709 288.233 60.8709C287.925 60.8709 287.631 60.9362 287.351 61.0669C287.071 61.1975 286.824 61.4122 286.609 61.7109C286.395 62.0095 286.222 62.4015 286.091 62.8869C285.961 63.3629 285.891 63.9555 285.881 64.6649C286.161 64.3195 286.488 64.0489 286.861 63.8529C287.235 63.6475 287.603 63.5449 287.967 63.5449C288.742 63.5449 289.358 63.7735 289.815 64.2309C290.282 64.6882 290.515 65.3789 290.515 66.3029C290.515 66.7322 290.445 67.1242 290.305 67.4789C290.165 67.8242 289.974 68.1229 289.731 68.3749C289.489 68.6269 289.209 68.8229 288.891 68.9629C288.574 69.1029 288.233 69.1729 287.869 69.1729ZM287.869 68.2629C288.093 68.2629 288.299 68.2162 288.485 68.1229C288.672 68.0295 288.835 67.8989 288.975 67.7309C289.115 67.5535 289.223 67.3482 289.297 67.1149C289.381 66.8722 289.423 66.6015 289.423 66.3029C289.423 65.7149 289.288 65.2529 289.017 64.9169C288.747 64.5809 288.331 64.4129 287.771 64.4129C287.482 64.4129 287.169 64.5062 286.833 64.6929C286.497 64.8702 286.189 65.1689 285.909 65.5889C285.984 66.4662 286.185 67.1335 286.511 67.5909C286.847 68.0389 287.3 68.2629 287.869 68.2629Z" fill="#717484"/>
<path d="M293.652 65.4489C293.018 65.4489 292.509 65.1969 292.126 64.6929C291.753 64.1889 291.566 63.4702 291.566 62.5369C291.566 61.6129 291.753 60.9035 292.126 60.4089C292.509 59.9049 293.018 59.6529 293.652 59.6529C294.278 59.6529 294.782 59.9049 295.164 60.4089C295.547 60.9035 295.738 61.6129 295.738 62.5369C295.738 63.4702 295.547 64.1889 295.164 64.6929C294.782 65.1969 294.278 65.4489 293.652 65.4489ZM293.652 64.7349C294.007 64.7349 294.296 64.5529 294.52 64.1889C294.744 63.8155 294.856 63.2649 294.856 62.5369C294.856 61.8089 294.744 61.2675 294.52 60.9129C294.296 60.5489 294.007 60.3669 293.652 60.3669C293.288 60.3669 292.994 60.5489 292.77 60.9129C292.546 61.2675 292.434 61.8089 292.434 62.5369C292.434 63.2649 292.546 63.8155 292.77 64.1889C292.994 64.5529 293.288 64.7349 293.652 64.7349ZM293.904 69.1729L298.972 59.6529H299.756L294.688 69.1729H293.904ZM300.05 69.1729C299.416 69.1729 298.907 68.9209 298.524 68.4169C298.151 67.9129 297.964 67.1942 297.964 66.2609C297.964 65.3369 298.151 64.6275 298.524 64.1329C298.907 63.6289 299.416 63.3769 300.05 63.3769C300.676 63.3769 301.18 63.6289 301.562 64.1329C301.945 64.6275 302.136 65.3369 302.136 66.2609C302.136 67.1942 301.945 67.9129 301.562 68.4169C301.18 68.9209 300.676 69.1729 300.05 69.1729ZM300.05 68.4589C300.405 68.4589 300.694 68.2769 300.918 67.9129C301.142 67.5395 301.254 66.9889 301.254 66.2609C301.254 65.5329 301.142 64.9915 300.918 64.6369C300.694 64.2729 300.405 64.0909 300.05 64.0909C299.686 64.0909 299.392 64.2729 299.168 64.6369C298.944 64.9915 298.832 65.5329 298.832 66.2609C298.832 66.9889 298.944 67.5395 299.168 67.9129C299.392 68.2769 299.686 68.4589 300.05 68.4589Z" fill="#717484"/>
<path d="M177.392 70.192C176.08 70.192 175.115 69.632 174.496 68.512L175.456 67.84C175.691 68.256 175.957 68.56 176.256 68.752C176.555 68.9333 176.891 69.024 177.264 69.024C177.829 69.024 178.251 68.8533 178.528 68.512C178.805 68.16 178.944 67.584 178.944 66.784V59.504H180.288V66.912C180.288 67.36 180.229 67.7866 180.112 68.192C180.005 68.5866 179.835 68.9333 179.6 69.232C179.376 69.5306 179.077 69.7653 178.704 69.936C178.341 70.1066 177.904 70.192 177.392 70.192Z" fill="#717484"/>
<path d="M184.792 70.192C184.141 70.192 183.597 70 183.16 69.616C182.733 69.232 182.52 68.688 182.52 67.984C182.52 67.1306 182.898 66.48 183.656 66.032C184.413 65.5733 185.624 65.2533 187.288 65.072C187.288 64.8266 187.261 64.5866 187.208 64.352C187.165 64.1173 187.085 63.9093 186.968 63.728C186.85 63.5466 186.685 63.4026 186.472 63.296C186.269 63.1786 186.008 63.12 185.688 63.12C185.24 63.12 184.818 63.2053 184.424 63.376C184.029 63.5466 183.677 63.7386 183.368 63.952L182.856 63.04C183.218 62.8053 183.661 62.5813 184.184 62.368C184.706 62.144 185.282 62.032 185.912 62.032C186.861 62.032 187.549 62.3253 187.976 62.912C188.402 63.488 188.616 64.2613 188.616 65.232V70H187.528L187.416 69.072H187.368C186.994 69.3813 186.594 69.648 186.168 69.872C185.741 70.0853 185.282 70.192 184.792 70.192ZM185.176 69.136C185.549 69.136 185.901 69.0506 186.232 68.88C186.562 68.6986 186.914 68.4373 187.288 68.096V65.936C186.637 66.0213 186.088 66.1226 185.64 66.24C185.202 66.3573 184.845 66.496 184.568 66.656C184.301 66.816 184.104 67.0026 183.976 67.216C183.858 67.4186 183.8 67.6426 183.8 67.888C183.8 68.336 183.933 68.656 184.2 68.848C184.466 69.04 184.792 69.136 185.176 69.136Z" fill="#717484"/>
<path d="M192.742 70L189.942 62.224H191.302L192.774 66.64C192.891 67.024 193.009 67.408 193.126 67.792C193.254 68.176 193.377 68.5546 193.494 68.928H193.558C193.675 68.5546 193.793 68.176 193.91 67.792C194.027 67.408 194.145 67.024 194.262 66.64L195.734 62.224H197.03L194.278 70H192.742Z" fill="#717484"/>
<path d="M200.01 70.192C199.36 70.192 198.816 70 198.378 69.616C197.952 69.232 197.738 68.688 197.738 67.984C197.738 67.1306 198.117 66.48 198.874 66.032C199.632 65.5733 200.842 65.2533 202.506 65.072C202.506 64.8266 202.48 64.5866 202.426 64.352C202.384 64.1173 202.304 63.9093 202.186 63.728C202.069 63.5466 201.904 63.4026 201.69 63.296C201.488 63.1786 201.226 63.12 200.906 63.12C200.458 63.12 200.037 63.2053 199.642 63.376C199.248 63.5466 198.896 63.7386 198.586 63.952L198.074 63.04C198.437 62.8053 198.88 62.5813 199.402 62.368C199.925 62.144 200.501 62.032 201.13 62.032C202.08 62.032 202.768 62.3253 203.194 62.912C203.621 63.488 203.834 64.2613 203.834 65.232V70H202.746L202.634 69.072H202.586C202.213 69.3813 201.813 69.648 201.386 69.872C200.96 70.0853 200.501 70.192 200.01 70.192ZM200.394 69.136C200.768 69.136 201.12 69.0506 201.45 68.88C201.781 68.6986 202.133 68.4373 202.506 68.096V65.936C201.856 66.0213 201.306 66.1226 200.858 66.24C200.421 66.3573 200.064 66.496 199.786 66.656C199.52 66.816 199.322 67.0026 199.194 67.216C199.077 67.4186 199.018 67.6426 199.018 67.888C199.018 68.336 199.152 68.656 199.418 68.848C199.685 69.04 200.01 69.136 200.394 69.136Z" fill="#717484"/>
<path d="M208.313 70.192C207.758 70.192 207.23 70.0906 206.729 69.888C206.228 69.6853 205.79 69.4293 205.417 69.12L206.073 68.24C206.414 68.5173 206.761 68.7413 207.113 68.912C207.476 69.0826 207.892 69.168 208.361 69.168C208.873 69.168 209.257 69.0506 209.513 68.816C209.769 68.5813 209.897 68.2933 209.897 67.952C209.897 67.7493 209.844 67.5733 209.737 67.424C209.63 67.2746 209.492 67.1466 209.321 67.04C209.161 66.9226 208.974 66.8213 208.761 66.736C208.548 66.6506 208.334 66.5653 208.121 66.48C207.844 66.384 207.566 66.2773 207.289 66.16C207.012 66.032 206.761 65.8826 206.537 65.712C206.324 65.5306 206.148 65.3226 206.009 65.088C205.87 64.8533 205.801 64.5706 205.801 64.24C205.801 63.9306 205.86 63.6426 205.977 63.376C206.105 63.0986 206.281 62.864 206.505 62.672C206.74 62.4693 207.022 62.3146 207.353 62.208C207.684 62.0906 208.057 62.032 208.473 62.032C208.964 62.032 209.412 62.1173 209.817 62.288C210.233 62.4586 210.59 62.6666 210.889 62.912L210.265 63.744C209.998 63.5413 209.721 63.376 209.433 63.248C209.145 63.12 208.83 63.056 208.489 63.056C207.998 63.056 207.636 63.168 207.401 63.392C207.177 63.616 207.065 63.8773 207.065 64.176C207.065 64.3573 207.113 64.5173 207.209 64.656C207.305 64.784 207.433 64.9013 207.593 65.008C207.753 65.104 207.934 65.1946 208.137 65.28C208.35 65.3546 208.569 65.4346 208.793 65.52C209.07 65.6266 209.348 65.7386 209.625 65.856C209.913 65.9733 210.169 66.1226 210.393 66.304C210.617 66.4746 210.798 66.688 210.937 66.944C211.086 67.2 211.161 67.5093 211.161 67.872C211.161 68.192 211.097 68.4906 210.969 68.768C210.852 69.0453 210.67 69.2906 210.425 69.504C210.19 69.7173 209.892 69.8826 209.529 70C209.177 70.128 208.772 70.192 208.313 70.192Z" fill="#717484"/>
<path d="M216.056 70.192C215.544 70.192 215.064 70.1013 214.616 69.92C214.168 69.7386 213.779 69.4773 213.448 69.136C213.128 68.784 212.872 68.3573 212.68 67.856C212.499 67.344 212.408 66.768 212.408 66.128C212.408 65.4773 212.509 64.9013 212.712 64.4C212.915 63.888 213.187 63.456 213.528 63.104C213.869 62.752 214.264 62.4853 214.712 62.304C215.171 62.1226 215.651 62.032 216.152 62.032C216.664 62.032 217.101 62.1226 217.464 62.304C217.827 62.4853 218.147 62.6986 218.424 62.944L217.752 63.808C217.528 63.6053 217.288 63.44 217.032 63.312C216.787 63.184 216.509 63.12 216.2 63.12C215.848 63.12 215.523 63.1946 215.224 63.344C214.925 63.4826 214.669 63.6853 214.456 63.952C214.243 64.2186 214.072 64.5386 213.944 64.912C213.827 65.2746 213.768 65.68 213.768 66.128C213.768 66.576 213.827 66.9813 213.944 67.344C214.061 67.7066 214.221 68.0213 214.424 68.288C214.637 68.544 214.893 68.7466 215.192 68.896C215.491 69.0346 215.816 69.104 216.168 69.104C216.531 69.104 216.861 69.0293 217.16 68.88C217.469 68.72 217.747 68.5333 217.992 68.32L218.568 69.2C218.216 69.5093 217.827 69.7546 217.4 69.936C216.973 70.1066 216.525 70.192 216.056 70.192Z" fill="#717484"/>
<path d="M220.281 70V62.224H221.369L221.481 63.632H221.529C221.796 63.1413 222.116 62.752 222.489 62.464C222.873 62.176 223.289 62.032 223.737 62.032C224.046 62.032 224.324 62.0853 224.569 62.192L224.313 63.344C224.185 63.3013 224.068 63.2693 223.961 63.248C223.854 63.2266 223.721 63.216 223.561 63.216C223.23 63.216 222.884 63.3493 222.521 63.616C222.169 63.8826 221.86 64.3466 221.593 65.008V70H220.281Z" fill="#717484"/>
<path d="M225.828 70V62.224H227.14V70H225.828ZM226.5 60.624C226.244 60.624 226.025 60.544 225.844 60.384C225.673 60.224 225.588 60.0213 225.588 59.776C225.588 59.52 225.673 59.3173 225.844 59.168C226.025 59.008 226.244 58.928 226.5 58.928C226.756 58.928 226.969 59.008 227.14 59.168C227.321 59.3173 227.412 59.52 227.412 59.776C227.412 60.0213 227.321 60.224 227.14 60.384C226.969 60.544 226.756 60.624 226.5 60.624Z" fill="#717484"/>
<path d="M229.765 73.28V62.224H230.853L230.965 63.12H231.013C231.365 62.8213 231.749 62.5653 232.165 62.352C232.592 62.1386 233.035 62.032 233.493 62.032C233.995 62.032 234.437 62.128 234.821 62.32C235.205 62.5013 235.525 62.768 235.781 63.12C236.037 63.4613 236.229 63.8773 236.357 64.368C236.496 64.848 236.565 65.392 236.565 66C236.565 66.6613 236.475 67.2533 236.293 67.776C236.112 68.288 235.867 68.7253 235.557 69.088C235.248 69.4506 234.891 69.728 234.485 69.92C234.08 70.1013 233.653 70.192 233.205 70.192C232.843 70.192 232.48 70.112 232.117 69.952C231.765 69.792 231.408 69.5733 231.045 69.296L231.077 70.656V73.28H229.765ZM232.981 69.088C233.301 69.088 233.595 69.0186 233.861 68.88C234.139 68.7306 234.373 68.528 234.565 68.272C234.768 68.0053 234.923 67.68 235.029 67.296C235.147 66.912 235.205 66.48 235.205 66C235.205 65.5733 235.168 65.184 235.093 64.832C235.019 64.48 234.896 64.1813 234.725 63.936C234.565 63.68 234.352 63.4826 234.085 63.344C233.829 63.2053 233.52 63.136 233.157 63.136C232.827 63.136 232.491 63.2266 232.149 63.408C231.819 63.5893 231.461 63.8506 231.077 64.192V68.272C231.429 68.5706 231.771 68.784 232.101 68.912C232.432 69.0293 232.725 69.088 232.981 69.088Z" fill="#717484"/>
<path d="M240.823 70.192C240.407 70.192 240.055 70.128 239.767 70C239.489 69.872 239.26 69.696 239.079 69.472C238.908 69.248 238.785 68.976 238.711 68.656C238.636 68.336 238.599 67.984 238.599 67.6V63.296H237.447V62.304L238.663 62.224L238.823 60.048H239.927V62.224H242.023V63.296H239.927V67.616C239.927 68.096 240.012 68.4693 240.183 68.736C240.364 68.992 240.679 69.12 241.127 69.12C241.265 69.12 241.415 69.0986 241.575 69.056C241.735 69.0133 241.879 68.9653 242.007 68.912L242.263 69.904C242.049 69.9786 241.815 70.0426 241.559 70.096C241.313 70.16 241.068 70.192 240.823 70.192Z" fill="#717484"/>
<rect x="166" y="89" width="145" height="30" rx="4" fill="#FFF3EB"/>
<path d="M251 89H307C309.209 89 311 90.7909 311 93V115C311 117.209 309.209 119 307 119H251V89Z" fill="#ED6A45"/>
<path d="M259.069 109.005V100.801H256.297V99.8209H263.017V100.801H260.245V109.005H259.069Z" fill="#717484"/>
<path d="M266.275 109.173C265.855 109.173 265.454 109.094 265.071 108.935C264.698 108.776 264.367 108.548 264.077 108.249C263.788 107.941 263.555 107.568 263.377 107.129C263.209 106.681 263.125 106.177 263.125 105.617C263.125 105.048 263.209 104.544 263.377 104.105C263.555 103.657 263.788 103.279 264.077 102.971C264.367 102.663 264.698 102.43 265.071 102.271C265.454 102.112 265.855 102.033 266.275 102.033C266.695 102.033 267.092 102.112 267.465 102.271C267.848 102.43 268.184 102.663 268.473 102.971C268.763 103.279 268.991 103.657 269.159 104.105C269.337 104.544 269.425 105.048 269.425 105.617C269.425 106.177 269.337 106.681 269.159 107.129C268.991 107.568 268.763 107.941 268.473 108.249C268.184 108.548 267.848 108.776 267.465 108.935C267.092 109.094 266.695 109.173 266.275 109.173ZM266.275 108.221C266.565 108.221 266.831 108.16 267.073 108.039C267.316 107.908 267.521 107.731 267.689 107.507C267.867 107.274 268.002 106.998 268.095 106.681C268.189 106.364 268.235 106.009 268.235 105.617C268.235 105.225 268.189 104.87 268.095 104.553C268.002 104.226 267.867 103.946 267.689 103.713C267.521 103.48 267.316 103.302 267.073 103.181C266.831 103.05 266.565 102.985 266.275 102.985C265.986 102.985 265.72 103.05 265.477 103.181C265.235 103.302 265.025 103.48 264.847 103.713C264.679 103.946 264.549 104.226 264.455 104.553C264.362 104.87 264.315 105.225 264.315 105.617C264.315 106.009 264.362 106.364 264.455 106.681C264.549 106.998 264.679 107.274 264.847 107.507C265.025 107.731 265.235 107.908 265.477 108.039C265.72 108.16 265.986 108.221 266.275 108.221Z" fill="#717484"/>
<path d="M271.217 111.875V102.201H272.169L272.267 102.985H272.309C272.617 102.724 272.953 102.5 273.317 102.313C273.691 102.126 274.078 102.033 274.479 102.033C274.918 102.033 275.305 102.117 275.641 102.285C275.977 102.444 276.257 102.677 276.481 102.985C276.705 103.284 276.873 103.648 276.985 104.077C277.107 104.497 277.167 104.973 277.167 105.505C277.167 106.084 277.088 106.602 276.929 107.059C276.771 107.507 276.556 107.89 276.285 108.207C276.015 108.524 275.702 108.767 275.347 108.935C274.993 109.094 274.619 109.173 274.227 109.173C273.91 109.173 273.593 109.103 273.275 108.963C272.967 108.823 272.655 108.632 272.337 108.389L272.365 109.579V111.875H271.217ZM274.031 108.207C274.311 108.207 274.568 108.146 274.801 108.025C275.044 107.894 275.249 107.717 275.417 107.493C275.595 107.26 275.73 106.975 275.823 106.639C275.926 106.303 275.977 105.925 275.977 105.505C275.977 105.132 275.945 104.791 275.879 104.483C275.814 104.175 275.707 103.914 275.557 103.699C275.417 103.475 275.231 103.302 274.997 103.181C274.773 103.06 274.503 102.999 274.185 102.999C273.896 102.999 273.602 103.078 273.303 103.237C273.014 103.396 272.701 103.624 272.365 103.923V107.493C272.673 107.754 272.972 107.941 273.261 108.053C273.551 108.156 273.807 108.207 274.031 108.207Z" fill="#717484"/>
<path d="M281.744 109.005V108.053H283.788V101.473H282.164V100.731C282.574 100.656 282.929 100.568 283.228 100.465C283.536 100.353 283.811 100.222 284.054 100.073H284.936V108.053H286.784V109.005H281.744Z" fill="#717484"/>
<path d="M288.157 109.005V108.319C288.829 107.647 289.426 107.04 289.949 106.499C290.471 105.958 290.91 105.458 291.265 105.001C291.619 104.534 291.89 104.11 292.077 103.727C292.263 103.335 292.357 102.957 292.357 102.593C292.357 102.08 292.217 101.66 291.937 101.333C291.657 101.006 291.232 100.843 290.663 100.843C290.289 100.843 289.944 100.95 289.627 101.165C289.309 101.37 289.02 101.622 288.759 101.921L288.101 101.263C288.474 100.852 288.871 100.526 289.291 100.283C289.711 100.031 290.215 99.9049 290.803 99.9049C291.633 99.9049 292.287 100.148 292.763 100.633C293.239 101.109 293.477 101.744 293.477 102.537C293.477 102.957 293.383 103.382 293.197 103.811C293.019 104.231 292.767 104.67 292.441 105.127C292.123 105.575 291.741 106.046 291.293 106.541C290.854 107.026 290.369 107.544 289.837 108.095C290.079 108.076 290.331 108.058 290.593 108.039C290.854 108.02 291.101 108.011 291.335 108.011H293.925V109.005H288.157Z" fill="#717484"/>
<path d="M297.132 105.449C296.497 105.449 295.988 105.197 295.606 104.693C295.232 104.189 295.046 103.47 295.046 102.537C295.046 101.613 295.232 100.904 295.606 100.409C295.988 99.9049 296.497 99.6529 297.132 99.6529C297.757 99.6529 298.261 99.9049 298.644 100.409C299.026 100.904 299.218 101.613 299.218 102.537C299.218 103.47 299.026 104.189 298.644 104.693C298.261 105.197 297.757 105.449 297.132 105.449ZM297.132 104.735C297.486 104.735 297.776 104.553 298 104.189C298.224 103.816 298.336 103.265 298.336 102.537C298.336 101.809 298.224 101.268 298 100.913C297.776 100.549 297.486 100.367 297.132 100.367C296.768 100.367 296.474 100.549 296.25 100.913C296.026 101.268 295.914 101.809 295.914 102.537C295.914 103.265 296.026 103.816 296.25 104.189C296.474 104.553 296.768 104.735 297.132 104.735ZM297.384 109.173L302.452 99.6529H303.236L298.168 109.173H297.384ZM303.53 109.173C302.895 109.173 302.386 108.921 302.004 108.417C301.63 107.913 301.444 107.194 301.444 106.261C301.444 105.337 301.63 104.628 302.004 104.133C302.386 103.629 302.895 103.377 303.53 103.377C304.155 103.377 304.659 103.629 305.042 104.133C305.424 104.628 305.616 105.337 305.616 106.261C305.616 107.194 305.424 107.913 305.042 108.417C304.659 108.921 304.155 109.173 303.53 109.173ZM303.53 108.459C303.884 108.459 304.174 108.277 304.398 107.913C304.622 107.54 304.734 106.989 304.734 106.261C304.734 105.533 304.622 104.992 304.398 104.637C304.174 104.273 303.884 104.091 303.53 104.091C303.166 104.091 302.872 104.273 302.648 104.637C302.424 104.992 302.312 105.533 302.312 106.261C302.312 106.989 302.424 107.54 302.648 107.913C302.872 108.277 303.166 108.459 303.53 108.459Z" fill="#717484"/>
<path d="M179.408 110.192C178.747 110.192 178.139 110.069 177.584 109.824C177.029 109.579 176.544 109.227 176.128 108.768C175.723 108.299 175.403 107.728 175.168 107.056C174.944 106.373 174.832 105.605 174.832 104.752C174.832 103.909 174.949 103.152 175.184 102.48C175.419 101.808 175.744 101.237 176.16 100.768C176.576 100.299 177.067 99.9413 177.632 99.696C178.197 99.44 178.816 99.312 179.488 99.312C180.128 99.312 180.688 99.4453 181.168 99.712C181.659 99.968 182.059 100.267 182.368 100.608L181.648 101.472C181.371 101.173 181.056 100.933 180.704 100.752C180.352 100.571 179.952 100.48 179.504 100.48C179.003 100.48 178.549 100.581 178.144 100.784C177.739 100.976 177.392 101.259 177.104 101.632C176.816 101.995 176.592 102.437 176.432 102.96C176.283 103.483 176.208 104.069 176.208 104.72C176.208 105.381 176.283 105.979 176.432 106.512C176.592 107.035 176.811 107.483 177.088 107.856C177.365 108.229 177.701 108.517 178.096 108.72C178.501 108.923 178.955 109.024 179.456 109.024C179.968 109.024 180.416 108.923 180.8 108.72C181.184 108.507 181.547 108.213 181.888 107.84L182.624 108.672C182.208 109.152 181.739 109.525 181.216 109.792C180.693 110.059 180.091 110.192 179.408 110.192Z" fill="#717484"/>
<path d="M186.597 108.336V105.216H183.685V104.224H186.597V101.104H187.637V104.224H190.549V105.216H187.637V108.336H186.597Z" fill="#717484"/>
<path d="M194.55 108.336V105.216H191.638V104.224H194.55V101.104H195.59V104.224H198.502V105.216H195.59V108.336H194.55Z" fill="#717484"/>
<path d="M169.87 35V24.992H166.468V23.228H175.36V24.992H171.958V35H169.87Z" fill="#717484"/>
<path d="M179.475 35.216C178.923 35.216 178.395 35.114 177.891 34.91C177.387 34.706 176.937 34.406 176.541 34.01C176.157 33.614 175.851 33.128 175.623 32.552C175.395 31.976 175.281 31.322 175.281 30.59C175.281 29.858 175.395 29.204 175.623 28.628C175.851 28.052 176.157 27.566 176.541 27.17C176.937 26.774 177.387 26.474 177.891 26.27C178.395 26.054 178.923 25.946 179.475 25.946C180.027 25.946 180.555 26.054 181.059 26.27C181.575 26.474 182.025 26.774 182.409 27.17C182.793 27.566 183.099 28.052 183.327 28.628C183.567 29.204 183.687 29.858 183.687 30.59C183.687 31.322 183.567 31.976 183.327 32.552C183.099 33.128 182.793 33.614 182.409 34.01C182.025 34.406 181.575 34.706 181.059 34.91C180.555 35.114 180.027 35.216 179.475 35.216ZM179.475 33.524C180.123 33.524 180.633 33.26 181.005 32.732C181.377 32.192 181.563 31.478 181.563 30.59C181.563 29.69 181.377 28.976 181.005 28.448C180.633 27.908 180.123 27.638 179.475 27.638C178.827 27.638 178.317 27.908 177.945 28.448C177.585 28.976 177.405 29.69 177.405 30.59C177.405 31.478 177.585 32.192 177.945 32.732C178.317 33.26 178.827 33.524 179.475 33.524Z" fill="#717484"/>
<path d="M185.736 38.492V26.162H187.446L187.59 27.098H187.662C188.034 26.786 188.448 26.516 188.904 26.288C189.36 26.06 189.834 25.946 190.326 25.946C190.878 25.946 191.364 26.054 191.784 26.27C192.216 26.474 192.582 26.774 192.882 27.17C193.182 27.566 193.41 28.04 193.566 28.592C193.722 29.144 193.8 29.762 193.8 30.446C193.8 31.202 193.692 31.88 193.476 32.48C193.272 33.068 192.996 33.566 192.648 33.974C192.3 34.37 191.898 34.676 191.442 34.892C190.986 35.108 190.512 35.216 190.02 35.216C189.636 35.216 189.252 35.132 188.868 34.964C188.484 34.796 188.112 34.556 187.752 34.244L187.806 35.72V38.492H185.736ZM189.588 33.506C190.176 33.506 190.668 33.254 191.064 32.75C191.46 32.234 191.658 31.472 191.658 30.464C191.658 29.576 191.508 28.886 191.208 28.394C190.908 27.902 190.422 27.656 189.75 27.656C189.126 27.656 188.478 27.986 187.806 28.646V32.768C188.13 33.044 188.442 33.236 188.742 33.344C189.042 33.452 189.324 33.506 189.588 33.506Z" fill="#717484"/>
<path d="M199.68 35V23.228H201.768V33.236H206.664V35H199.68Z" fill="#717484"/>
<path d="M210.677 35.216C209.897 35.216 209.267 34.982 208.787 34.514C208.307 34.034 208.067 33.404 208.067 32.624C208.067 32.156 208.163 31.742 208.355 31.382C208.559 31.01 208.871 30.692 209.291 30.428C209.723 30.164 210.263 29.942 210.911 29.762C211.571 29.582 212.357 29.444 213.269 29.348C213.257 29.12 213.221 28.904 213.161 28.7C213.113 28.484 213.023 28.298 212.891 28.142C212.771 27.974 212.609 27.848 212.405 27.764C212.201 27.668 211.949 27.62 211.649 27.62C211.217 27.62 210.791 27.704 210.371 27.872C209.963 28.04 209.561 28.244 209.165 28.484L208.409 27.098C208.901 26.786 209.453 26.516 210.065 26.288C210.677 26.06 211.337 25.946 212.045 25.946C213.149 25.946 213.971 26.276 214.511 26.936C215.063 27.584 215.339 28.526 215.339 29.762V35H213.629L213.485 34.028H213.413C213.017 34.364 212.591 34.646 212.135 34.874C211.691 35.102 211.205 35.216 210.677 35.216ZM211.343 33.596C211.703 33.596 212.027 33.512 212.315 33.344C212.615 33.176 212.933 32.936 213.269 32.624V30.644C212.669 30.716 212.165 30.812 211.757 30.932C211.349 31.052 211.019 31.19 210.767 31.346C210.515 31.49 210.335 31.658 210.227 31.85C210.119 32.042 210.065 32.246 210.065 32.462C210.065 32.858 210.185 33.146 210.425 33.326C210.665 33.506 210.971 33.596 211.343 33.596Z" fill="#717484"/>
<path d="M217.816 35V26.162H219.526L219.67 27.35H219.742C220.138 26.966 220.564 26.636 221.02 26.36C221.488 26.084 222.028 25.946 222.64 25.946C223.588 25.946 224.278 26.252 224.71 26.864C225.142 27.464 225.358 28.328 225.358 29.456V35H223.288V29.726C223.288 28.994 223.18 28.478 222.964 28.178C222.748 27.878 222.394 27.728 221.902 27.728C221.518 27.728 221.176 27.824 220.876 28.016C220.588 28.196 220.258 28.466 219.886 28.826V35H217.816Z" fill="#717484"/>
<path d="M230.966 38.906C230.438 38.906 229.946 38.858 229.49 38.762C229.046 38.666 228.662 38.522 228.338 38.33C228.014 38.138 227.756 37.898 227.564 37.61C227.384 37.322 227.294 36.986 227.294 36.602C227.294 36.23 227.402 35.882 227.618 35.558C227.834 35.246 228.146 34.964 228.554 34.712V34.64C228.326 34.496 228.134 34.304 227.978 34.064C227.834 33.824 227.762 33.524 227.762 33.164C227.762 32.816 227.858 32.504 228.05 32.228C228.254 31.94 228.482 31.706 228.734 31.526V31.454C228.434 31.226 228.164 30.914 227.924 30.518C227.696 30.11 227.582 29.642 227.582 29.114C227.582 28.61 227.678 28.16 227.87 27.764C228.062 27.368 228.314 27.038 228.626 26.774C228.95 26.498 229.322 26.294 229.742 26.162C230.162 26.018 230.606 25.946 231.074 25.946C231.314 25.946 231.542 25.97 231.758 26.018C231.986 26.054 232.19 26.102 232.37 26.162H235.538V27.692H233.918C234.062 27.86 234.182 28.076 234.278 28.34C234.374 28.592 234.422 28.874 234.422 29.186C234.422 29.678 234.332 30.11 234.152 30.482C233.984 30.854 233.75 31.166 233.45 31.418C233.15 31.67 232.796 31.862 232.388 31.994C231.98 32.126 231.542 32.192 231.074 32.192C230.882 32.192 230.684 32.174 230.48 32.138C230.276 32.102 230.072 32.042 229.868 31.958C229.736 32.078 229.628 32.198 229.544 32.318C229.472 32.438 229.436 32.6 229.436 32.804C229.436 33.056 229.538 33.254 229.742 33.398C229.958 33.542 230.336 33.614 230.876 33.614H232.442C233.51 33.614 234.314 33.788 234.854 34.136C235.406 34.472 235.682 35.024 235.682 35.792C235.682 36.224 235.568 36.632 235.34 37.016C235.124 37.4 234.812 37.73 234.404 38.006C233.996 38.282 233.498 38.498 232.91 38.654C232.334 38.822 231.686 38.906 230.966 38.906ZM231.074 30.896C231.494 30.896 231.854 30.746 232.154 30.446C232.454 30.134 232.604 29.69 232.604 29.114C232.604 28.562 232.454 28.136 232.154 27.836C231.866 27.524 231.506 27.368 231.074 27.368C230.642 27.368 230.276 27.518 229.976 27.818C229.676 28.118 229.526 28.55 229.526 29.114C229.526 29.69 229.676 30.134 229.976 30.446C230.276 30.746 230.642 30.896 231.074 30.896ZM231.29 37.556C232.01 37.556 232.586 37.412 233.018 37.124C233.462 36.848 233.684 36.518 233.684 36.134C233.684 35.786 233.546 35.552 233.27 35.432C233.006 35.312 232.622 35.252 232.118 35.252H230.912C230.432 35.252 230.03 35.21 229.706 35.126C229.25 35.474 229.022 35.864 229.022 36.296C229.022 36.692 229.22 36.998 229.616 37.214C230.024 37.442 230.582 37.556 231.29 37.556Z" fill="#717484"/>
<path d="M239.868 35.216C238.92 35.216 238.23 34.916 237.798 34.316C237.366 33.704 237.15 32.834 237.15 31.706V26.162H239.22V31.436C239.22 32.168 239.328 32.684 239.544 32.984C239.76 33.284 240.108 33.434 240.588 33.434C240.972 33.434 241.308 33.338 241.596 33.146C241.896 32.954 242.214 32.642 242.55 32.21V26.162H244.62V35H242.928L242.766 33.704H242.712C242.328 34.16 241.908 34.526 241.452 34.802C241.008 35.078 240.48 35.216 239.868 35.216Z" fill="#717484"/>
<path d="M249.384 35.216C248.604 35.216 247.974 34.982 247.494 34.514C247.014 34.034 246.774 33.404 246.774 32.624C246.774 32.156 246.87 31.742 247.062 31.382C247.266 31.01 247.578 30.692 247.998 30.428C248.43 30.164 248.97 29.942 249.618 29.762C250.278 29.582 251.064 29.444 251.976 29.348C251.964 29.12 251.928 28.904 251.868 28.7C251.82 28.484 251.73 28.298 251.598 28.142C251.478 27.974 251.316 27.848 251.112 27.764C250.908 27.668 250.656 27.62 250.356 27.62C249.924 27.62 249.498 27.704 249.078 27.872C248.67 28.04 248.268 28.244 247.872 28.484L247.116 27.098C247.608 26.786 248.16 26.516 248.772 26.288C249.384 26.06 250.044 25.946 250.752 25.946C251.856 25.946 252.678 26.276 253.218 26.936C253.77 27.584 254.046 28.526 254.046 29.762V35H252.336L252.192 34.028H252.12C251.724 34.364 251.298 34.646 250.842 34.874C250.398 35.102 249.912 35.216 249.384 35.216ZM250.05 33.596C250.41 33.596 250.734 33.512 251.022 33.344C251.322 33.176 251.64 32.936 251.976 32.624V30.644C251.376 30.716 250.872 30.812 250.464 30.932C250.056 31.052 249.726 31.19 249.474 31.346C249.222 31.49 249.042 31.658 248.934 31.85C248.826 32.042 248.772 32.246 248.772 32.462C248.772 32.858 248.892 33.146 249.132 33.326C249.372 33.506 249.678 33.596 250.05 33.596Z" fill="#717484"/>
<path d="M259.601 38.906C259.073 38.906 258.581 38.858 258.125 38.762C257.681 38.666 257.297 38.522 256.973 38.33C256.649 38.138 256.391 37.898 256.199 37.61C256.019 37.322 255.929 36.986 255.929 36.602C255.929 36.23 256.037 35.882 256.253 35.558C256.469 35.246 256.781 34.964 257.189 34.712V34.64C256.961 34.496 256.769 34.304 256.613 34.064C256.469 33.824 256.397 33.524 256.397 33.164C256.397 32.816 256.493 32.504 256.685 32.228C256.889 31.94 257.117 31.706 257.369 31.526V31.454C257.069 31.226 256.799 30.914 256.559 30.518C256.331 30.11 256.217 29.642 256.217 29.114C256.217 28.61 256.313 28.16 256.505 27.764C256.697 27.368 256.949 27.038 257.261 26.774C257.585 26.498 257.957 26.294 258.377 26.162C258.797 26.018 259.241 25.946 259.709 25.946C259.949 25.946 260.177 25.97 260.393 26.018C260.621 26.054 260.825 26.102 261.005 26.162H264.173V27.692H262.553C262.697 27.86 262.817 28.076 262.913 28.34C263.009 28.592 263.057 28.874 263.057 29.186C263.057 29.678 262.967 30.11 262.787 30.482C262.619 30.854 262.385 31.166 262.085 31.418C261.785 31.67 261.431 31.862 261.023 31.994C260.615 32.126 260.177 32.192 259.709 32.192C259.517 32.192 259.319 32.174 259.115 32.138C258.911 32.102 258.707 32.042 258.503 31.958C258.371 32.078 258.263 32.198 258.179 32.318C258.107 32.438 258.071 32.6 258.071 32.804C258.071 33.056 258.173 33.254 258.377 33.398C258.593 33.542 258.971 33.614 259.511 33.614H261.077C262.145 33.614 262.949 33.788 263.489 34.136C264.041 34.472 264.317 35.024 264.317 35.792C264.317 36.224 264.203 36.632 263.975 37.016C263.759 37.4 263.447 37.73 263.039 38.006C262.631 38.282 262.133 38.498 261.545 38.654C260.969 38.822 260.321 38.906 259.601 38.906ZM259.709 30.896C260.129 30.896 260.489 30.746 260.789 30.446C261.089 30.134 261.239 29.69 261.239 29.114C261.239 28.562 261.089 28.136 260.789 27.836C260.501 27.524 260.141 27.368 259.709 27.368C259.277 27.368 258.911 27.518 258.611 27.818C258.311 28.118 258.161 28.55 258.161 29.114C258.161 29.69 258.311 30.134 258.611 30.446C258.911 30.746 259.277 30.896 259.709 30.896ZM259.925 37.556C260.645 37.556 261.221 37.412 261.653 37.124C262.097 36.848 262.319 36.518 262.319 36.134C262.319 35.786 262.181 35.552 261.905 35.432C261.641 35.312 261.257 35.252 260.753 35.252H259.547C259.067 35.252 258.665 35.21 258.341 35.126C257.885 35.474 257.657 35.864 257.657 36.296C257.657 36.692 257.855 36.998 258.251 37.214C258.659 37.442 259.217 37.556 259.925 37.556Z" fill="#717484"/>
<path d="M269.373 35.216C268.761 35.216 268.191 35.114 267.663 34.91C267.135 34.694 266.673 34.388 266.277 33.992C265.881 33.596 265.569 33.116 265.341 32.552C265.125 31.976 265.017 31.322 265.017 30.59C265.017 29.87 265.131 29.222 265.359 28.646C265.587 28.07 265.887 27.584 266.259 27.188C266.643 26.792 267.081 26.486 267.573 26.27C268.065 26.054 268.569 25.946 269.085 25.946C269.685 25.946 270.213 26.048 270.669 26.252C271.125 26.456 271.503 26.744 271.803 27.116C272.115 27.488 272.349 27.932 272.505 28.448C272.661 28.964 272.739 29.528 272.739 30.14C272.739 30.344 272.727 30.536 272.703 30.716C272.691 30.896 272.673 31.04 272.649 31.148H267.033C267.129 31.94 267.405 32.552 267.861 32.984C268.329 33.404 268.923 33.614 269.643 33.614C270.027 33.614 270.381 33.56 270.705 33.452C271.041 33.332 271.371 33.17 271.695 32.966L272.397 34.262C271.977 34.538 271.509 34.766 270.993 34.946C270.477 35.126 269.937 35.216 269.373 35.216ZM267.015 29.744H270.939C270.939 29.06 270.789 28.526 270.489 28.142C270.201 27.746 269.751 27.548 269.139 27.548C268.611 27.548 268.149 27.734 267.753 28.106C267.357 28.478 267.111 29.024 267.015 29.744Z" fill="#717484"/>
<path d="M277.182 35.216C276.57 35.216 275.964 35.102 275.364 34.874C274.776 34.634 274.266 34.34 273.834 33.992L274.806 32.66C275.202 32.972 275.592 33.218 275.976 33.398C276.372 33.566 276.798 33.65 277.254 33.65C277.734 33.65 278.088 33.554 278.316 33.362C278.544 33.158 278.658 32.9 278.658 32.588C278.658 32.408 278.604 32.252 278.496 32.12C278.388 31.976 278.244 31.85 278.064 31.742C277.884 31.634 277.68 31.538 277.452 31.454C277.224 31.358 276.996 31.262 276.768 31.166C276.48 31.058 276.186 30.932 275.886 30.788C275.586 30.644 275.316 30.47 275.076 30.266C274.848 30.062 274.656 29.828 274.5 29.564C274.356 29.288 274.284 28.964 274.284 28.592C274.284 27.812 274.572 27.176 275.148 26.684C275.724 26.192 276.51 25.946 277.506 25.946C278.118 25.946 278.67 26.054 279.162 26.27C279.654 26.486 280.08 26.732 280.44 27.008L279.486 28.268C279.174 28.04 278.856 27.86 278.532 27.728C278.22 27.584 277.89 27.512 277.542 27.512C277.098 27.512 276.768 27.608 276.552 27.8C276.348 27.98 276.246 28.208 276.246 28.484C276.246 28.664 276.294 28.82 276.39 28.952C276.498 29.072 276.636 29.18 276.804 29.276C276.972 29.372 277.164 29.462 277.38 29.546C277.608 29.63 277.842 29.714 278.082 29.798C278.382 29.906 278.682 30.032 278.982 30.176C279.282 30.308 279.552 30.476 279.792 30.68C280.044 30.884 280.242 31.136 280.386 31.436C280.542 31.724 280.62 32.072 280.62 32.48C280.62 32.864 280.542 33.224 280.386 33.56C280.242 33.884 280.026 34.172 279.738 34.424C279.45 34.664 279.09 34.856 278.658 35C278.226 35.144 277.734 35.216 277.182 35.216Z" fill="#717484"/>
<path d="M19.5604 100V89.992H16.1584V88.228H25.0504V89.992H21.6484V100H19.5604Z" fill="#717484"/>
<path d="M29.1654 100.216C28.6134 100.216 28.0854 100.114 27.5814 99.91C27.0774 99.706 26.6274 99.406 26.2314 99.01C25.8474 98.614 25.5414 98.128 25.3134 97.552C25.0854 96.976 24.9714 96.322 24.9714 95.59C24.9714 94.858 25.0854 94.204 25.3134 93.628C25.5414 93.052 25.8474 92.566 26.2314 92.17C26.6274 91.774 27.0774 91.474 27.5814 91.27C28.0854 91.054 28.6134 90.946 29.1654 90.946C29.7174 90.946 30.2454 91.054 30.7494 91.27C31.2654 91.474 31.7154 91.774 32.0994 92.17C32.4834 92.566 32.7894 93.052 33.0174 93.628C33.2574 94.204 33.3774 94.858 33.3774 95.59C33.3774 96.322 33.2574 96.976 33.0174 97.552C32.7894 98.128 32.4834 98.614 32.0994 99.01C31.7154 99.406 31.2654 99.706 30.7494 99.91C30.2454 100.114 29.7174 100.216 29.1654 100.216ZM29.1654 98.524C29.8134 98.524 30.3234 98.26 30.6954 97.732C31.0674 97.192 31.2534 96.478 31.2534 95.59C31.2534 94.69 31.0674 93.976 30.6954 93.448C30.3234 92.908 29.8134 92.638 29.1654 92.638C28.5174 92.638 28.0074 92.908 27.6354 93.448C27.2754 93.976 27.0954 94.69 27.0954 95.59C27.0954 96.478 27.2754 97.192 27.6354 97.732C28.0074 98.26 28.5174 98.524 29.1654 98.524Z" fill="#717484"/>
<path d="M35.4263 103.492V91.162H37.1363L37.2803 92.098H37.3523C37.7243 91.786 38.1383 91.516 38.5943 91.288C39.0503 91.06 39.5243 90.946 40.0163 90.946C40.5683 90.946 41.0543 91.054 41.4743 91.27C41.9063 91.474 42.2723 91.774 42.5723 92.17C42.8723 92.566 43.1003 93.04 43.2563 93.592C43.4123 94.144 43.4903 94.762 43.4903 95.446C43.4903 96.202 43.3823 96.88 43.1663 97.48C42.9623 98.068 42.6863 98.566 42.3383 98.974C41.9903 99.37 41.5883 99.676 41.1323 99.892C40.6763 100.108 40.2023 100.216 39.7103 100.216C39.3263 100.216 38.9423 100.132 38.5583 99.964C38.1743 99.796 37.8023 99.556 37.4423 99.244L37.4963 100.72V103.492H35.4263ZM39.2783 98.506C39.8663 98.506 40.3583 98.254 40.7543 97.75C41.1503 97.234 41.3483 96.472 41.3483 95.464C41.3483 94.576 41.1983 93.886 40.8983 93.394C40.5983 92.902 40.1123 92.656 39.4403 92.656C38.8163 92.656 38.1683 92.986 37.4963 93.646V97.768C37.8203 98.044 38.1323 98.236 38.4323 98.344C38.7323 98.452 39.0143 98.506 39.2783 98.506Z" fill="#717484"/>
<path d="M49.37 100V88.228H53.348C53.96 88.228 54.53 88.288 55.058 88.408C55.586 88.528 56.042 88.726 56.426 89.002C56.81 89.266 57.11 89.62 57.326 90.064C57.554 90.508 57.668 91.06 57.668 91.72C57.668 92.62 57.452 93.346 57.02 93.898C56.6 94.45 56.036 94.846 55.328 95.086L58.136 100H55.796L53.258 95.392H51.458V100H49.37ZM51.458 93.736H53.132C53.936 93.736 54.548 93.568 54.968 93.232C55.4 92.896 55.616 92.392 55.616 91.72C55.616 91.036 55.4 90.562 54.968 90.298C54.548 90.034 53.936 89.902 53.132 89.902H51.458V93.736Z" fill="#717484"/>
<path d="M63.4466 100.216C62.8346 100.216 62.2646 100.114 61.7366 99.91C61.2086 99.694 60.7466 99.388 60.3506 98.992C59.9546 98.596 59.6426 98.116 59.4146 97.552C59.1986 96.976 59.0906 96.322 59.0906 95.59C59.0906 94.87 59.2046 94.222 59.4326 93.646C59.6606 93.07 59.9606 92.584 60.3326 92.188C60.7166 91.792 61.1546 91.486 61.6466 91.27C62.1386 91.054 62.6426 90.946 63.1586 90.946C63.7586 90.946 64.2866 91.048 64.7426 91.252C65.1986 91.456 65.5766 91.744 65.8766 92.116C66.1886 92.488 66.4226 92.932 66.5786 93.448C66.7346 93.964 66.8126 94.528 66.8126 95.14C66.8126 95.344 66.8006 95.536 66.7766 95.716C66.7646 95.896 66.7466 96.04 66.7226 96.148H61.1066C61.2026 96.94 61.4786 97.552 61.9346 97.984C62.4026 98.404 62.9966 98.614 63.7166 98.614C64.1006 98.614 64.4546 98.56 64.7786 98.452C65.1146 98.332 65.4446 98.17 65.7686 97.966L66.4706 99.262C66.0506 99.538 65.5826 99.766 65.0666 99.946C64.5506 100.126 64.0106 100.216 63.4466 100.216ZM61.0886 94.744H65.0126C65.0126 94.06 64.8626 93.526 64.5626 93.142C64.2746 92.746 63.8246 92.548 63.2126 92.548C62.6846 92.548 62.2226 92.734 61.8266 93.106C61.4306 93.478 61.1846 94.024 61.0886 94.744Z" fill="#717484"/>
<path d="M68.7896 103.492V91.162H70.4996L70.6436 92.098H70.7156C71.0876 91.786 71.5016 91.516 71.9576 91.288C72.4136 91.06 72.8876 90.946 73.3796 90.946C73.9316 90.946 74.4176 91.054 74.8376 91.27C75.2696 91.474 75.6356 91.774 75.9356 92.17C76.2356 92.566 76.4636 93.04 76.6196 93.592C76.7756 94.144 76.8536 94.762 76.8536 95.446C76.8536 96.202 76.7456 96.88 76.5296 97.48C76.3256 98.068 76.0496 98.566 75.7016 98.974C75.3536 99.37 74.9516 99.676 74.4956 99.892C74.0396 100.108 73.5656 100.216 73.0736 100.216C72.6896 100.216 72.3056 100.132 71.9216 99.964C71.5376 99.796 71.1656 99.556 70.8056 99.244L70.8596 100.72V103.492H68.7896ZM72.6416 98.506C73.2296 98.506 73.7216 98.254 74.1176 97.75C74.5136 97.234 74.7116 96.472 74.7116 95.464C74.7116 94.576 74.5616 93.886 74.2616 93.394C73.9616 92.902 73.4756 92.656 72.8036 92.656C72.1796 92.656 71.5316 92.986 70.8596 93.646V97.768C71.1836 98.044 71.4956 98.236 71.7956 98.344C72.0956 98.452 72.3776 98.506 72.6416 98.506Z" fill="#717484"/>
<path d="M82.5678 100.216C82.0158 100.216 81.4878 100.114 80.9838 99.91C80.4798 99.706 80.0298 99.406 79.6338 99.01C79.2498 98.614 78.9438 98.128 78.7158 97.552C78.4878 96.976 78.3738 96.322 78.3738 95.59C78.3738 94.858 78.4878 94.204 78.7158 93.628C78.9438 93.052 79.2498 92.566 79.6338 92.17C80.0298 91.774 80.4798 91.474 80.9838 91.27C81.4878 91.054 82.0158 90.946 82.5678 90.946C83.1198 90.946 83.6478 91.054 84.1518 91.27C84.6678 91.474 85.1178 91.774 85.5018 92.17C85.8858 92.566 86.1918 93.052 86.4198 93.628C86.6598 94.204 86.7798 94.858 86.7798 95.59C86.7798 96.322 86.6598 96.976 86.4198 97.552C86.1918 98.128 85.8858 98.614 85.5018 99.01C85.1178 99.406 84.6678 99.706 84.1518 99.91C83.6478 100.114 83.1198 100.216 82.5678 100.216ZM82.5678 98.524C83.2158 98.524 83.7258 98.26 84.0978 97.732C84.4698 97.192 84.6558 96.478 84.6558 95.59C84.6558 94.69 84.4698 93.976 84.0978 93.448C83.7258 92.908 83.2158 92.638 82.5678 92.638C81.9198 92.638 81.4098 92.908 81.0378 93.448C80.6778 93.976 80.4978 94.69 80.4978 95.59C80.4978 96.478 80.6778 97.192 81.0378 97.732C81.4098 98.26 81.9198 98.524 82.5678 98.524Z" fill="#717484"/>
<path d="M91.2243 100.216C90.6124 100.216 90.0064 100.102 89.4064 99.874C88.8184 99.634 88.3083 99.34 87.8764 98.992L88.8484 97.66C89.2444 97.972 89.6344 98.218 90.0184 98.398C90.4144 98.566 90.8404 98.65 91.2964 98.65C91.7764 98.65 92.1304 98.554 92.3584 98.362C92.5863 98.158 92.7004 97.9 92.7004 97.588C92.7004 97.408 92.6464 97.252 92.5384 97.12C92.4304 96.976 92.2864 96.85 92.1064 96.742C91.9264 96.634 91.7224 96.538 91.4944 96.454C91.2664 96.358 91.0384 96.262 90.8104 96.166C90.5224 96.058 90.2284 95.932 89.9284 95.788C89.6283 95.644 89.3584 95.47 89.1184 95.266C88.8904 95.062 88.6983 94.828 88.5424 94.564C88.3984 94.288 88.3264 93.964 88.3264 93.592C88.3264 92.812 88.6144 92.176 89.1904 91.684C89.7663 91.192 90.5524 90.946 91.5484 90.946C92.1604 90.946 92.7124 91.054 93.2044 91.27C93.6964 91.486 94.1224 91.732 94.4824 92.008L93.5284 93.268C93.2164 93.04 92.8984 92.86 92.5744 92.728C92.2624 92.584 91.9324 92.512 91.5844 92.512C91.1404 92.512 90.8104 92.608 90.5944 92.8C90.3904 92.98 90.2884 93.208 90.2884 93.484C90.2884 93.664 90.3363 93.82 90.4324 93.952C90.5404 94.072 90.6784 94.18 90.8464 94.276C91.0144 94.372 91.2064 94.462 91.4224 94.546C91.6504 94.63 91.8844 94.714 92.1244 94.798C92.4244 94.906 92.7243 95.032 93.0244 95.176C93.3244 95.308 93.5944 95.476 93.8344 95.68C94.0863 95.884 94.2844 96.136 94.4284 96.436C94.5844 96.724 94.6624 97.072 94.6624 97.48C94.6624 97.864 94.5844 98.224 94.4284 98.56C94.2844 98.884 94.0684 99.172 93.7804 99.424C93.4924 99.664 93.1324 99.856 92.7004 100C92.2684 100.144 91.7764 100.216 91.2243 100.216Z" fill="#717484"/>
<path d="M96.5103 100V91.162H98.5803V100H96.5103ZM97.5543 89.614C97.1823 89.614 96.8763 89.506 96.6363 89.29C96.3963 89.074 96.2763 88.792 96.2763 88.444C96.2763 88.096 96.3963 87.814 96.6363 87.598C96.8763 87.37 97.1823 87.256 97.5543 87.256C97.9263 87.256 98.2323 87.37 98.4723 87.598C98.7123 87.814 98.8323 88.096 98.8323 88.444C98.8323 88.792 98.7123 89.074 98.4723 89.29C98.2323 89.506 97.9263 89.614 97.5543 89.614Z" fill="#717484"/>
<path d="M104.335 100.216C103.819 100.216 103.381 100.138 103.021 99.982C102.673 99.826 102.385 99.61 102.157 99.334C101.941 99.046 101.779 98.71 101.671 98.326C101.575 97.93 101.527 97.492 101.527 97.012V92.8H100.267V91.252L101.635 91.162L101.887 88.75H103.615V91.162H105.865V92.8H103.615V97.012C103.615 98.044 104.029 98.56 104.857 98.56C105.013 98.56 105.169 98.542 105.325 98.506C105.493 98.47 105.643 98.422 105.775 98.362L106.135 99.892C105.895 99.976 105.619 100.048 105.307 100.108C105.007 100.18 104.683 100.216 104.335 100.216Z" fill="#717484"/>
<path d="M111.062 100.216C110.51 100.216 109.982 100.114 109.478 99.91C108.974 99.706 108.524 99.406 108.128 99.01C107.744 98.614 107.438 98.128 107.21 97.552C106.982 96.976 106.868 96.322 106.868 95.59C106.868 94.858 106.982 94.204 107.21 93.628C107.438 93.052 107.744 92.566 108.128 92.17C108.524 91.774 108.974 91.474 109.478 91.27C109.982 91.054 110.51 90.946 111.062 90.946C111.614 90.946 112.142 91.054 112.646 91.27C113.162 91.474 113.612 91.774 113.996 92.17C114.38 92.566 114.686 93.052 114.914 93.628C115.154 94.204 115.274 94.858 115.274 95.59C115.274 96.322 115.154 96.976 114.914 97.552C114.686 98.128 114.38 98.614 113.996 99.01C113.612 99.406 113.162 99.706 112.646 99.91C112.142 100.114 111.614 100.216 111.062 100.216ZM111.062 98.524C111.71 98.524 112.22 98.26 112.592 97.732C112.964 97.192 113.15 96.478 113.15 95.59C113.15 94.69 112.964 93.976 112.592 93.448C112.22 92.908 111.71 92.638 111.062 92.638C110.414 92.638 109.904 92.908 109.532 93.448C109.172 93.976 108.992 94.69 108.992 95.59C108.992 96.478 109.172 97.192 109.532 97.732C109.904 98.26 110.414 98.524 111.062 98.524Z" fill="#717484"/>
<path d="M117.323 100V91.162H119.033L119.177 92.728H119.249C119.561 92.152 119.939 91.714 120.383 91.414C120.827 91.102 121.283 90.946 121.751 90.946C122.171 90.946 122.507 91.006 122.759 91.126L122.399 92.926C122.243 92.878 122.099 92.842 121.967 92.818C121.835 92.794 121.673 92.782 121.481 92.782C121.133 92.782 120.767 92.92 120.383 93.196C119.999 93.46 119.669 93.928 119.393 94.6V100H117.323Z" fill="#717484"/>
<path d="M124.038 100V91.162H126.108V100H124.038ZM125.082 89.614C124.71 89.614 124.404 89.506 124.164 89.29C123.924 89.074 123.804 88.792 123.804 88.444C123.804 88.096 123.924 87.814 124.164 87.598C124.404 87.37 124.71 87.256 125.082 87.256C125.454 87.256 125.76 87.37 126 87.598C126.24 87.814 126.36 88.096 126.36 88.444C126.36 88.792 126.24 89.074 126 89.29C125.76 89.506 125.454 89.614 125.082 89.614Z" fill="#717484"/>
<path d="M132.529 100.216C131.917 100.216 131.347 100.114 130.819 99.91C130.291 99.694 129.829 99.388 129.433 98.992C129.037 98.596 128.725 98.116 128.497 97.552C128.281 96.976 128.173 96.322 128.173 95.59C128.173 94.87 128.287 94.222 128.515 93.646C128.743 93.07 129.043 92.584 129.415 92.188C129.799 91.792 130.237 91.486 130.729 91.27C131.221 91.054 131.725 90.946 132.241 90.946C132.841 90.946 133.369 91.048 133.825 91.252C134.281 91.456 134.659 91.744 134.959 92.116C135.271 92.488 135.505 92.932 135.661 93.448C135.817 93.964 135.895 94.528 135.895 95.14C135.895 95.344 135.883 95.536 135.859 95.716C135.847 95.896 135.829 96.04 135.805 96.148H130.189C130.285 96.94 130.561 97.552 131.017 97.984C131.485 98.404 132.079 98.614 132.799 98.614C133.183 98.614 133.537 98.56 133.861 98.452C134.197 98.332 134.527 98.17 134.851 97.966L135.553 99.262C135.133 99.538 134.665 99.766 134.149 99.946C133.633 100.126 133.093 100.216 132.529 100.216ZM130.171 94.744H134.095C134.095 94.06 133.945 93.526 133.645 93.142C133.357 92.746 132.907 92.548 132.295 92.548C131.767 92.548 131.305 92.734 130.909 93.106C130.513 93.478 130.267 94.024 130.171 94.744Z" fill="#717484"/>
<path d="M140.338 100.216C139.726 100.216 139.12 100.102 138.52 99.874C137.932 99.634 137.422 99.34 136.99 98.992L137.962 97.66C138.358 97.972 138.748 98.218 139.132 98.398C139.528 98.566 139.954 98.65 140.41 98.65C140.89 98.65 141.244 98.554 141.472 98.362C141.7 98.158 141.814 97.9 141.814 97.588C141.814 97.408 141.76 97.252 141.652 97.12C141.544 96.976 141.4 96.85 141.22 96.742C141.04 96.634 140.836 96.538 140.608 96.454C140.38 96.358 140.152 96.262 139.924 96.166C139.636 96.058 139.342 95.932 139.042 95.788C138.742 95.644 138.472 95.47 138.232 95.266C138.004 95.062 137.812 94.828 137.656 94.564C137.512 94.288 137.44 93.964 137.44 93.592C137.44 92.812 137.728 92.176 138.304 91.684C138.88 91.192 139.666 90.946 140.662 90.946C141.274 90.946 141.826 91.054 142.318 91.27C142.81 91.486 143.236 91.732 143.596 92.008L142.642 93.268C142.33 93.04 142.012 92.86 141.688 92.728C141.376 92.584 141.046 92.512 140.698 92.512C140.254 92.512 139.924 92.608 139.708 92.8C139.504 92.98 139.402 93.208 139.402 93.484C139.402 93.664 139.45 93.82 139.546 93.952C139.654 94.072 139.792 94.18 139.96 94.276C140.128 94.372 140.32 94.462 140.536 94.546C140.764 94.63 140.998 94.714 141.238 94.798C141.538 94.906 141.838 95.032 142.138 95.176C142.438 95.308 142.708 95.476 142.948 95.68C143.2 95.884 143.398 96.136 143.542 96.436C143.698 96.724 143.776 97.072 143.776 97.48C143.776 97.864 143.698 98.224 143.542 98.56C143.398 98.884 143.182 99.172 142.894 99.424C142.606 99.664 142.246 99.856 141.814 100C141.382 100.144 140.89 100.216 140.338 100.216Z" fill="#717484"/>
<rect width="138" height="12" transform="matrix(-1 0 0 1 320 148)" fill="#F4F4F6"/>
<rect width="57" height="12" transform="matrix(-1 0 0 1 320 173)" fill="#F4F4F6"/>
<rect width="39" height="12" transform="matrix(-1 0 0 1 320 198)" fill="#F4F4F6"/>
<rect width="24" height="12" transform="matrix(-1 0 0 1 320 223)" fill="#F4F4F6"/>
<circle cx="79.9986" cy="170.013" r="54.9983" fill="#FFF3EB"/>
<path d="M79.9982 143.528C79.9982 141.279 81.8291 139.428 84.0579 139.727C87.9448 140.248 91.7082 141.515 95.1368 143.47C98.5653 145.426 101.571 148.021 103.998 151.101C105.39 152.867 104.729 155.385 102.793 156.53C100.858 157.675 98.3854 157.002 96.9099 155.305C95.2618 153.41 93.3005 151.798 91.1021 150.544C88.9038 149.29 86.5177 148.422 84.0476 147.968C81.8359 147.562 79.9982 145.777 79.9982 143.528Z" fill="#F8C3B5"/>
<path d="M79.9985 150.657C79.9985 148.971 81.3719 147.582 83.0427 147.812C84.1879 147.969 85.3193 148.214 86.4267 148.546C88.0423 149.029 88.7168 150.862 88.018 152.397C87.3191 153.932 85.5097 154.579 83.8716 154.178C83.5941 154.11 83.3149 154.049 83.0343 153.996C81.3774 153.682 79.9985 152.344 79.9985 150.657Z" fill="#FCE1DA"/>
<path d="M79.9983 119.085C79.9983 116.835 81.8246 114.996 84.0681 115.162C91.6578 115.725 99.0636 117.859 105.81 121.445C113.758 125.669 120.548 131.779 125.583 139.239C130.619 146.699 133.747 155.281 134.692 164.232C135.638 173.183 134.372 182.229 131.006 190.577C127.64 198.925 122.277 206.319 115.387 212.11C108.497 217.902 100.291 221.914 91.4894 223.794C82.6874 225.675 73.5584 225.366 64.9033 222.896C57.5567 220.799 50.7422 217.199 44.8847 212.34C43.1531 210.904 43.1136 208.312 44.6741 206.691C46.2346 205.071 48.8031 205.038 50.5529 206.452C55.4366 210.398 61.0752 213.331 67.1393 215.062C74.5123 217.167 82.2891 217.429 89.7873 215.827C97.2855 214.225 104.276 210.807 110.145 205.874C116.014 200.94 120.583 194.641 123.45 187.53C126.318 180.419 127.396 172.713 126.591 165.088C125.785 157.463 123.121 150.152 118.831 143.797C114.541 137.442 108.757 132.237 101.987 128.639C96.4178 125.679 90.3217 123.881 84.0667 123.335C81.8255 123.14 79.9983 121.335 79.9983 119.085Z" fill="#ED6A45"/>
<path d="M79.9984 127.234C79.9984 124.984 81.8255 123.142 84.0667 123.338C93.3827 124.149 102.277 127.736 109.578 133.679C117.934 140.482 123.69 149.958 125.875 160.51C128.061 171.062 126.542 182.045 121.574 191.608C117.235 199.961 110.496 206.785 102.268 211.23C100.289 212.299 97.8807 211.335 96.9872 209.27C96.0938 207.205 97.0567 204.826 99.016 203.72C105.531 200.045 110.869 194.542 114.345 187.852C118.448 179.953 119.703 170.88 117.898 162.162C116.093 153.445 111.338 145.617 104.434 139.996C98.5879 135.237 91.5035 132.307 84.0643 131.521C81.8271 131.285 79.9984 129.484 79.9984 127.234Z" fill="#F0876A"/>
<path d="M79.9987 135.382C79.9987 133.132 81.8275 131.286 84.0649 131.523C88.3981 131.98 92.633 133.168 96.5873 135.044C101.772 137.503 106.344 141.085 109.974 145.529C113.604 149.973 116.2 155.169 117.574 160.74C118.623 164.989 118.941 169.376 118.524 173.713C118.309 175.953 116.134 177.376 113.93 176.927C111.725 176.477 110.331 174.324 110.484 172.079C110.697 168.934 110.423 165.767 109.664 162.691C108.579 158.293 106.529 154.191 103.664 150.683C100.798 147.174 97.1881 144.347 93.0952 142.405C90.2328 141.047 87.1843 140.146 84.0604 139.727C81.8305 139.428 79.9987 137.632 79.9987 135.382Z" fill="#F4A590"/>
</svg>
