<svg width="100" height="100" viewBox="0 0 320 240" fill="none" xmlns="http://www.w3.org/2000/svg">
<path d="M320 0H0V240H320V0Z" fill="white"/>
<path d="M222.353 102.506C222.821 102.506 223.241 102.404 223.613 102.2C223.985 101.996 224.303 101.702 224.567 101.318C224.831 100.934 225.035 100.466 225.179 99.914C225.323 99.362 225.395 98.744 225.395 98.06C225.395 96.74 225.119 95.708 224.567 94.964C224.027 94.208 223.289 93.83 222.353 93.83C221.417 93.83 220.673 94.208 220.121 94.964C219.581 95.708 219.311 96.74 219.311 98.06C219.311 98.744 219.383 99.362 219.527 99.914C219.671 100.466 219.875 100.934 220.139 101.318C220.403 101.702 220.721 101.996 221.093 102.2C221.465 102.404 221.885 102.506 222.353 102.506ZM226.097 107.132C224.921 107.132 223.937 106.85 223.145 106.286C222.353 105.722 221.765 105.002 221.381 104.126C220.745 104.018 220.169 103.802 219.653 103.478C219.137 103.142 218.693 102.716 218.321 102.2C217.949 101.684 217.661 101.078 217.457 100.382C217.265 99.686 217.169 98.912 217.169 98.06C217.169 97.112 217.295 96.266 217.547 95.522C217.799 94.766 218.153 94.13 218.609 93.614C219.065 93.098 219.611 92.702 220.247 92.426C220.883 92.15 221.585 92.012 222.353 92.012C223.121 92.012 223.823 92.15 224.459 92.426C225.095 92.702 225.641 93.098 226.097 93.614C226.565 94.13 226.925 94.766 227.177 95.522C227.429 96.266 227.555 97.112 227.555 98.06C227.555 98.876 227.459 99.626 227.267 100.31C227.087 100.982 226.823 101.576 226.475 102.092C226.127 102.608 225.707 103.034 225.215 103.37C224.735 103.706 224.195 103.94 223.595 104.072C223.871 104.54 224.249 104.882 224.729 105.098C225.221 105.314 225.755 105.422 226.331 105.422C226.595 105.422 226.829 105.404 227.033 105.368C227.249 105.344 227.441 105.302 227.609 105.242L227.987 106.79C227.783 106.886 227.519 106.964 227.195 107.024C226.871 107.096 226.505 107.132 226.097 107.132Z" fill="#717484"/>
<path d="M232.358 104.216C231.41 104.216 230.72 103.916 230.288 103.316C229.856 102.704 229.64 101.834 229.64 100.706V95.162H231.71V100.436C231.71 101.168 231.818 101.684 232.034 101.984C232.25 102.284 232.598 102.434 233.078 102.434C233.462 102.434 233.798 102.338 234.086 102.146C234.386 101.954 234.704 101.642 235.04 101.21V95.162H237.11V104H235.418L235.256 102.704H235.202C234.818 103.16 234.398 103.526 233.942 103.802C233.498 104.078 232.97 104.216 232.358 104.216Z" fill="#717484"/>
<path d="M241.874 104.216C241.094 104.216 240.464 103.982 239.984 103.514C239.504 103.034 239.264 102.404 239.264 101.624C239.264 101.156 239.36 100.742 239.552 100.382C239.756 100.01 240.068 99.692 240.488 99.428C240.92 99.164 241.46 98.942 242.108 98.762C242.768 98.582 243.554 98.444 244.466 98.348C244.454 98.12 244.418 97.904 244.358 97.7C244.31 97.484 244.22 97.298 244.088 97.142C243.968 96.974 243.806 96.848 243.602 96.764C243.398 96.668 243.146 96.62 242.846 96.62C242.414 96.62 241.988 96.704 241.568 96.872C241.16 97.04 240.758 97.244 240.362 97.484L239.606 96.098C240.098 95.786 240.65 95.516 241.262 95.288C241.874 95.06 242.534 94.946 243.242 94.946C244.346 94.946 245.168 95.276 245.708 95.936C246.26 96.584 246.536 97.526 246.536 98.762V104H244.826L244.682 103.028H244.61C244.214 103.364 243.788 103.646 243.332 103.874C242.888 104.102 242.402 104.216 241.874 104.216ZM242.54 102.596C242.9 102.596 243.224 102.512 243.512 102.344C243.812 102.176 244.13 101.936 244.466 101.624V99.644C243.866 99.716 243.362 99.812 242.954 99.932C242.546 100.052 242.216 100.19 241.964 100.346C241.712 100.49 241.532 100.658 241.424 100.85C241.316 101.042 241.262 101.246 241.262 101.462C241.262 101.858 241.382 102.146 241.622 102.326C241.862 102.506 242.168 102.596 242.54 102.596Z" fill="#717484"/>
<path d="M251.029 104.216C250.285 104.216 249.763 103.994 249.463 103.55C249.163 103.106 249.013 102.5 249.013 101.732V91.292H251.083V101.84C251.083 102.092 251.131 102.272 251.227 102.38C251.323 102.476 251.425 102.524 251.533 102.524C251.581 102.524 251.623 102.524 251.659 102.524C251.707 102.524 251.773 102.512 251.857 102.488L252.127 104.036C251.851 104.156 251.485 104.216 251.029 104.216Z" fill="#717484"/>
<path d="M253.9 104V95.162H255.97V104H253.9ZM254.944 93.614C254.572 93.614 254.266 93.506 254.026 93.29C253.786 93.074 253.666 92.792 253.666 92.444C253.666 92.096 253.786 91.814 254.026 91.598C254.266 91.37 254.572 91.256 254.944 91.256C255.316 91.256 255.622 91.37 255.862 91.598C256.102 91.814 256.222 92.096 256.222 92.444C256.222 92.792 256.102 93.074 255.862 93.29C255.622 93.506 255.316 93.614 254.944 93.614Z" fill="#717484"/>
<path d="M261.725 104.216C261.209 104.216 260.771 104.138 260.411 103.982C260.063 103.826 259.775 103.61 259.547 103.334C259.331 103.046 259.169 102.71 259.061 102.326C258.965 101.93 258.917 101.492 258.917 101.012V96.8H257.657V95.252L259.025 95.162L259.277 92.75H261.005V95.162H263.255V96.8H261.005V101.012C261.005 102.044 261.419 102.56 262.247 102.56C262.403 102.56 262.559 102.542 262.715 102.506C262.883 102.47 263.033 102.422 263.165 102.362L263.525 103.892C263.285 103.976 263.009 104.048 262.697 104.108C262.397 104.18 262.073 104.216 261.725 104.216Z" fill="#717484"/>
<path d="M265.709 107.636C265.469 107.636 265.259 107.618 265.079 107.582C264.899 107.558 264.725 107.516 264.557 107.456L264.935 105.836C265.019 105.86 265.115 105.884 265.223 105.908C265.343 105.944 265.457 105.962 265.565 105.962C266.033 105.962 266.405 105.818 266.681 105.53C266.969 105.254 267.185 104.894 267.329 104.45L267.491 103.892L264.017 95.162H266.123L267.653 99.5C267.785 99.884 267.911 100.292 268.031 100.724C268.163 101.144 268.295 101.564 268.427 101.984H268.499C268.607 101.576 268.715 101.162 268.823 100.742C268.943 100.31 269.057 99.896 269.165 99.5L270.497 95.162H272.495L269.291 104.396C269.111 104.9 268.913 105.35 268.697 105.746C268.481 106.142 268.229 106.478 267.941 106.754C267.665 107.042 267.341 107.258 266.969 107.402C266.609 107.558 266.189 107.636 265.709 107.636Z" fill="#717484"/>
<path d="M21.4941 26V14.228H28.5861V15.992H23.5821V18.998H27.8121V20.762H23.5821V24.236H28.7661V26H21.4941Z" fill="#717484"/>
<path d="M31.1797 26V14.228H33.2677V24.236H38.1637V26H31.1797Z" fill="#717484"/>
<path d="M44.2243 26.216C43.4563 26.216 42.7543 26.078 42.1183 25.802C41.4823 25.514 40.9363 25.106 40.4803 24.578C40.0243 24.038 39.6703 23.39 39.4183 22.634C39.1663 21.878 39.0403 21.02 39.0403 20.06C39.0403 19.112 39.1663 18.266 39.4183 17.522C39.6703 16.766 40.0243 16.13 40.4803 15.614C40.9363 15.098 41.4823 14.702 42.1183 14.426C42.7543 14.15 43.4563 14.012 44.2243 14.012C44.9923 14.012 45.6943 14.15 46.3303 14.426C46.9663 14.702 47.5123 15.098 47.9683 15.614C48.4363 16.13 48.7963 16.766 49.0483 17.522C49.3003 18.266 49.4263 19.112 49.4263 20.06C49.4263 21.02 49.3003 21.878 49.0483 22.634C48.7963 23.39 48.4363 24.038 47.9683 24.578C47.5123 25.106 46.9663 25.514 46.3303 25.802C45.6943 26.078 44.9923 26.216 44.2243 26.216ZM44.2243 24.398C44.6923 24.398 45.1123 24.296 45.4843 24.092C45.8563 23.888 46.1743 23.6 46.4383 23.228C46.7023 22.844 46.9063 22.388 47.0503 21.86C47.1943 21.32 47.2663 20.72 47.2663 20.06C47.2663 18.74 46.9903 17.708 46.4383 16.964C45.8983 16.208 45.1603 15.83 44.2243 15.83C43.2883 15.83 42.5443 16.208 41.9923 16.964C41.4523 17.708 41.1823 18.74 41.1823 20.06C41.1823 20.72 41.2543 21.32 41.3983 21.86C41.5423 22.388 41.7463 22.844 42.0103 23.228C42.2743 23.6 42.5923 23.888 42.9643 24.092C43.3363 24.296 43.7563 24.398 44.2243 24.398Z" fill="#717484"/>
<path d="M56.4793 26.216C55.7353 26.216 55.0392 26.084 54.3913 25.82C53.7433 25.556 53.1792 25.166 52.6992 24.65C52.2312 24.134 51.8592 23.498 51.5833 22.742C51.3073 21.986 51.1693 21.122 51.1693 20.15C51.1693 19.19 51.3073 18.332 51.5833 17.576C51.8713 16.808 52.2553 16.16 52.7353 15.632C53.2273 15.104 53.7973 14.702 54.4453 14.426C55.1053 14.15 55.8073 14.012 56.5513 14.012C57.2952 14.012 57.9552 14.162 58.5312 14.462C59.1073 14.762 59.5813 15.11 59.9533 15.506L58.8372 16.856C58.5252 16.544 58.1893 16.298 57.8293 16.118C57.4692 15.926 57.0613 15.83 56.6053 15.83C56.1253 15.83 55.6813 15.932 55.2733 16.136C54.8773 16.328 54.5293 16.61 54.2293 16.982C53.9413 17.342 53.7132 17.786 53.5452 18.314C53.3892 18.842 53.3113 19.436 53.3113 20.096C53.3113 21.44 53.5993 22.496 54.1753 23.264C54.7633 24.02 55.5553 24.398 56.5513 24.398C57.0793 24.398 57.5472 24.29 57.9552 24.074C58.3633 23.846 58.7353 23.552 59.0713 23.192L60.1872 24.506C59.7072 25.058 59.1553 25.484 58.5312 25.784C57.9193 26.072 57.2353 26.216 56.4793 26.216Z" fill="#717484"/>
<rect x="77.6924" y="179.231" width="15.3846" height="60.7692" fill="#FFF8F3"/>
<rect y="152.308" width="14.6154" height="87.6923" fill="#FFF8F3"/>
<rect x="117" y="148" width="15" height="92" fill="#FFF8F3"/>
<rect x="39.231" y="200.769" width="14.6154" height="39.2308" fill="#FFF8F3"/>
<rect x="156.154" y="117.692" width="14.6154" height="122.308" fill="#FFF8F3"/>
<rect x="194.615" y="152.308" width="15.3846" height="87.6923" fill="#FFF8F3"/>
<path d="M20 131H195.794" stroke="#DEDFE3"/>
<line x1="55.6592" y1="129.18" x2="55.6592" y2="131" stroke="#DEDFE3"/>
<line x1="90.8179" y1="129.18" x2="90.8179" y2="131" stroke="#DEDFE3"/>
<line x1="125.977" y1="129.18" x2="125.977" y2="131" stroke="#DEDFE3"/>
<line x1="161.136" y1="129.18" x2="161.136" y2="131" stroke="#DEDFE3"/>
<path d="M20 108.25H195.794" stroke="#DEDFE3"/>
<path d="M20 85.5H195.794" stroke="#DEDFE3"/>
<path d="M20 62.7501H195.794" stroke="#DEDFE3"/>
<path d="M20 40H195.794" stroke="#DEDFE3"/>
<path d="M195.795 101.88C195.795 101.88 174.952 112.34 160.753 114.847C147.148 117.25 139.173 112.883 125.516 114.847C111.42 116.874 104.473 124.728 90.2787 125.312C76.3107 125.887 69.0173 117.851 55.0415 118.032C41.085 118.214 20 126.204 20 126.204V131H195.795V101.88Z" fill="#9EE8FF"/>
<path d="M195.795 102.107C195.795 102.107 174.952 112.567 160.753 115.075C147.148 117.478 139.173 113.111 125.516 115.075C111.42 117.102 104.473 124.956 90.2787 125.54C76.3107 126.115 69.0173 118.078 55.0415 118.26C41.085 118.441 20 126.432 20 126.432V119.17C20 119.17 40.788 108.156 55.0415 105.52C68.6314 103.007 76.5407 106.445 90.2787 105.52C104.11 104.589 111.904 103.742 125.516 100.742C139.508 97.6594 146.666 92.2577 160.753 89.8225C174.299 87.4809 195.795 88.23 195.795 88.23V102.107Z" fill="#BFC6FF"/>
<path d="M195.795 84.7082C195.795 84.7082 174.408 79.5976 160.753 81.2957C146.401 83.0807 139.564 90.4076 125.516 94.2632C111.951 97.9863 104.173 99.5766 90.2787 100.861C76.561 102.128 68.7584 99.5826 55.0415 100.861C41.2228 102.148 20 107.458 20 107.458V119.288C20 119.288 40.788 108.274 55.0415 105.638C68.6314 103.125 76.5407 106.563 90.2787 105.638C104.11 104.707 111.904 103.86 125.516 100.861C139.508 97.7776 146.666 92.3759 160.753 89.9407C174.299 87.5991 195.795 88.3482 195.795 88.3482V84.7082Z" fill="#FDC8F5"/>
<path d="M195.795 85.4353C195.795 85.4353 174.408 80.3247 160.753 82.0228C146.401 83.8078 139.564 91.1347 125.516 94.9903C111.951 98.7134 104.173 100.304 90.2787 101.588C76.561 102.856 68.7584 100.31 55.0415 101.588C41.2228 102.875 20 108.185 20 108.185V82.0228C20 82.0228 40.5504 95.3018 55.0415 96.5828C68.9915 97.816 76.4151 91.2587 90.2787 89.0753C103.969 86.9193 111.932 88.3602 125.516 85.4353C139.6 82.4029 146.49 75.1369 160.753 73.6053C174.434 72.1363 195.795 77.2453 195.795 77.2453V85.4353Z" fill="#A8F1CE"/>
<path d="M195.795 66.9699C195.795 66.9699 174.425 67.6713 160.754 66.9699C146.952 66.2618 139.312 62.4755 125.516 63.3299C111.503 64.1978 103.687 66.7062 90.2792 71.5199C75.9499 76.6643 70.037 88.951 55.0419 89.2649C40.4056 89.5712 20.0005 73.7949 20.0005 73.7949V82.2124C20.0005 82.2124 40.5509 95.4913 55.0419 96.7723C68.992 98.0055 76.4155 91.4482 90.2792 89.2649C103.969 87.1088 111.932 88.5497 125.516 85.6249C139.6 82.5924 146.491 75.3264 160.754 73.7949C174.434 72.3258 195.795 77.4349 195.795 77.4349V66.9699Z" fill="#F4A590"/>
<rect x="187.707" y="173.723" width="79.2178" height="79.2178" transform="rotate(-45 187.707 173.723)" fill="white" stroke="#DEDFE3"/>
<rect x="201.928" y="173.762" width="59.1633" height="59.1633" transform="rotate(-45 201.928 173.762)" stroke="#DEDFE3"/>
<rect x="216.148" y="173.802" width="39.1089" height="39.1089" transform="rotate(-45 216.148 173.802)" stroke="#DEDFE3"/>
<rect x="230.368" y="173.842" width="19.0544" height="19.0544" transform="rotate(-45 230.368 173.842)" stroke="#DEDFE3"/>
<path d="M187.365 173.517L300.034 173.517" stroke="#DEDFE3"/>
<path d="M243.882 230.034V117.365" stroke="#DEDFE3"/>
<path d="M261.384 173.517L243.699 151.457L212.524 173.517L243.699 199.588L261.384 173.517Z" fill="#F4F4F6" fill-opacity="0.6" stroke="#717484"/>
<path d="M267.218 173.517L243.699 138.878L225.65 173.517L243.699 206.698L267.218 173.517Z" fill="#FFF3EB" fill-opacity="0.6" stroke="#ED6A45"/>
</svg>
