<svg width="320" height="240" viewBox="0 0 320 240" fill="none" xmlns="http://www.w3.org/2000/svg">
<path d="M320 0H0V240H320V0Z" fill="white"/>
<path d="M19.0878 26V15.992H15.6858V14.228H24.5778V15.992H21.1758V26H19.0878Z" fill="#717484"/>
<path d="M28.6928 26.216C28.1408 26.216 27.6128 26.114 27.1088 25.91C26.6048 25.706 26.1548 25.406 25.7588 25.01C25.3748 24.614 25.0688 24.128 24.8408 23.552C24.6128 22.976 24.4988 22.322 24.4988 21.59C24.4988 20.858 24.6128 20.204 24.8408 19.628C25.0688 19.052 25.3748 18.566 25.7588 18.17C26.1548 17.774 26.6048 17.474 27.1088 17.27C27.6128 17.054 28.1408 16.946 28.6928 16.946C29.2448 16.946 29.7728 17.054 30.2768 17.27C30.7928 17.474 31.2428 17.774 31.6268 18.17C32.0108 18.566 32.3168 19.052 32.5448 19.628C32.7848 20.204 32.9048 20.858 32.9048 21.59C32.9048 22.322 32.7848 22.976 32.5448 23.552C32.3168 24.128 32.0108 24.614 31.6268 25.01C31.2428 25.406 30.7928 25.706 30.2768 25.91C29.7728 26.114 29.2448 26.216 28.6928 26.216ZM28.6928 24.524C29.3408 24.524 29.8508 24.26 30.2228 23.732C30.5948 23.192 30.7808 22.478 30.7808 21.59C30.7808 20.69 30.5948 19.976 30.2228 19.448C29.8508 18.908 29.3408 18.638 28.6928 18.638C28.0448 18.638 27.5348 18.908 27.1628 19.448C26.8028 19.976 26.6228 20.69 26.6228 21.59C26.6228 22.478 26.8028 23.192 27.1628 23.732C27.5348 24.26 28.0448 24.524 28.6928 24.524Z" fill="#717484"/>
<path d="M37.6634 26.216C37.1474 26.216 36.7094 26.138 36.3494 25.982C36.0014 25.826 35.7134 25.61 35.4854 25.334C35.2694 25.046 35.1074 24.71 34.9994 24.326C34.9034 23.93 34.8554 23.492 34.8554 23.012V18.8H33.5954V17.252L34.9634 17.162L35.2154 14.75H36.9434V17.162H39.1934V18.8H36.9434V23.012C36.9434 24.044 37.3574 24.56 38.1854 24.56C38.3414 24.56 38.4974 24.542 38.6534 24.506C38.8214 24.47 38.9714 24.422 39.1034 24.362L39.4634 25.892C39.2234 25.976 38.9474 26.048 38.6354 26.108C38.3354 26.18 38.0114 26.216 37.6634 26.216Z" fill="#717484"/>
<path d="M42.8086 26.216C42.0286 26.216 41.3986 25.982 40.9186 25.514C40.4386 25.034 40.1986 24.404 40.1986 23.624C40.1986 23.156 40.2946 22.742 40.4866 22.382C40.6906 22.01 41.0026 21.692 41.4226 21.428C41.8546 21.164 42.3946 20.942 43.0426 20.762C43.7026 20.582 44.4886 20.444 45.4006 20.348C45.3886 20.12 45.3526 19.904 45.2926 19.7C45.2446 19.484 45.1546 19.298 45.0226 19.142C44.9026 18.974 44.7406 18.848 44.5366 18.764C44.3326 18.668 44.0806 18.62 43.7806 18.62C43.3486 18.62 42.9226 18.704 42.5026 18.872C42.0946 19.04 41.6926 19.244 41.2966 19.484L40.5406 18.098C41.0326 17.786 41.5846 17.516 42.1966 17.288C42.8086 17.06 43.4686 16.946 44.1766 16.946C45.2806 16.946 46.1026 17.276 46.6426 17.936C47.1946 18.584 47.4706 19.526 47.4706 20.762V26H45.7606L45.6166 25.028H45.5446C45.1486 25.364 44.7226 25.646 44.2666 25.874C43.8226 26.102 43.3366 26.216 42.8086 26.216ZM43.4746 24.596C43.8346 24.596 44.1586 24.512 44.4466 24.344C44.7466 24.176 45.0646 23.936 45.4006 23.624V21.644C44.8006 21.716 44.2966 21.812 43.8886 21.932C43.4806 22.052 43.1506 22.19 42.8986 22.346C42.6466 22.49 42.4666 22.658 42.3586 22.85C42.2506 23.042 42.1966 23.246 42.1966 23.462C42.1966 23.858 42.3166 24.146 42.5566 24.326C42.7966 24.506 43.1026 24.596 43.4746 24.596Z" fill="#717484"/>
<path d="M51.9638 26.216C51.2198 26.216 50.6978 25.994 50.3978 25.55C50.0978 25.106 49.9478 24.5 49.9478 23.732V13.292H52.0178V23.84C52.0178 24.092 52.0658 24.272 52.1618 24.38C52.2578 24.476 52.3598 24.524 52.4678 24.524C52.5158 24.524 52.5578 24.524 52.5938 24.524C52.6418 24.524 52.7078 24.512 52.7918 24.488L53.0618 26.036C52.7858 26.156 52.4198 26.216 51.9638 26.216Z" fill="#717484"/>
<path d="M58.618 26V14.228H65.71V15.992H60.706V18.998H64.936V20.762H60.706V24.236H65.89V26H58.618Z" fill="#717484"/>
<path d="M68.3036 26V14.228H70.3916V24.236H75.2876V26H68.3036Z" fill="#717484"/>
<path d="M81.3482 26.216C80.5802 26.216 79.8782 26.078 79.2422 25.802C78.6062 25.514 78.0602 25.106 77.6042 24.578C77.1482 24.038 76.7942 23.39 76.5422 22.634C76.2902 21.878 76.1642 21.02 76.1642 20.06C76.1642 19.112 76.2902 18.266 76.5422 17.522C76.7942 16.766 77.1482 16.13 77.6042 15.614C78.0602 15.098 78.6062 14.702 79.2422 14.426C79.8782 14.15 80.5802 14.012 81.3482 14.012C82.1162 14.012 82.8182 14.15 83.4542 14.426C84.0902 14.702 84.6362 15.098 85.0922 15.614C85.5602 16.13 85.9202 16.766 86.1722 17.522C86.4242 18.266 86.5502 19.112 86.5502 20.06C86.5502 21.02 86.4242 21.878 86.1722 22.634C85.9202 23.39 85.5602 24.038 85.0922 24.578C84.6362 25.106 84.0902 25.514 83.4542 25.802C82.8182 26.078 82.1162 26.216 81.3482 26.216ZM81.3482 24.398C81.8162 24.398 82.2362 24.296 82.6082 24.092C82.9802 23.888 83.2982 23.6 83.5622 23.228C83.8262 22.844 84.0303 22.388 84.1742 21.86C84.3182 21.32 84.3902 20.72 84.3902 20.06C84.3902 18.74 84.1142 17.708 83.5622 16.964C83.0222 16.208 82.2842 15.83 81.3482 15.83C80.4122 15.83 79.6682 16.208 79.1162 16.964C78.5762 17.708 78.3062 18.74 78.3062 20.06C78.3062 20.72 78.3782 21.32 78.5222 21.86C78.6662 22.388 78.8702 22.844 79.1342 23.228C79.3982 23.6 79.7162 23.888 80.0882 24.092C80.4602 24.296 80.8802 24.398 81.3482 24.398Z" fill="#717484"/>
<path d="M93.6031 26.216C92.8591 26.216 92.1632 26.084 91.5152 25.82C90.8671 25.556 90.3032 25.166 89.8232 24.65C89.3551 24.134 88.9832 23.498 88.7072 22.742C88.4312 21.986 88.2932 21.122 88.2932 20.15C88.2932 19.19 88.4312 18.332 88.7072 17.576C88.9952 16.808 89.3792 16.16 89.8592 15.632C90.3512 15.104 90.9212 14.702 91.5692 14.426C92.2292 14.15 92.9311 14.012 93.6751 14.012C94.4192 14.012 95.0792 14.162 95.6552 14.462C96.2311 14.762 96.7051 15.11 97.0771 15.506L95.9612 16.856C95.6492 16.544 95.3131 16.298 94.9531 16.118C94.5931 15.926 94.1852 15.83 93.7291 15.83C93.2491 15.83 92.8051 15.932 92.3971 16.136C92.0011 16.328 91.6532 16.61 91.3531 16.982C91.0651 17.342 90.8372 17.786 90.6692 18.314C90.5132 18.842 90.4352 19.436 90.4352 20.096C90.4352 21.44 90.7232 22.496 91.2991 23.264C91.8871 24.02 92.6791 24.398 93.6751 24.398C94.2031 24.398 94.6712 24.29 95.0791 24.074C95.4871 23.846 95.8592 23.552 96.1952 23.192L97.3111 24.506C96.8311 25.058 96.2792 25.484 95.6552 25.784C95.0432 26.072 94.3591 26.216 93.6031 26.216Z" fill="#717484"/>
<path d="M39.8 198H299" stroke="#DEDFE3"/>
<line x1="92.1401" y1="195.696" x2="92.1401" y2="198" stroke="#DEDFE3"/>
<line x1="40.3" y1="195.696" x2="40.3" y2="198" stroke="#DEDFE3"/>
<line x1="143.98" y1="195.696" x2="143.98" y2="198" stroke="#DEDFE3"/>
<line x1="195.82" y1="195.696" x2="195.82" y2="198" stroke="#DEDFE3"/>
<line x1="247.66" y1="195.696" x2="247.66" y2="198" stroke="#DEDFE3"/>
<line x1="298.924" y1="195.696" x2="298.924" y2="198" stroke="#DEDFE3"/>
<path d="M39.8 169.2H299" stroke="#DEDFE3"/>
<path d="M39.8 140.4H299" stroke="#DEDFE3"/>
<path d="M39.8 111.6H299" stroke="#DEDFE3"/>
<path d="M39.8 82.7999H299" stroke="#DEDFE3"/>
<path d="M39.8 54H299" stroke="#DEDFE3"/>
<path d="M15.56 174V173.314C16.232 172.642 16.8294 172.035 17.352 171.494C17.8747 170.953 18.3134 170.453 18.668 169.996C19.0227 169.529 19.2934 169.105 19.48 168.722C19.6667 168.33 19.76 167.952 19.76 167.588C19.76 167.075 19.62 166.655 19.34 166.328C19.06 166.001 18.6354 165.838 18.066 165.838C17.6927 165.838 17.3474 165.945 17.03 166.16C16.7127 166.365 16.4234 166.617 16.162 166.916L15.504 166.258C15.8774 165.847 16.274 165.521 16.694 165.278C17.114 165.026 17.618 164.9 18.206 164.9C19.0367 164.9 19.69 165.143 20.166 165.628C20.642 166.104 20.88 166.739 20.88 167.532C20.88 167.952 20.7867 168.377 20.6 168.806C20.4227 169.226 20.1707 169.665 19.844 170.122C19.5267 170.57 19.144 171.041 18.696 171.536C18.2574 172.021 17.772 172.539 17.24 173.09C17.4827 173.071 17.7347 173.053 17.996 173.034C18.2574 173.015 18.5047 173.006 18.738 173.006H21.328V174H15.56Z" fill="#717484"/>
<path d="M23.107 174V164.032H24.241V170.78H24.283L27.181 167.196H28.455L26.173 169.926L28.763 174H27.503L25.515 170.724L24.241 172.208V174H23.107Z" fill="#717484"/>
<path d="M22.486 203.168C21.5807 203.168 20.876 202.767 20.372 201.964C19.868 201.161 19.616 200.009 19.616 198.506C19.616 197.003 19.868 195.86 20.372 195.076C20.876 194.292 21.5807 193.9 22.486 193.9C23.382 193.9 24.082 194.292 24.586 195.076C25.09 195.86 25.342 197.003 25.342 198.506C25.342 200.009 25.09 201.161 24.586 201.964C24.082 202.767 23.382 203.168 22.486 203.168ZM22.486 202.244C22.7474 202.244 22.9807 202.174 23.186 202.034C23.4007 201.885 23.5827 201.661 23.732 201.362C23.8907 201.054 24.012 200.667 24.096 200.2C24.18 199.724 24.222 199.159 24.222 198.506C24.222 197.853 24.18 197.293 24.096 196.826C24.012 196.359 23.8907 195.981 23.732 195.692C23.5827 195.393 23.4007 195.174 23.186 195.034C22.9807 194.894 22.7474 194.824 22.486 194.824C22.2247 194.824 21.9867 194.894 21.772 195.034C21.5574 195.174 21.3707 195.393 21.212 195.692C21.0627 195.981 20.946 196.359 20.862 196.826C20.778 197.293 20.736 197.853 20.736 198.506C20.736 199.813 20.8947 200.765 21.212 201.362C21.5387 201.95 21.9634 202.244 22.486 202.244Z" fill="#717484"/>
<path d="M19.256 145V142.536H15.238V141.78L19.06 136.068H20.348V141.612H21.566V142.536H20.348V145H19.256ZM16.456 141.612H19.256V139.022C19.256 138.779 19.2607 138.495 19.27 138.168C19.2887 137.832 19.3074 137.543 19.326 137.3H19.27C19.158 137.515 19.0414 137.725 18.92 137.93C18.7987 138.135 18.6727 138.345 18.542 138.56L16.456 141.612Z" fill="#717484"/>
<path d="M23.107 145V135.032H24.241V141.78H24.283L27.181 138.196H28.455L26.173 140.926L28.763 145H27.503L25.515 141.724L24.241 143.208V145H23.107Z" fill="#717484"/>
<path d="M18.752 117.168C18.3134 117.168 17.9074 117.079 17.534 116.902C17.1607 116.725 16.834 116.459 16.554 116.104C16.2834 115.74 16.0687 115.292 15.91 114.76C15.7514 114.219 15.672 113.589 15.672 112.87C15.672 111.974 15.7654 111.213 15.952 110.588C16.1387 109.953 16.3907 109.44 16.708 109.048C17.0254 108.647 17.3847 108.357 17.786 108.18C18.1967 107.993 18.626 107.9 19.074 107.9C19.5594 107.9 19.9747 107.993 20.32 108.18C20.6747 108.357 20.978 108.581 21.23 108.852L20.586 109.566C20.3994 109.351 20.1754 109.183 19.914 109.062C19.662 108.931 19.396 108.866 19.116 108.866C18.808 108.866 18.514 108.931 18.234 109.062C17.954 109.193 17.7067 109.407 17.492 109.706C17.2774 110.005 17.1047 110.397 16.974 110.882C16.8434 111.358 16.7734 111.951 16.764 112.66C17.044 112.315 17.3707 112.044 17.744 111.848C18.1174 111.643 18.486 111.54 18.85 111.54C19.6247 111.54 20.2407 111.769 20.698 112.226C21.1647 112.683 21.398 113.374 21.398 114.298C21.398 114.727 21.328 115.119 21.188 115.474C21.048 115.819 20.8567 116.118 20.614 116.37C20.3714 116.622 20.0914 116.818 19.774 116.958C19.4567 117.098 19.116 117.168 18.752 117.168ZM18.752 116.258C18.976 116.258 19.1814 116.211 19.368 116.118C19.5547 116.025 19.718 115.894 19.858 115.726C19.998 115.549 20.1054 115.343 20.18 115.11C20.264 114.867 20.306 114.597 20.306 114.298C20.306 113.71 20.1707 113.248 19.9 112.912C19.6294 112.576 19.214 112.408 18.654 112.408C18.3647 112.408 18.052 112.501 17.716 112.688C17.38 112.865 17.072 113.164 16.792 113.584C16.8667 114.461 17.0674 115.129 17.394 115.586C17.73 116.034 18.1827 116.258 18.752 116.258Z" fill="#717484"/>
<path d="M23.107 117V107.032H24.241V113.78H24.283L27.181 110.196H28.455L26.173 112.926L28.763 117H27.503L25.515 113.724L24.241 115.208V117H23.107Z" fill="#717484"/>
<path d="M18.5 88.168C18.08 88.168 17.688 88.1073 17.324 87.986C16.9694 87.8646 16.6614 87.6967 16.4 87.482C16.148 87.258 15.9474 86.9967 15.798 86.698C15.6487 86.3993 15.574 86.0727 15.574 85.718C15.574 85.4286 15.6207 85.1627 15.714 84.92C15.8167 84.668 15.9427 84.444 16.092 84.248C16.2507 84.0426 16.428 83.8653 16.624 83.716C16.8294 83.5573 17.0394 83.422 17.254 83.31V83.254C16.9274 83.0206 16.638 82.7407 16.386 82.414C16.134 82.078 16.008 81.672 16.008 81.196C16.008 80.8507 16.0734 80.538 16.204 80.258C16.3347 79.978 16.512 79.74 16.736 79.544C16.96 79.3386 17.226 79.18 17.534 79.068C17.842 78.956 18.178 78.9 18.542 78.9C18.934 78.9 19.284 78.9606 19.592 79.082C19.9 79.194 20.1614 79.3573 20.376 79.572C20.6 79.7773 20.768 80.0293 20.88 80.328C21.0014 80.6173 21.062 80.9347 21.062 81.28C21.062 81.5133 21.02 81.7373 20.936 81.952C20.8614 82.1666 20.7634 82.3673 20.642 82.554C20.53 82.7407 20.3994 82.9086 20.25 83.058C20.11 83.2073 19.97 83.3333 19.83 83.436V83.492C20.026 83.604 20.2174 83.7346 20.404 83.884C20.5907 84.024 20.754 84.1873 20.894 84.374C21.0434 84.5513 21.16 84.7566 21.244 84.99C21.3374 85.2233 21.384 85.4893 21.384 85.788C21.384 86.124 21.314 86.4366 21.174 86.726C21.034 87.0153 20.838 87.2673 20.586 87.482C20.334 87.6967 20.0307 87.8646 19.676 87.986C19.3214 88.1073 18.9294 88.168 18.5 88.168ZM19.13 83.128C19.4287 82.8573 19.6574 82.5727 19.816 82.274C19.984 81.9753 20.068 81.6627 20.068 81.336C20.068 80.888 19.9327 80.5146 19.662 80.216C19.3914 79.908 19.0087 79.754 18.514 79.754C18.094 79.754 17.7487 79.8846 17.478 80.146C17.2074 80.4073 17.072 80.7573 17.072 81.196C17.072 81.4667 17.128 81.7 17.24 81.896C17.352 82.0826 17.5014 82.2506 17.688 82.4C17.884 82.5493 18.1034 82.6846 18.346 82.806C18.598 82.918 18.8594 83.0253 19.13 83.128ZM18.528 87.314C19.0507 87.314 19.4707 87.1693 19.788 86.88C20.1147 86.5906 20.278 86.2127 20.278 85.746C20.278 85.4566 20.2127 85.2093 20.082 85.004C19.9514 84.7986 19.774 84.6213 19.55 84.472C19.326 84.3133 19.0647 84.1733 18.766 84.052C18.4767 83.9213 18.1734 83.7906 17.856 83.66C17.5014 83.9026 17.2027 84.1873 16.96 84.514C16.7267 84.8313 16.61 85.1953 16.61 85.606C16.61 85.858 16.6567 86.0866 16.75 86.292C16.8527 86.4973 16.988 86.6793 17.156 86.838C17.3334 86.9873 17.5387 87.104 17.772 87.188C18.0054 87.272 18.2574 87.314 18.528 87.314Z" fill="#717484"/>
<path d="M23.107 88V78.032H24.241V84.78H24.283L27.181 81.196H28.455L26.173 83.926L28.763 88H27.503L25.515 84.724L24.241 86.208V88H23.107Z" fill="#717484"/>
<path d="M16.106 59V58.048H18.15V51.468H16.526V50.726C16.9367 50.6513 17.2914 50.5626 17.59 50.46C17.898 50.348 18.1734 50.2173 18.416 50.068H19.298V58.048H21.146V59H16.106Z" fill="#717484"/>
<path d="M25.445 59.168C24.5397 59.168 23.835 58.7666 23.331 57.964C22.827 57.1613 22.575 56.0086 22.575 54.506C22.575 53.0033 22.827 51.86 23.331 51.076C23.835 50.292 24.5397 49.9 25.445 49.9C26.341 49.9 27.041 50.292 27.545 51.076C28.049 51.86 28.301 53.0033 28.301 54.506C28.301 56.0086 28.049 57.1613 27.545 57.964C27.041 58.7666 26.341 59.168 25.445 59.168ZM25.445 58.244C25.7064 58.244 25.9397 58.174 26.145 58.034C26.3597 57.8846 26.5417 57.6606 26.691 57.362C26.8497 57.054 26.971 56.6666 27.055 56.2C27.139 55.724 27.181 55.1593 27.181 54.506C27.181 53.8526 27.139 53.2926 27.055 52.826C26.971 52.3593 26.8497 51.9813 26.691 51.692C26.5417 51.3933 26.3597 51.174 26.145 51.034C25.9397 50.894 25.7064 50.824 25.445 50.824C25.1837 50.824 24.9457 50.894 24.731 51.034C24.5164 51.174 24.3297 51.3933 24.171 51.692C24.0217 51.9813 23.905 52.3593 23.821 52.826C23.737 53.2926 23.695 53.8526 23.695 54.506C23.695 55.8126 23.8537 56.7646 24.171 57.362C24.4977 57.95 24.9224 58.244 25.445 58.244Z" fill="#717484"/>
<path d="M30.066 59V49.032H31.2V55.78H31.242L34.14 52.196H35.414L33.132 54.926L35.722 59H34.462L32.474 55.724L31.2 57.208V59H30.066Z" fill="#717484"/>
<path d="M30.4973 213.862L30.0633 215.262H32.8213L32.3873 213.862C32.2193 213.349 32.0606 212.84 31.9113 212.336C31.7619 211.823 31.6126 211.3 31.4633 210.768H31.4073C31.2673 211.3 31.1226 211.823 30.9733 212.336C30.8239 212.84 30.6653 213.349 30.4973 213.862ZM27.6973 219L30.8053 209.816H32.1213L35.2293 219H33.9833L33.1153 216.2H29.7693L28.8873 219H27.6973Z" fill="#717484"/>
<path d="M38.3245 219.168C37.5965 219.168 37.0645 218.944 36.7285 218.496C36.4018 218.048 36.2385 217.385 36.2385 216.508V212.196H37.4005V216.354C37.4005 216.998 37.4985 217.465 37.6945 217.754C37.8998 218.034 38.2265 218.174 38.6745 218.174C39.0291 218.174 39.3418 218.085 39.6125 217.908C39.8831 217.721 40.1818 217.427 40.5085 217.026V212.196H41.6565V219H40.7045L40.6065 217.936H40.5645C40.2471 218.309 39.9111 218.608 39.5565 218.832C39.2111 219.056 38.8005 219.168 38.3245 219.168Z" fill="#717484"/>
<path d="M46.2477 222.136C45.8277 222.136 45.445 222.094 45.0997 222.01C44.7544 221.935 44.4557 221.819 44.2037 221.66C43.961 221.501 43.7697 221.31 43.6297 221.086C43.499 220.862 43.4337 220.601 43.4337 220.302C43.4337 220.013 43.5224 219.737 43.6997 219.476C43.877 219.215 44.1197 218.977 44.4277 218.762V218.706C44.2597 218.603 44.115 218.463 43.9937 218.286C43.8817 218.099 43.8257 217.871 43.8257 217.6C43.8257 217.311 43.905 217.059 44.0637 216.844C44.2224 216.629 44.3904 216.461 44.5677 216.34V216.284C44.3437 216.097 44.1384 215.85 43.9517 215.542C43.7744 215.225 43.6857 214.861 43.6857 214.45C43.6857 214.077 43.751 213.741 43.8817 213.442C44.0217 213.143 44.2084 212.891 44.4417 212.686C44.675 212.471 44.9457 212.308 45.2537 212.196C45.571 212.084 45.9024 212.028 46.2477 212.028C46.4344 212.028 46.607 212.047 46.7657 212.084C46.9337 212.112 47.083 212.149 47.2137 212.196H49.5797V213.078H48.1797C48.3384 213.237 48.469 213.437 48.5717 213.68C48.6837 213.923 48.7397 214.189 48.7397 214.478C48.7397 214.842 48.6744 215.173 48.5437 215.472C48.413 215.761 48.2357 216.009 48.0117 216.214C47.7877 216.41 47.5217 216.564 47.2137 216.676C46.915 216.788 46.593 216.844 46.2477 216.844C46.0797 216.844 45.907 216.825 45.7297 216.788C45.5524 216.741 45.3844 216.681 45.2257 216.606C45.1044 216.709 45.0017 216.825 44.9177 216.956C44.8337 217.077 44.7917 217.231 44.7917 217.418C44.7917 217.633 44.8757 217.81 45.0437 217.95C45.2117 218.09 45.529 218.16 45.9957 218.16H47.3117C48.105 218.16 48.6977 218.291 49.0897 218.552C49.491 218.804 49.6917 219.215 49.6917 219.784C49.6917 220.101 49.6124 220.4 49.4537 220.68C49.295 220.969 49.0664 221.221 48.7677 221.436C48.469 221.651 48.105 221.819 47.6757 221.94C47.2557 222.071 46.7797 222.136 46.2477 222.136ZM46.2477 216.074C46.4437 216.074 46.6257 216.037 46.7937 215.962C46.971 215.887 47.125 215.78 47.2557 215.64C47.3957 215.5 47.503 215.332 47.5777 215.136C47.6524 214.931 47.6897 214.702 47.6897 214.45C47.6897 213.946 47.5497 213.559 47.2697 213.288C46.9897 213.008 46.649 212.868 46.2477 212.868C45.8464 212.868 45.5057 213.008 45.2257 213.288C44.9457 213.559 44.8057 213.946 44.8057 214.45C44.8057 214.702 44.843 214.931 44.9177 215.136C44.9924 215.332 45.095 215.5 45.2257 215.64C45.3657 215.78 45.5197 215.887 45.6877 215.962C45.865 216.037 46.0517 216.074 46.2477 216.074ZM46.4157 221.338C46.7424 221.338 47.0364 221.296 47.2977 221.212C47.5684 221.137 47.797 221.035 47.9837 220.904C48.1704 220.783 48.315 220.638 48.4177 220.47C48.5204 220.302 48.5717 220.129 48.5717 219.952C48.5717 219.635 48.455 219.415 48.2217 219.294C47.9884 219.173 47.6477 219.112 47.1997 219.112H46.0237C45.893 219.112 45.7484 219.103 45.5897 219.084C45.4404 219.075 45.291 219.047 45.1417 219C44.899 219.177 44.7217 219.364 44.6097 219.56C44.4977 219.756 44.4417 219.952 44.4417 220.148C44.4417 220.512 44.6144 220.801 44.9597 221.016C45.3144 221.231 45.7997 221.338 46.4157 221.338Z" fill="#717484"/>
<path d="M51.6084 219.168C51.3751 219.168 51.1744 219.089 51.0064 218.93C50.8477 218.762 50.7684 218.552 50.7684 218.3C50.7684 218.029 50.8477 217.815 51.0064 217.656C51.1744 217.488 51.3751 217.404 51.6084 217.404C51.8324 217.404 52.0237 217.488 52.1824 217.656C52.3504 217.815 52.4344 218.029 52.4344 218.3C52.4344 218.552 52.3504 218.762 52.1824 218.93C52.0237 219.089 51.8324 219.168 51.6084 219.168Z" fill="#717484"/>
<path d="M81.1732 219.168C80.5292 219.168 79.9319 219.047 79.3812 218.804C78.8306 218.561 78.3546 218.23 77.9532 217.81L78.6532 216.998C78.9799 217.343 79.3626 217.623 79.8012 217.838C80.2492 218.043 80.7112 218.146 81.1872 218.146C81.7939 218.146 82.2652 218.011 82.6012 217.74C82.9372 217.46 83.1052 217.096 83.1052 216.648C83.1052 216.415 83.0632 216.219 82.9792 216.06C82.9046 215.892 82.7972 215.752 82.6572 215.64C82.5266 215.519 82.3679 215.411 82.1812 215.318C81.9946 215.225 81.7939 215.127 81.5792 215.024L80.2632 214.45C80.0486 214.357 79.8292 214.245 79.6052 214.114C79.3812 213.983 79.1806 213.825 79.0032 213.638C78.8259 213.451 78.6812 213.232 78.5692 212.98C78.4572 212.719 78.4012 212.42 78.4012 212.084C78.4012 211.739 78.4712 211.417 78.6112 211.118C78.7606 210.819 78.9612 210.563 79.2132 210.348C79.4746 210.124 79.7779 209.951 80.1232 209.83C80.4779 209.709 80.8652 209.648 81.2852 209.648C81.8359 209.648 82.3446 209.755 82.8112 209.97C83.2779 210.175 83.6746 210.446 84.0012 210.782L83.3712 211.538C83.0912 211.267 82.7786 211.057 82.4332 210.908C82.0972 210.749 81.7146 210.67 81.2852 210.67C80.7719 210.67 80.3566 210.791 80.0392 211.034C79.7312 211.267 79.5772 211.594 79.5772 212.014C79.5772 212.238 79.6192 212.429 79.7032 212.588C79.7966 212.737 79.9179 212.873 80.0672 212.994C80.2166 213.106 80.3799 213.209 80.5572 213.302C80.7346 213.386 80.9166 213.465 81.1032 213.54L82.4052 214.1C82.6666 214.212 82.9139 214.343 83.1472 214.492C83.3806 214.632 83.5812 214.8 83.7492 214.996C83.9172 215.183 84.0479 215.407 84.1412 215.668C84.2439 215.92 84.2952 216.214 84.2952 216.55C84.2952 216.914 84.2206 217.255 84.0712 217.572C83.9312 217.889 83.7259 218.169 83.4552 218.412C83.1846 218.645 82.8579 218.832 82.4752 218.972C82.0926 219.103 81.6586 219.168 81.1732 219.168Z" fill="#717484"/>
<path d="M88.7497 219.168C88.2924 219.168 87.8631 219.089 87.4617 218.93C87.0697 218.762 86.7244 218.529 86.4257 218.23C86.1364 217.922 85.9077 217.549 85.7397 217.11C85.5717 216.671 85.4877 216.172 85.4877 215.612C85.4877 215.052 85.5717 214.553 85.7397 214.114C85.9171 213.666 86.1457 213.288 86.4257 212.98C86.7151 212.672 87.0417 212.439 87.4057 212.28C87.7697 212.112 88.1477 212.028 88.5397 212.028C88.9691 212.028 89.3517 212.103 89.6877 212.252C90.0331 212.401 90.3177 212.616 90.5417 212.896C90.7751 213.176 90.9524 213.512 91.0737 213.904C91.1951 214.296 91.2557 214.735 91.2557 215.22C91.2557 215.341 91.2511 215.463 91.2417 215.584C91.2417 215.696 91.2324 215.794 91.2137 215.878H86.6217C86.6684 216.606 86.8924 217.185 87.2937 217.614C87.7044 218.034 88.2364 218.244 88.8897 218.244C89.2164 218.244 89.5151 218.197 89.7857 218.104C90.0657 218.001 90.3317 217.871 90.5837 217.712L90.9897 218.468C90.6911 218.655 90.3597 218.818 89.9957 218.958C89.6317 219.098 89.2164 219.168 88.7497 219.168ZM86.6077 215.052H90.2477C90.2477 214.361 90.0984 213.839 89.7997 213.484C89.5104 213.12 89.0997 212.938 88.5677 212.938C88.3251 212.938 88.0917 212.985 87.8677 213.078C87.6531 213.171 87.4571 213.311 87.2797 213.498C87.1024 213.675 86.9531 213.895 86.8317 214.156C86.7197 214.417 86.6451 214.716 86.6077 215.052Z" fill="#717484"/>
<path d="M92.9371 221.87V212.196H93.8891L93.9871 212.98H94.0291C94.3371 212.719 94.6731 212.495 95.0371 212.308C95.4104 212.121 95.7977 212.028 96.1991 212.028C96.6377 212.028 97.0251 212.112 97.3611 212.28C97.6971 212.439 97.9771 212.672 98.2011 212.98C98.4251 213.279 98.5931 213.643 98.7051 214.072C98.8264 214.492 98.8871 214.968 98.8871 215.5C98.8871 216.079 98.8077 216.597 98.6491 217.054C98.4904 217.502 98.2757 217.885 98.0051 218.202C97.7344 218.519 97.4217 218.762 97.0671 218.93C96.7124 219.089 96.3391 219.168 95.9471 219.168C95.6297 219.168 95.3124 219.098 94.9951 218.958C94.6871 218.818 94.3744 218.627 94.0571 218.384L94.0851 219.574V221.87H92.9371ZM95.7511 218.202C96.0311 218.202 96.2877 218.141 96.5211 218.02C96.7637 217.889 96.9691 217.712 97.1371 217.488C97.3144 217.255 97.4497 216.97 97.5431 216.634C97.6457 216.298 97.6971 215.92 97.6971 215.5C97.6971 215.127 97.6644 214.786 97.5991 214.478C97.5337 214.17 97.4264 213.909 97.2771 213.694C97.1371 213.47 96.9504 213.297 96.7171 213.176C96.4931 213.055 96.2224 212.994 95.9051 212.994C95.6157 212.994 95.3217 213.073 95.0231 213.232C94.7337 213.391 94.4211 213.619 94.0851 213.918V217.488C94.3931 217.749 94.6917 217.936 94.9811 218.048C95.2704 218.151 95.5271 218.202 95.7511 218.202Z" fill="#717484"/>
<path d="M102.612 219.168C102.248 219.168 101.94 219.112 101.688 219C101.446 218.888 101.245 218.734 101.086 218.538C100.937 218.342 100.83 218.104 100.764 217.824C100.699 217.544 100.666 217.236 100.666 216.9V213.134H99.6583V212.266L100.722 212.196L100.862 210.292H101.828V212.196H103.662V213.134H101.828V216.914C101.828 217.334 101.903 217.661 102.052 217.894C102.211 218.118 102.486 218.23 102.878 218.23C103 218.23 103.13 218.211 103.27 218.174C103.41 218.137 103.536 218.095 103.648 218.048L103.872 218.916C103.686 218.981 103.48 219.037 103.256 219.084C103.042 219.14 102.827 219.168 102.612 219.168Z" fill="#717484"/>
<path d="M105.898 219.168C105.665 219.168 105.464 219.089 105.296 218.93C105.138 218.762 105.058 218.552 105.058 218.3C105.058 218.029 105.138 217.815 105.296 217.656C105.464 217.488 105.665 217.404 105.898 217.404C106.122 217.404 106.314 217.488 106.472 217.656C106.64 217.815 106.724 218.029 106.724 218.3C106.724 218.552 106.64 218.762 106.472 218.93C106.314 219.089 106.122 219.168 105.898 219.168Z" fill="#717484"/>
<path d="M138.219 219.168C137.641 219.168 137.109 219.056 136.623 218.832C136.147 218.608 135.737 218.291 135.391 217.88C135.046 217.46 134.775 216.956 134.579 216.368C134.393 215.771 134.299 215.103 134.299 214.366C134.299 213.629 134.393 212.971 134.579 212.392C134.775 211.804 135.046 211.309 135.391 210.908C135.737 210.497 136.147 210.185 136.623 209.97C137.109 209.755 137.641 209.648 138.219 209.648C138.798 209.648 139.325 209.76 139.801 209.984C140.287 210.199 140.702 210.511 141.047 210.922C141.402 211.323 141.673 211.818 141.859 212.406C142.055 212.985 142.153 213.638 142.153 214.366C142.153 215.103 142.055 215.771 141.859 216.368C141.673 216.956 141.402 217.46 141.047 217.88C140.702 218.291 140.287 218.608 139.801 218.832C139.325 219.056 138.798 219.168 138.219 219.168ZM138.219 218.146C138.63 218.146 138.999 218.057 139.325 217.88C139.661 217.703 139.946 217.451 140.179 217.124C140.422 216.788 140.609 216.391 140.739 215.934C140.87 215.467 140.935 214.945 140.935 214.366C140.935 213.797 140.87 213.283 140.739 212.826C140.609 212.369 140.422 211.981 140.179 211.664C139.946 211.347 139.661 211.104 139.325 210.936C138.999 210.759 138.63 210.67 138.219 210.67C137.809 210.67 137.435 210.759 137.099 210.936C136.773 211.104 136.488 211.347 136.245 211.664C136.012 211.981 135.83 212.369 135.699 212.826C135.569 213.283 135.503 213.797 135.503 214.366C135.503 214.945 135.569 215.467 135.699 215.934C135.83 216.391 136.012 216.788 136.245 217.124C136.488 217.451 136.773 217.703 137.099 217.88C137.435 218.057 137.809 218.146 138.219 218.146Z" fill="#717484"/>
<path d="M146.704 219.168C146.256 219.168 145.836 219.089 145.444 218.93C145.052 218.771 144.711 218.543 144.422 218.244C144.142 217.936 143.918 217.563 143.75 217.124C143.591 216.676 143.512 216.172 143.512 215.612C143.512 215.043 143.601 214.539 143.778 214.1C143.955 213.652 144.193 213.274 144.492 212.966C144.791 212.658 145.136 212.425 145.528 212.266C145.929 212.107 146.349 212.028 146.788 212.028C147.236 212.028 147.619 212.107 147.936 212.266C148.253 212.425 148.533 212.611 148.776 212.826L148.188 213.582C147.992 213.405 147.782 213.26 147.558 213.148C147.343 213.036 147.101 212.98 146.83 212.98C146.522 212.98 146.237 213.045 145.976 213.176C145.715 213.297 145.491 213.475 145.304 213.708C145.117 213.941 144.968 214.221 144.856 214.548C144.753 214.865 144.702 215.22 144.702 215.612C144.702 216.004 144.753 216.359 144.856 216.676C144.959 216.993 145.099 217.269 145.276 217.502C145.463 217.726 145.687 217.903 145.948 218.034C146.209 218.155 146.494 218.216 146.802 218.216C147.119 218.216 147.409 218.151 147.67 218.02C147.941 217.88 148.183 217.717 148.398 217.53L148.902 218.3C148.594 218.571 148.253 218.785 147.88 218.944C147.507 219.093 147.115 219.168 146.704 219.168Z" fill="#717484"/>
<path d="M152.406 219.168C152.042 219.168 151.734 219.112 151.482 219C151.24 218.888 151.039 218.734 150.88 218.538C150.731 218.342 150.624 218.104 150.558 217.824C150.493 217.544 150.46 217.236 150.46 216.9V213.134H149.452V212.266L150.516 212.196L150.656 210.292H151.622V212.196H153.456V213.134H151.622V216.914C151.622 217.334 151.697 217.661 151.846 217.894C152.005 218.118 152.28 218.23 152.672 218.23C152.794 218.23 152.924 218.211 153.064 218.174C153.204 218.137 153.33 218.095 153.442 218.048L153.666 218.916C153.48 218.981 153.274 219.037 153.05 219.084C152.836 219.14 152.621 219.168 152.406 219.168Z" fill="#717484"/>
<path d="M155.692 219.168C155.459 219.168 155.258 219.089 155.09 218.93C154.932 218.762 154.852 218.552 154.852 218.3C154.852 218.029 154.932 217.815 155.09 217.656C155.258 217.488 155.459 217.404 155.692 217.404C155.916 217.404 156.108 217.488 156.266 217.656C156.434 217.815 156.518 218.029 156.518 218.3C156.518 218.552 156.434 218.762 156.266 218.93C156.108 219.089 155.916 219.168 155.692 219.168Z" fill="#717484"/>
<path d="M186.697 219V209.816H187.901L191.219 215.584L192.213 217.488H192.269C192.241 217.021 192.208 216.541 192.171 216.046C192.143 215.542 192.129 215.047 192.129 214.562V209.816H193.235V219H192.031L188.699 213.218L187.705 211.328H187.649C187.686 211.795 187.719 212.271 187.747 212.756C187.784 213.232 187.803 213.713 187.803 214.198V219H186.697Z" fill="#717484"/>
<path d="M198.295 219.168C197.875 219.168 197.474 219.089 197.091 218.93C196.718 218.771 196.386 218.543 196.097 218.244C195.808 217.936 195.574 217.563 195.397 217.124C195.229 216.676 195.145 216.172 195.145 215.612C195.145 215.043 195.229 214.539 195.397 214.1C195.574 213.652 195.808 213.274 196.097 212.966C196.386 212.658 196.718 212.425 197.091 212.266C197.474 212.107 197.875 212.028 198.295 212.028C198.715 212.028 199.112 212.107 199.485 212.266C199.868 212.425 200.204 212.658 200.493 212.966C200.782 213.274 201.011 213.652 201.179 214.1C201.356 214.539 201.445 215.043 201.445 215.612C201.445 216.172 201.356 216.676 201.179 217.124C201.011 217.563 200.782 217.936 200.493 218.244C200.204 218.543 199.868 218.771 199.485 218.93C199.112 219.089 198.715 219.168 198.295 219.168ZM198.295 218.216C198.584 218.216 198.85 218.155 199.093 218.034C199.336 217.903 199.541 217.726 199.709 217.502C199.886 217.269 200.022 216.993 200.115 216.676C200.208 216.359 200.255 216.004 200.255 215.612C200.255 215.22 200.208 214.865 200.115 214.548C200.022 214.221 199.886 213.941 199.709 213.708C199.541 213.475 199.336 213.297 199.093 213.176C198.85 213.045 198.584 212.98 198.295 212.98C198.006 212.98 197.74 213.045 197.497 213.176C197.254 213.297 197.044 213.475 196.867 213.708C196.699 213.941 196.568 214.221 196.475 214.548C196.382 214.865 196.335 215.22 196.335 215.612C196.335 216.004 196.382 216.359 196.475 216.676C196.568 216.993 196.699 217.269 196.867 217.502C197.044 217.726 197.254 217.903 197.497 218.034C197.74 218.155 198.006 218.216 198.295 218.216Z" fill="#717484"/>
<path d="M204.652 219L202.202 212.196H203.392L204.68 216.06C204.783 216.396 204.885 216.732 204.988 217.068C205.1 217.404 205.208 217.735 205.31 218.062H205.366C205.469 217.735 205.572 217.404 205.674 217.068C205.777 216.732 205.88 216.396 205.982 216.06L207.27 212.196H208.404L205.996 219H204.652Z" fill="#717484"/>
<path d="M209.827 219.168C209.594 219.168 209.393 219.089 209.225 218.93C209.066 218.762 208.987 218.552 208.987 218.3C208.987 218.029 209.066 217.815 209.225 217.656C209.393 217.488 209.594 217.404 209.827 217.404C210.051 217.404 210.242 217.488 210.401 217.656C210.569 217.815 210.653 218.029 210.653 218.3C210.653 218.552 210.569 218.762 210.401 218.93C210.242 219.089 210.051 219.168 209.827 219.168Z" fill="#717484"/>
<path d="M236.045 219V209.816H238.341C239.76 209.816 240.838 210.208 241.575 210.992C242.312 211.776 242.681 212.901 242.681 214.366C242.681 215.094 242.588 215.747 242.401 216.326C242.214 216.895 241.939 217.381 241.575 217.782C241.211 218.174 240.763 218.477 240.231 218.692C239.699 218.897 239.088 219 238.397 219H236.045ZM237.207 218.048H238.257C239.33 218.048 240.133 217.726 240.665 217.082C241.206 216.438 241.477 215.533 241.477 214.366C241.477 213.199 241.206 212.308 240.665 211.692C240.133 211.076 239.33 210.768 238.257 210.768H237.207V218.048Z" fill="#717484"/>
<path d="M247.304 219.168C246.847 219.168 246.418 219.089 246.016 218.93C245.624 218.762 245.279 218.529 244.98 218.23C244.691 217.922 244.462 217.549 244.294 217.11C244.126 216.671 244.042 216.172 244.042 215.612C244.042 215.052 244.126 214.553 244.294 214.114C244.472 213.666 244.7 213.288 244.98 212.98C245.27 212.672 245.596 212.439 245.96 212.28C246.324 212.112 246.702 212.028 247.094 212.028C247.524 212.028 247.906 212.103 248.242 212.252C248.588 212.401 248.872 212.616 249.096 212.896C249.33 213.176 249.507 213.512 249.628 213.904C249.75 214.296 249.81 214.735 249.81 215.22C249.81 215.341 249.806 215.463 249.796 215.584C249.796 215.696 249.787 215.794 249.768 215.878H245.176C245.223 216.606 245.447 217.185 245.848 217.614C246.259 218.034 246.791 218.244 247.444 218.244C247.771 218.244 248.07 218.197 248.34 218.104C248.62 218.001 248.886 217.871 249.138 217.712L249.544 218.468C249.246 218.655 248.914 218.818 248.55 218.958C248.186 219.098 247.771 219.168 247.304 219.168ZM245.162 215.052H248.802C248.802 214.361 248.653 213.839 248.354 213.484C248.065 213.12 247.654 212.938 247.122 212.938C246.88 212.938 246.646 212.985 246.422 213.078C246.208 213.171 246.012 213.311 245.834 213.498C245.657 213.675 245.508 213.895 245.386 214.156C245.274 214.417 245.2 214.716 245.162 215.052Z" fill="#717484"/>
<path d="M254.18 219.168C253.732 219.168 253.312 219.089 252.92 218.93C252.528 218.771 252.187 218.543 251.898 218.244C251.618 217.936 251.394 217.563 251.226 217.124C251.067 216.676 250.988 216.172 250.988 215.612C250.988 215.043 251.076 214.539 251.254 214.1C251.431 213.652 251.669 213.274 251.968 212.966C252.266 212.658 252.612 212.425 253.004 212.266C253.405 212.107 253.825 212.028 254.264 212.028C254.712 212.028 255.094 212.107 255.412 212.266C255.729 212.425 256.009 212.611 256.252 212.826L255.664 213.582C255.468 213.405 255.258 213.26 255.034 213.148C254.819 213.036 254.576 212.98 254.306 212.98C253.998 212.98 253.713 213.045 253.452 213.176C253.19 213.297 252.966 213.475 252.78 213.708C252.593 213.941 252.444 214.221 252.332 214.548C252.229 214.865 252.178 215.22 252.178 215.612C252.178 216.004 252.229 216.359 252.332 216.676C252.434 216.993 252.574 217.269 252.752 217.502C252.938 217.726 253.162 217.903 253.424 218.034C253.685 218.155 253.97 218.216 254.278 218.216C254.595 218.216 254.884 218.151 255.146 218.02C255.416 217.88 255.659 217.717 255.874 217.53L256.378 218.3C256.07 218.571 255.729 218.785 255.356 218.944C254.982 219.093 254.59 219.168 254.18 219.168Z" fill="#717484"/>
<path d="M258.479 219.168C258.245 219.168 258.044 219.089 257.876 218.93C257.718 218.762 257.639 218.552 257.639 218.3C257.639 218.029 257.718 217.815 257.876 217.656C258.044 217.488 258.245 217.404 258.479 217.404C258.702 217.404 258.894 217.488 259.053 217.656C259.221 217.815 259.305 218.029 259.305 218.3C259.305 218.552 259.221 218.762 259.053 218.93C258.894 219.089 258.702 219.168 258.479 219.168Z" fill="#717484"/>
<path d="M291.006 219.168C289.858 219.168 289.013 218.678 288.472 217.698L289.312 217.11C289.517 217.474 289.751 217.74 290.012 217.908C290.273 218.067 290.567 218.146 290.894 218.146C291.389 218.146 291.757 217.997 292 217.698C292.243 217.39 292.364 216.886 292.364 216.186V209.816H293.54V216.298C293.54 216.69 293.489 217.063 293.386 217.418C293.293 217.763 293.143 218.067 292.938 218.328C292.742 218.589 292.481 218.795 292.154 218.944C291.837 219.093 291.454 219.168 291.006 219.168Z" fill="#717484"/>
<path d="M297.481 219.168C296.911 219.168 296.435 219 296.053 218.664C295.679 218.328 295.493 217.852 295.493 217.236C295.493 216.489 295.824 215.92 296.487 215.528C297.149 215.127 298.209 214.847 299.665 214.688C299.665 214.473 299.641 214.263 299.595 214.058C299.557 213.853 299.487 213.671 299.385 213.512C299.282 213.353 299.137 213.227 298.951 213.134C298.773 213.031 298.545 212.98 298.265 212.98C297.873 212.98 297.504 213.055 297.159 213.204C296.813 213.353 296.505 213.521 296.235 213.708L295.787 212.91C296.104 212.705 296.491 212.509 296.949 212.322C297.406 212.126 297.91 212.028 298.461 212.028C299.291 212.028 299.893 212.285 300.267 212.798C300.64 213.302 300.827 213.979 300.827 214.828V219H299.875L299.777 218.188H299.735C299.408 218.459 299.058 218.692 298.685 218.888C298.311 219.075 297.91 219.168 297.481 219.168ZM297.817 218.244C298.143 218.244 298.451 218.169 298.741 218.02C299.03 217.861 299.338 217.633 299.665 217.334V215.444C299.095 215.519 298.615 215.607 298.223 215.71C297.84 215.813 297.527 215.934 297.285 216.074C297.051 216.214 296.879 216.377 296.767 216.564C296.664 216.741 296.613 216.937 296.613 217.152C296.613 217.544 296.729 217.824 296.963 217.992C297.196 218.16 297.481 218.244 297.817 218.244Z" fill="#717484"/>
<path d="M302.967 219V212.196H303.919L304.017 213.176H304.059C304.386 212.849 304.727 212.579 305.081 212.364C305.445 212.14 305.865 212.028 306.341 212.028C307.06 212.028 307.583 212.252 307.909 212.7C308.245 213.148 308.413 213.811 308.413 214.688V219H307.265V214.842C307.265 214.198 307.163 213.736 306.957 213.456C306.752 213.167 306.425 213.022 305.977 213.022C305.623 213.022 305.31 213.111 305.039 213.288C304.769 213.465 304.461 213.727 304.115 214.072V219H302.967Z" fill="#717484"/>
<path d="M311.226 219.168C310.992 219.168 310.792 219.089 310.624 218.93C310.465 218.762 310.386 218.552 310.386 218.3C310.386 218.029 310.465 217.815 310.624 217.656C310.792 217.488 310.992 217.404 311.226 217.404C311.45 217.404 311.641 217.488 311.8 217.656C311.968 217.815 312.052 218.029 312.052 218.3C312.052 218.552 311.968 218.762 311.8 218.93C311.641 219.089 311.45 219.168 311.226 219.168Z" fill="#717484"/>
<path d="M39.8 186.768C39.8 186.768 64.1058 165.208 91.6401 160.56C112.329 157.067 122.559 124.419 143.48 122.832C165.804 121.138 173.112 112.71 195.32 109.872C215.66 107.272 226.726 102.655 247.16 100.944C268.286 99.1756 298.424 77.328 298.424 77.328" stroke="#ED6A45"/>
<g filter="url(#filter0_d)">
<line x1="195.5" y1="196.5" x2="195.5" y2="54.5" stroke="#717484" stroke-linecap="square"/>
</g>
<path d="M287.478 13.5917L276.64 27.5037C276.26 27.9877 276.607 28.6875 277.215 28.6941L284.371 28.6941L284.371 39.1265C284.372 39.3222 284.45 39.5096 284.588 39.648C284.727 39.7864 284.914 39.8646 285.11 39.8656L291.01 39.8656C291.415 39.8656 291.749 39.532 291.749 39.1265L291.749 28.681L298.904 28.681C299.042 28.681 299.177 28.642 299.294 28.5687C299.411 28.4953 299.505 28.3905 299.565 28.2662C299.625 28.142 299.649 28.0033 299.634 27.8661C299.619 27.7289 299.565 27.5988 299.48 27.4906L288.642 13.5917C288.574 13.5019 288.486 13.429 288.385 13.3789C288.284 13.3288 288.172 13.3027 288.06 13.3027C287.947 13.3027 287.836 13.3288 287.735 13.3789C287.634 13.429 287.546 13.5019 287.478 13.5917Z" fill="#A8F1CE"/>
<defs>
<filter id="filter0_d" x="187" y="48" width="17" height="159" filterUnits="userSpaceOnUse" color-interpolation-filters="sRGB">
<feFlood flood-opacity="0" result="BackgroundImageFix"/>
<feColorMatrix in="SourceAlpha" type="matrix" values="0 0 0 0 0 0 0 0 0 0 0 0 0 0 0 0 0 0 127 0"/>
<feOffset dy="2"/>
<feGaussianBlur stdDeviation="4"/>
<feColorMatrix type="matrix" values="0 0 0 0 0 0 0 0 0 0 0 0 0 0 0 0 0 0 0.15 0"/>
<feBlend mode="normal" in2="BackgroundImageFix" result="effect1_dropShadow"/>
<feBlend mode="normal" in="SourceGraphic" in2="effect1_dropShadow" result="shape"/>
</filter>
</defs>
</svg>
